Ditasweet One.ufo
<glyph name="exclam" format="1">
  <advance width="280"/>
  <unicode hex="0021"/>
  <outline>
    <contour>
      <point x="140" y="100" type="curve" smooth="yes" name="hr00"/>
      <point x="110" y="100"/>
      <point x="85" y="75"/>
      <point x="85" y="45" type="curve" smooth="yes"/>
      <point x="85" y="15"/>
      <point x="110" y="-10"/>
      <point x="140" y="-10" type="curve" smooth="yes"/>
      <point x="170" y="-10"/>
      <point x="195" y="15"/>
      <point x="195" y="45" type="curve" smooth="yes"/>
      <point x="195" y="75"/>
      <point x="170" y="100"/>
    </contour>
    <contour>
      <point x="140" y="720" type="curve"/>
      <point x="95" y="720"/>
      <point x="60" y="685"/>
      <point x="60" y="640" type="curve" smooth="yes"/>
      <point x="60" y="610"/>
      <point x="135" y="220"/>
      <point x="135" y="220" type="curve"/>
      <point x="145" y="220" type="line"/>
      <point x="145" y="220"/>
      <point x="220" y="610"/>
      <point x="220" y="640" type="curve" smooth="yes"/>
      <point x="220" y="685"/>
      <point x="185" y="720"/>
    </contour>
  </outline>
</glyph>
<glyph name="quotedbl" format="1">
  <advance width="340"/>
  <unicode hex="0022"/>
  <outline>
    <contour>
      <point x="100" y="710" type="curve" smooth="yes" name="hr00"/>
      <point x="75" y="710"/>
      <point x="50" y="685"/>
      <point x="50" y="650" type="curve" smooth="yes"/>
      <point x="50" y="630"/>
      <point x="95" y="510"/>
      <point x="95" y="510" type="curve"/>
      <point x="105" y="510" type="line"/>
      <point x="105" y="510"/>
      <point x="150" y="630"/>
      <point x="150" y="650" type="curve" smooth="yes"/>
      <point x="150" y="685"/>
      <point x="125" y="710"/>
    </contour>
    <contour>
      <point x="240" y="710" type="curve" smooth="yes"/>
      <point x="215" y="710"/>
      <point x="190" y="685"/>
      <point x="190" y="650" type="curve" smooth="yes"/>
      <point x="190" y="630"/>
      <point x="235" y="510"/>
      <point x="235" y="510" type="curve"/>
      <point x="245" y="510" type="line"/>
      <point x="245" y="510"/>
      <point x="290" y="630"/>
      <point x="290" y="650" type="curve" smooth="yes"/>
      <point x="290" y="685"/>
      <point x="265" y="710"/>
    </contour>
  </outline>
</glyph>
<glyph name="numbersign" format="1">
  <advance width="515"/>
  <unicode hex="0023"/>
  <outline>
    <contour>
      <point x="187" y="490" type="line" name="hr00"/>
      <point x="133" y="210" type="line"/>
      <point x="10" y="210" type="line"/>
      <point x="10" y="200" type="line"/>
      <point x="130" y="200" type="line"/>
      <point x="90" y="0" type="line"/>
      <point x="100" y="0" type="line"/>
      <point x="140" y="200" type="line"/>
      <point x="315" y="200" type="line"/>
      <point x="275" y="0" type="line"/>
      <point x="285" y="0" type="line"/>
      <point x="325" y="200" type="line"/>
      <point x="460" y="200" type="line"/>
      <point x="460" y="210" type="line"/>
      <point x="328" y="210" type="line"/>
      <point x="382" y="490" type="line"/>
      <point x="505" y="490" type="line"/>
      <point x="505" y="500" type="line"/>
      <point x="385" y="500" type="line"/>
      <point x="425" y="700" type="line"/>
      <point x="415" y="700" type="line"/>
      <point x="375" y="500" type="line"/>
      <point x="200" y="500" type="line"/>
      <point x="240" y="700" type="line"/>
      <point x="230" y="700" type="line"/>
      <point x="190" y="500" type="line"/>
      <point x="55" y="500" type="line"/>
      <point x="55" y="490" type="line"/>
    </contour>
    <contour>
      <point x="372" y="490" type="line"/>
      <point x="318" y="210" type="line"/>
      <point x="143" y="210" type="line"/>
      <point x="197" y="490" type="line"/>
    </contour>
  </outline>
</glyph>
<glyph name="dollar" format="1">
  <advance width="530"/>
  <unicode hex="0024"/>
  <outline>
    <contour>
      <point x="270" y="-110" type="line" name="hr00"/>
      <point x="270" y="-20" type="line"/>
      <point x="400" y="-20"/>
      <point x="490" y="70"/>
      <point x="490" y="180" type="curve" smooth="yes"/>
      <point x="490" y="320"/>
      <point x="370" y="375"/>
      <point x="270" y="425" type="curve"/>
      <point x="270" y="710" type="line"/>
      <point x="280" y="710" type="line" smooth="yes"/>
      <point x="370" y="710"/>
      <point x="425" y="655"/>
      <point x="425" y="655" type="curve"/>
      <point x="425" y="655"/>
      <point x="410" y="660"/>
      <point x="400" y="660" type="curve" smooth="yes"/>
      <point x="360" y="660"/>
      <point x="330" y="630"/>
      <point x="330" y="590" type="curve" smooth="yes"/>
      <point x="330" y="550"/>
      <point x="360" y="520"/>
      <point x="400" y="520" type="curve" smooth="yes"/>
      <point x="440" y="520"/>
      <point x="470" y="550"/>
      <point x="470" y="590" type="curve" smooth="yes"/>
      <point x="470" y="640"/>
      <point x="390" y="720"/>
      <point x="280" y="720" type="curve" smooth="yes"/>
      <point x="270" y="720" type="line"/>
      <point x="270" y="810" type="line"/>
      <point x="260" y="810" type="line"/>
      <point x="260" y="720" type="line"/>
      <point x="140" y="710"/>
      <point x="60" y="630"/>
      <point x="60" y="530" type="curve" smooth="yes"/>
      <point x="60" y="395"/>
      <point x="165" y="345"/>
      <point x="260" y="295" type="curve"/>
      <point x="260" y="-10" type="line"/>
      <point x="113" y="-10"/>
      <point x="34" y="132"/>
      <point x="30" y="139" type="curve"/>
      <point x="30" y="125" type="line"/>
      <point x="30" y="125"/>
      <point x="110" y="-20"/>
      <point x="260" y="-20" type="curve"/>
      <point x="260" y="-110" type="line"/>
    </contour>
    <contour>
      <point x="420" y="120" type="curve" smooth="yes"/>
      <point x="420" y="50"/>
      <point x="360" y="-10"/>
      <point x="270" y="-10" type="curve"/>
      <point x="270" y="290" type="line"/>
      <point x="350" y="250"/>
      <point x="420" y="210"/>
    </contour>
    <contour>
      <point x="130" y="590" type="curve" smooth="yes"/>
      <point x="130" y="650"/>
      <point x="180" y="700"/>
      <point x="260" y="710" type="curve"/>
      <point x="260" y="430" type="line"/>
      <point x="185" y="470"/>
      <point x="130" y="510"/>
    </contour>
  </outline>
</glyph>
<glyph name="percent" format="1">
  <advance width="620"/>
  <unicode hex="0025"/>
  <outline>
    <contour>
      <point x="535" y="700" type="line" name="hr00"/>
      <point x="70" y="0" type="line"/>
      <point x="85" y="0" type="line"/>
      <point x="550" y="700" type="line"/>
    </contour>
    <contour>
      <point x="160" y="710" type="curve" smooth="yes"/>
      <point x="90" y="710"/>
      <point x="30" y="650"/>
      <point x="30" y="570" type="curve" smooth="yes"/>
      <point x="30" y="490"/>
      <point x="90" y="430"/>
      <point x="160" y="430" type="curve" smooth="yes"/>
      <point x="230" y="430"/>
      <point x="290" y="490"/>
      <point x="290" y="570" type="curve" smooth="yes"/>
      <point x="290" y="650"/>
      <point x="230" y="710"/>
    </contour>
    <contour>
      <point x="160" y="440" type="curve" smooth="yes"/>
      <point x="130" y="440"/>
      <point x="110" y="455"/>
      <point x="110" y="455" type="curve"/>
      <point x="110" y="685" type="line"/>
      <point x="110" y="685"/>
      <point x="130" y="700"/>
      <point x="160" y="700" type="curve" smooth="yes"/>
      <point x="190" y="700"/>
      <point x="210" y="685"/>
      <point x="210" y="685" type="curve"/>
      <point x="210" y="455" type="line"/>
      <point x="210" y="455"/>
      <point x="190" y="440"/>
    </contour>
    <contour>
      <point x="460" y="270" type="curve" smooth="yes"/>
      <point x="390" y="270"/>
      <point x="330" y="210"/>
      <point x="330" y="130" type="curve" smooth="yes"/>
      <point x="330" y="50"/>
      <point x="390" y="-10"/>
      <point x="460" y="-10" type="curve" smooth="yes"/>
      <point x="530" y="-10"/>
      <point x="590" y="50"/>
      <point x="590" y="130" type="curve" smooth="yes"/>
      <point x="590" y="210"/>
      <point x="530" y="270"/>
    </contour>
    <contour>
      <point x="460" y="0" type="curve" smooth="yes"/>
      <point x="430" y="0"/>
      <point x="410" y="15"/>
      <point x="410" y="15" type="curve"/>
      <point x="410" y="245" type="line"/>
      <point x="410" y="245"/>
      <point x="430" y="260"/>
      <point x="460" y="260" type="curve" smooth="yes"/>
      <point x="490" y="260"/>
      <point x="510" y="245"/>
      <point x="510" y="245" type="curve"/>
      <point x="510" y="15" type="line"/>
      <point x="510" y="15"/>
      <point x="490" y="0"/>
    </contour>
  </outline>
</glyph>
<glyph name="ampersand" format="1">
  <advance width="720"/>
  <unicode hex="0026"/>
  <outline>
    <contour>
      <point x="775" y="50" type="line" name="hr00"/>
      <point x="775" y="50"/>
      <point x="740" y="20"/>
      <point x="690" y="20" type="curve" smooth="yes"/>
      <point x="630" y="20"/>
      <point x="545" y="135"/>
      <point x="545" y="135" type="curve"/>
      <point x="545" y="135"/>
      <point x="640" y="250"/>
      <point x="640" y="430" type="curve" smooth="yes"/>
      <point x="640" y="465"/>
      <point x="615" y="490"/>
      <point x="580" y="490" type="curve" smooth="yes"/>
      <point x="545" y="490"/>
      <point x="520" y="465"/>
      <point x="520" y="430" type="curve" smooth="yes"/>
      <point x="520" y="395"/>
      <point x="545" y="370"/>
      <point x="580" y="370" type="curve" smooth="yes"/>
      <point x="614" y="370"/>
      <point x="630" y="400"/>
      <point x="630" y="400" type="curve"/>
      <point x="620" y="240"/>
      <point x="540" y="145"/>
      <point x="540" y="145" type="curve"/>
      <point x="450" y="260"/>
      <point x="380" y="360"/>
      <point x="305" y="475" type="curve"/>
      <point x="305" y="475"/>
      <point x="410" y="530"/>
      <point x="410" y="610" type="curve" smooth="yes"/>
      <point x="410" y="665"/>
      <point x="365" y="710"/>
      <point x="300" y="710" type="curve" smooth="yes"/>
      <point x="215" y="710"/>
      <point x="160" y="655"/>
      <point x="160" y="590" type="curve" smooth="yes"/>
      <point x="160" y="540"/>
      <point x="220" y="440"/>
      <point x="220" y="440" type="curve"/>
      <point x="221" y="440"/>
      <point x="40" y="360"/>
      <point x="40" y="200" type="curve" smooth="yes"/>
      <point x="40" y="80"/>
      <point x="140" y="-20"/>
      <point x="270" y="-20" type="curve" smooth="yes"/>
      <point x="400" y="-20"/>
      <point x="485" y="70"/>
      <point x="485" y="70" type="curve"/>
      <point x="485" y="70"/>
      <point x="560" y="-20"/>
      <point x="660" y="-20" type="curve" smooth="yes"/>
      <point x="730" y="-20"/>
      <point x="780" y="40"/>
      <point x="780" y="40" type="curve"/>
    </contour>
    <contour>
      <point x="320" y="690" type="curve"/>
      <point x="365" y="690"/>
      <point x="400" y="655"/>
      <point x="400" y="610" type="curve" smooth="yes"/>
      <point x="400" y="535"/>
      <point x="300" y="485"/>
      <point x="300" y="485" type="curve"/>
      <point x="300" y="485"/>
      <point x="240" y="560"/>
      <point x="240" y="610" type="curve" smooth="yes"/>
      <point x="240" y="655"/>
      <point x="275" y="690"/>
    </contour>
    <contour>
      <point x="340" y="50" type="curve" smooth="yes"/>
      <point x="220" y="50"/>
      <point x="130" y="140"/>
      <point x="130" y="240" type="curve" smooth="yes"/>
      <point x="130" y="360"/>
      <point x="225" y="430"/>
      <point x="225" y="430" type="curve"/>
      <point x="300" y="300"/>
      <point x="380" y="180"/>
      <point x="475" y="80" type="curve"/>
      <point x="475" y="80"/>
      <point x="420" y="50"/>
    </contour>
  </outline>
</glyph>
<glyph name="quotesingle" format="1">
  <advance width="200"/>
  <unicode hex="0027"/>
  <outline>
    <contour>
      <point x="100" y="710" type="curve" smooth="yes" name="hr00"/>
      <point x="75" y="710"/>
      <point x="50" y="685"/>
      <point x="50" y="650" type="curve" smooth="yes"/>
      <point x="50" y="630"/>
      <point x="95" y="510"/>
      <point x="95" y="510" type="curve"/>
      <point x="105" y="510" type="line"/>
      <point x="105" y="510"/>
      <point x="150" y="630"/>
      <point x="150" y="650" type="curve" smooth="yes"/>
      <point x="150" y="685"/>
      <point x="125" y="710"/>
    </contour>
  </outline>
</glyph>
<glyph name="parenleft" format="1">
  <advance width="323"/>
  <unicode hex="0028"/>
  <outline>
    <contour>
      <point x="170" y="270" type="curve" name="hr00"/>
      <point x="170" y="610"/>
      <point x="323" y="760"/>
      <point x="323" y="760" type="curve"/>
      <point x="323" y="770" type="line"/>
      <point x="323" y="770"/>
      <point x="60" y="590"/>
      <point x="60" y="270" type="curve"/>
      <point x="60" y="-50"/>
      <point x="323" y="-230"/>
      <point x="323" y="-230" type="curve"/>
      <point x="323" y="-220" type="line"/>
      <point x="323" y="-220"/>
      <point x="170" y="-70"/>
    </contour>
  </outline>
</glyph>
<glyph name="parenright" format="1">
  <advance width="323"/>
  <unicode hex="0029"/>
  <outline>
    <contour>
      <point x="153" y="270" type="curve" name="hr00"/>
      <point x="153" y="-70"/>
      <point x="0" y="-220"/>
      <point x="0" y="-220" type="curve"/>
      <point x="0" y="-230" type="line"/>
      <point x="0" y="-230"/>
      <point x="263" y="-50"/>
      <point x="263" y="270" type="curve" smooth="yes"/>
      <point x="263" y="590"/>
      <point x="0" y="770"/>
      <point x="0" y="770" type="curve"/>
      <point x="0" y="760" type="line"/>
      <point x="0" y="760"/>
      <point x="153" y="610"/>
    </contour>
  </outline>
</glyph>
<glyph name="asterisk" format="1">
  <advance width="370"/>
  <unicode hex="002A"/>
  <outline>
    <contour>
      <point x="260" y="475" type="line" smooth="yes" name="hr00"/>
      <point x="270" y="465"/>
      <point x="280" y="460"/>
      <point x="290" y="460" type="curve" smooth="yes"/>
      <point x="315" y="460"/>
      <point x="330" y="475"/>
      <point x="330" y="500" type="curve" smooth="yes"/>
      <point x="330" y="520"/>
      <point x="315" y="536"/>
      <point x="290" y="540" type="curve" smooth="yes"/>
      <point x="195" y="555" type="line"/>
      <point x="290" y="570" type="line" smooth="yes"/>
      <point x="315" y="574"/>
      <point x="330" y="590"/>
      <point x="330" y="610" type="curve" smooth="yes"/>
      <point x="330" y="635"/>
      <point x="315" y="650"/>
      <point x="290" y="650" type="curve" smooth="yes"/>
      <point x="280" y="650"/>
      <point x="270" y="645"/>
      <point x="260" y="635" type="curve" smooth="yes"/>
      <point x="190" y="565" type="line"/>
      <point x="193" y="573"/>
      <point x="225" y="651"/>
      <point x="225" y="670" type="curve" smooth="yes"/>
      <point x="225" y="690"/>
      <point x="205" y="710"/>
      <point x="185" y="710" type="curve" smooth="yes"/>
      <point x="165" y="710"/>
      <point x="145" y="690"/>
      <point x="145" y="670" type="curve" smooth="yes"/>
      <point x="145" y="650"/>
      <point x="178" y="569"/>
      <point x="179" y="565" type="curve"/>
      <point x="110" y="635" type="line" smooth="yes"/>
      <point x="100" y="645"/>
      <point x="90" y="650"/>
      <point x="80" y="650" type="curve" smooth="yes"/>
      <point x="55" y="650"/>
      <point x="40" y="635"/>
      <point x="40" y="610" type="curve" smooth="yes"/>
      <point x="40" y="590"/>
      <point x="55" y="574"/>
      <point x="80" y="570" type="curve" smooth="yes"/>
      <point x="175" y="555" type="line"/>
      <point x="80" y="540" type="line" smooth="yes"/>
      <point x="55" y="536"/>
      <point x="40" y="520"/>
      <point x="40" y="500" type="curve" smooth="yes"/>
      <point x="40" y="475"/>
      <point x="55" y="460"/>
      <point x="80" y="460" type="curve" smooth="yes"/>
      <point x="90" y="460"/>
      <point x="100" y="465"/>
      <point x="110" y="475" type="curve" smooth="yes"/>
      <point x="179" y="544" type="line"/>
      <point x="176" y="537"/>
      <point x="145" y="459"/>
      <point x="145" y="440" type="curve" smooth="yes"/>
      <point x="145" y="420"/>
      <point x="165" y="400"/>
      <point x="185" y="400" type="curve" smooth="yes"/>
      <point x="205" y="400"/>
      <point x="225" y="420"/>
      <point x="225" y="440" type="curve" smooth="yes"/>
      <point x="225" y="459"/>
      <point x="192" y="540"/>
      <point x="190" y="544" type="curve"/>
    </contour>
  </outline>
</glyph>
<glyph name="plus" format="1">
  <advance width="410"/>
  <unicode hex="002B"/>
  <outline>
    <contour>
      <point x="20" y="290" type="line" name="hr00"/>
      <point x="200" y="290" type="line"/>
      <point x="200" y="90" type="line"/>
      <point x="210" y="90" type="line"/>
      <point x="210" y="290" type="line"/>
      <point x="390" y="290" type="line"/>
      <point x="390" y="300" type="line"/>
      <point x="210" y="300" type="line"/>
      <point x="210" y="500" type="line"/>
      <point x="200" y="500" type="line"/>
      <point x="200" y="300" type="line"/>
      <point x="20" y="300" type="line"/>
    </contour>
  </outline>
</glyph>
<glyph name="hyphen" format="1">
  <advance width="390"/>
  <unicode hex="002D"/>
  <outline>
    <contour>
      <point x="20" y="300" type="line" name="hr00"/>
      <point x="20" y="290" type="line"/>
      <point x="370" y="290" type="line"/>
      <point x="370" y="300" type="line"/>
    </contour>
  </outline>
</glyph>
<glyph name="zero" format="1">
  <advance width="610"/>
  <unicode hex="0030"/>
  <outline>
    <contour>
      <point x="305" y="710" type="curve" name="hr00"/>
      <point x="370" y="710"/>
      <point x="420" y="665"/>
      <point x="420" y="665" type="curve"/>
      <point x="420" y="35" type="line"/>
      <point x="420" y="35"/>
      <point x="370" y="-10"/>
      <point x="305" y="-10" type="curve"/>
      <point x="240" y="-10"/>
      <point x="190" y="35"/>
      <point x="190" y="35" type="curve"/>
      <point x="190" y="665" type="line"/>
      <point x="190" y="665"/>
      <point x="240" y="710"/>
    </contour>
    <contour>
      <point x="305" y="720" type="curve"/>
      <point x="190" y="720"/>
      <point x="60" y="590"/>
      <point x="60" y="350" type="curve" smooth="yes"/>
      <point x="60" y="110"/>
      <point x="190" y="-20"/>
      <point x="305" y="-20" type="curve"/>
      <point x="420" y="-20"/>
      <point x="550" y="110"/>
      <point x="550" y="350" type="curve" smooth="yes"/>
      <point x="550" y="590"/>
      <point x="420" y="720"/>
    </contour>
  </outline>
</glyph>
<glyph name="one" format="1">
  <advance width="355"/>
  <unicode hex="0031"/>
  <outline>
    <contour>
      <point x="245" y="10" type="line" name="hr00"/>
      <point x="245" y="700" type="line"/>
      <point x="235" y="700" type="line"/>
      <point x="40" y="550" type="line"/>
      <point x="45" y="540" type="line"/>
      <point x="135" y="610" type="line"/>
      <point x="135" y="10" type="line"/>
      <point x="55" y="10" type="line"/>
      <point x="55" y="0" type="line"/>
      <point x="325" y="0" type="line"/>
      <point x="325" y="10" type="line"/>
    </contour>
  </outline>
</glyph>
<glyph name="two" format="1">
  <advance width="540"/>
  <unicode hex="0032"/>
  <outline>
    <contour>
      <point x="240" y="720" type="curve" smooth="yes" name="hr00"/>
      <point x="140" y="720"/>
      <point x="70" y="650"/>
      <point x="70" y="590" type="curve" smooth="yes"/>
      <point x="70" y="550"/>
      <point x="100" y="520"/>
      <point x="140" y="520" type="curve" smooth="yes"/>
      <point x="180" y="520"/>
      <point x="210" y="550"/>
      <point x="210" y="590" type="curve" smooth="yes"/>
      <point x="210" y="630"/>
      <point x="180" y="660"/>
      <point x="140" y="660" type="curve" smooth="yes"/>
      <point x="121" y="660"/>
      <point x="107" y="651"/>
      <point x="105" y="650" type="curve" smooth="yes"/>
      <point x="107" y="652"/>
      <point x="151" y="710"/>
      <point x="240" y="710" type="curve" smooth="yes"/>
      <point x="310" y="710"/>
      <point x="360" y="660"/>
      <point x="360" y="560" type="curve" smooth="yes"/>
      <point x="360" y="260"/>
      <point x="40" y="190"/>
      <point x="40" y="0" type="curve"/>
      <point x="480" y="0" type="line"/>
      <point x="480" y="200" type="line"/>
      <point x="470" y="200" type="line"/>
      <point x="430" y="90" type="line"/>
      <point x="80" y="90" type="line"/>
      <point x="220" y="280"/>
      <point x="480" y="280"/>
      <point x="480" y="520" type="curve" smooth="yes"/>
      <point x="480" y="630"/>
      <point x="390" y="720"/>
    </contour>
  </outline>
</glyph>
<glyph name="three" format="1">
  <advance width="540"/>
  <unicode hex="0033"/>
  <outline>
    <contour>
      <point x="240" y="720" type="curve" smooth="yes" name="hr00"/>
      <point x="140" y="720"/>
      <point x="60" y="650"/>
      <point x="60" y="590" type="curve" smooth="yes"/>
      <point x="60" y="550"/>
      <point x="90" y="520"/>
      <point x="130" y="520" type="curve" smooth="yes"/>
      <point x="170" y="520"/>
      <point x="200" y="550"/>
      <point x="200" y="590" type="curve" smooth="yes"/>
      <point x="200" y="630"/>
      <point x="170" y="660"/>
      <point x="130" y="660" type="curve" smooth="yes"/>
      <point x="111" y="660"/>
      <point x="97" y="651"/>
      <point x="95" y="650" type="curve" smooth="yes"/>
      <point x="97" y="652"/>
      <point x="151" y="710"/>
      <point x="240" y="710" type="curve" smooth="yes"/>
      <point x="290" y="710"/>
      <point x="340" y="695"/>
      <point x="340" y="695" type="curve"/>
      <point x="340" y="385" type="line"/>
      <point x="340" y="384"/>
      <point x="290" y="370"/>
      <point x="240" y="370" type="curve" smooth="yes"/>
      <point x="170" y="370" type="line"/>
      <point x="170" y="360" type="line"/>
      <point x="240" y="360" type="line" smooth="yes"/>
      <point x="305" y="360"/>
      <point x="350" y="340"/>
      <point x="350" y="340" type="curve"/>
      <point x="350" y="10" type="line"/>
      <point x="350" y="10"/>
      <point x="310" y="-10"/>
      <point x="250" y="-10" type="curve" smooth="yes"/>
      <point x="103" y="-10"/>
      <point x="33" y="123"/>
      <point x="30" y="129" type="curve"/>
      <point x="30" y="115" type="line"/>
      <point x="30" y="115"/>
      <point x="100" y="-20"/>
      <point x="250" y="-20" type="curve" smooth="yes"/>
      <point x="390" y="-20"/>
      <point x="480" y="70"/>
      <point x="480" y="175" type="curve" smooth="yes"/>
      <point x="480" y="270"/>
      <point x="400" y="350"/>
      <point x="290" y="365" type="curve"/>
      <point x="390" y="380"/>
      <point x="460" y="450"/>
      <point x="460" y="540" type="curve" smooth="yes"/>
      <point x="460" y="640"/>
      <point x="380" y="720"/>
    </contour>
  </outline>
</glyph>
<glyph name="four" format="1">
  <advance width="530"/>
  <unicode hex="0034"/>
  <outline>
    <contour>
      <point x="420" y="10" type="line" name="hr00"/>
      <point x="420" y="180" type="line"/>
      <point x="490" y="180" type="line"/>
      <point x="490" y="190" type="line"/>
      <point x="420" y="190" type="line"/>
      <point x="420" y="700" type="line"/>
      <point x="410" y="700" type="line"/>
      <point x="0" y="180" type="line"/>
      <point x="310" y="180" type="line"/>
      <point x="310" y="10" type="line"/>
      <point x="250" y="10" type="line"/>
      <point x="250" y="0" type="line"/>
      <point x="480" y="0" type="line"/>
      <point x="480" y="10" type="line"/>
    </contour>
    <contour>
      <point x="20" y="190" type="line"/>
      <point x="310" y="560" type="line"/>
      <point x="310" y="190" type="line"/>
    </contour>
  </outline>
</glyph>
<glyph name="five" format="1">
  <advance width="530"/>
  <unicode hex="0035"/>
  <outline>
    <contour>
      <point x="240" y="440" type="curve" smooth="yes" name="hr00"/>
      <point x="150" y="440"/>
      <point x="90" y="390"/>
      <point x="90" y="390" type="curve"/>
      <point x="115" y="610" type="line"/>
      <point x="430" y="610" type="line"/>
      <point x="430" y="790" type="line"/>
      <point x="420" y="790" type="line"/>
      <point x="390" y="700" type="line"/>
      <point x="115" y="700" type="line"/>
      <point x="80" y="370" type="line"/>
      <point x="80" y="370"/>
      <point x="150" y="430"/>
      <point x="240" y="430" type="curve" smooth="yes"/>
      <point x="305" y="430"/>
      <point x="350" y="405"/>
      <point x="350" y="405" type="curve"/>
      <point x="350" y="15" type="line"/>
      <point x="349" y="14"/>
      <point x="310" y="-10"/>
      <point x="250" y="-10" type="curve" smooth="yes"/>
      <point x="103" y="-10"/>
      <point x="33" y="123"/>
      <point x="30" y="129" type="curve"/>
      <point x="30" y="115" type="line"/>
      <point x="30" y="115"/>
      <point x="100" y="-20"/>
      <point x="250" y="-20" type="curve" smooth="yes"/>
      <point x="380" y="-20"/>
      <point x="480" y="80"/>
      <point x="480" y="210" type="curve" smooth="yes"/>
      <point x="480" y="340"/>
      <point x="380" y="440"/>
    </contour>
  </outline>
</glyph>
<glyph name="six" format="1">
  <advance width="580"/>
  <unicode hex="0036"/>
  <outline>
    <contour>
      <point x="320" y="720" type="curve" smooth="yes" name="hr00"/>
      <point x="190" y="720"/>
      <point x="60" y="590"/>
      <point x="60" y="350" type="curve" smooth="yes"/>
      <point x="60" y="110"/>
      <point x="190" y="-20"/>
      <point x="300" y="-20" type="curve" smooth="yes"/>
      <point x="440" y="-20"/>
      <point x="530" y="70"/>
      <point x="530" y="205" type="curve" smooth="yes"/>
      <point x="530" y="340"/>
      <point x="440" y="430"/>
      <point x="300" y="430" type="curve" smooth="yes"/>
      <point x="240" y="430"/>
      <point x="190" y="395"/>
      <point x="190" y="395" type="curve"/>
      <point x="190" y="660" type="line"/>
      <point x="190" y="660"/>
      <point x="240" y="710"/>
      <point x="320" y="710" type="curve" smooth="yes"/>
      <point x="408" y="710"/>
      <point x="452" y="653"/>
      <point x="454" y="650" type="curve" smooth="yes"/>
      <point x="452" y="652"/>
      <point x="438" y="660"/>
      <point x="420" y="660" type="curve" smooth="yes"/>
      <point x="380" y="660"/>
      <point x="350" y="630"/>
      <point x="350" y="590" type="curve" smooth="yes"/>
      <point x="350" y="550"/>
      <point x="380" y="520"/>
      <point x="420" y="520" type="curve" smooth="yes"/>
      <point x="460" y="520"/>
      <point x="490" y="550"/>
      <point x="490" y="590" type="curve" smooth="yes"/>
      <point x="490" y="650"/>
      <point x="420" y="720"/>
    </contour>
    <contour>
      <point x="300" y="420" type="curve" smooth="yes"/>
      <point x="360" y="420"/>
      <point x="400" y="400"/>
      <point x="400" y="400" type="curve"/>
      <point x="400" y="10" type="line"/>
      <point x="400" y="10"/>
      <point x="360" y="-10"/>
      <point x="300" y="-10" type="curve" smooth="yes"/>
      <point x="240" y="-10"/>
      <point x="190" y="35"/>
      <point x="190" y="35" type="curve"/>
      <point x="190" y="385" type="line"/>
      <point x="190" y="385"/>
      <point x="240" y="420"/>
    </contour>
  </outline>
</glyph>
<glyph name="seven" format="1">
  <advance width="460"/>
  <unicode hex="0037"/>
  <outline>
    <contour>
      <point x="460" y="700" type="curve" name="hr00"/>
      <point x="20" y="700" type="line"/>
      <point x="20" y="510" type="line"/>
      <point x="30" y="510" type="line"/>
      <point x="70" y="620" type="line"/>
      <point x="400" y="620" type="line"/>
      <point x="400" y="620"/>
      <point x="120" y="360"/>
      <point x="120" y="0" type="curve"/>
      <point x="240" y="0" type="line"/>
      <point x="240" y="390"/>
    </contour>
  </outline>
</glyph>
<glyph name="eight" format="1">
  <advance width="600"/>
  <unicode hex="0038"/>
  <outline>
    <contour>
      <point x="300" y="380" type="curve" name="hr00"/>
      <point x="365" y="380"/>
      <point x="410" y="360"/>
      <point x="410" y="360" type="curve"/>
      <point x="410" y="10" type="line"/>
      <point x="410" y="10"/>
      <point x="365" y="-10"/>
      <point x="300" y="-10" type="curve"/>
      <point x="235" y="-10"/>
      <point x="190" y="10"/>
      <point x="190" y="10" type="curve"/>
      <point x="190" y="360" type="line"/>
      <point x="190" y="360"/>
      <point x="235" y="380"/>
    </contour>
    <contour>
      <point x="300" y="710" type="curve"/>
      <point x="350" y="710"/>
      <point x="400" y="695"/>
      <point x="400" y="695" type="curve"/>
      <point x="400" y="405" type="line"/>
      <point x="400" y="404"/>
      <point x="350" y="390"/>
      <point x="300" y="390" type="curve"/>
      <point x="250" y="390"/>
      <point x="200" y="404"/>
      <point x="200" y="405" type="curve"/>
      <point x="200" y="695" type="line"/>
      <point x="200" y="695"/>
      <point x="250" y="710"/>
    </contour>
    <contour>
      <point x="300" y="720" type="curve"/>
      <point x="160" y="720"/>
      <point x="80" y="640"/>
      <point x="80" y="550" type="curve" smooth="yes"/>
      <point x="80" y="465"/>
      <point x="150" y="395"/>
      <point x="250" y="385" type="curve"/>
      <point x="145" y="375"/>
      <point x="60" y="290"/>
      <point x="60" y="185" type="curve" smooth="yes"/>
      <point x="60" y="75"/>
      <point x="155" y="-20"/>
      <point x="300" y="-20" type="curve"/>
      <point x="445" y="-20"/>
      <point x="540" y="75"/>
      <point x="540" y="185" type="curve" smooth="yes"/>
      <point x="540" y="290"/>
      <point x="455" y="375"/>
      <point x="350" y="385" type="curve"/>
      <point x="450" y="395"/>
      <point x="520" y="465"/>
      <point x="520" y="550" type="curve" smooth="yes"/>
      <point x="520" y="640"/>
      <point x="440" y="720"/>
    </contour>
  </outline>
</glyph>
<glyph name="nine" format="1">
  <advance width="580"/>
  <unicode hex="0039"/>
  <outline>
    <contour>
      <point x="260" y="-20" type="curve" smooth="yes" name="hr00"/>
      <point x="390" y="-20"/>
      <point x="520" y="110"/>
      <point x="520" y="350" type="curve" smooth="yes"/>
      <point x="520" y="590"/>
      <point x="390" y="720"/>
      <point x="280" y="720" type="curve" smooth="yes"/>
      <point x="140" y="720"/>
      <point x="50" y="630"/>
      <point x="50" y="495" type="curve" smooth="yes"/>
      <point x="50" y="360"/>
      <point x="140" y="270"/>
      <point x="280" y="270" type="curve" smooth="yes"/>
      <point x="340" y="270"/>
      <point x="390" y="305"/>
      <point x="390" y="305" type="curve"/>
      <point x="390" y="40" type="line"/>
      <point x="390" y="40"/>
      <point x="340" y="-10"/>
      <point x="260" y="-10" type="curve" smooth="yes"/>
      <point x="172" y="-10"/>
      <point x="127" y="47"/>
      <point x="125" y="49" type="curve"/>
      <point x="128" y="48"/>
      <point x="142" y="40"/>
      <point x="160" y="40" type="curve" smooth="yes"/>
      <point x="200" y="40"/>
      <point x="230" y="70"/>
      <point x="230" y="110" type="curve" smooth="yes"/>
      <point x="230" y="150"/>
      <point x="200" y="180"/>
      <point x="160" y="180" type="curve" smooth="yes"/>
      <point x="120" y="180"/>
      <point x="90" y="150"/>
      <point x="90" y="110" type="curve" smooth="yes"/>
      <point x="90" y="50"/>
      <point x="160" y="-20"/>
    </contour>
    <contour>
      <point x="280" y="280" type="curve" smooth="yes"/>
      <point x="220" y="280"/>
      <point x="180" y="300"/>
      <point x="180" y="300" type="curve"/>
      <point x="180" y="690" type="line"/>
      <point x="180" y="690"/>
      <point x="220" y="710"/>
      <point x="280" y="710" type="curve" smooth="yes"/>
      <point x="340" y="710"/>
      <point x="390" y="665"/>
      <point x="390" y="665" type="curve"/>
      <point x="390" y="315" type="line"/>
      <point x="390" y="315"/>
      <point x="340" y="280"/>
    </contour>
  </outline>
</glyph>
<glyph name="colon" format="1">
  <advance width="170"/>
  <unicode hex="003A"/>
  <outline>
    <contour>
      <point x="85" y="100" type="curve" name="hr00"/>
      <point x="55" y="100"/>
      <point x="30" y="75"/>
      <point x="30" y="45" type="curve" smooth="yes"/>
      <point x="30" y="15"/>
      <point x="55" y="-10"/>
      <point x="85" y="-10" type="curve" smooth="yes"/>
      <point x="115" y="-10"/>
      <point x="140" y="15"/>
      <point x="140" y="45" type="curve" smooth="yes"/>
      <point x="140" y="75"/>
      <point x="115" y="100"/>
    </contour>
    <contour>
      <point x="85" y="490" type="curve"/>
      <point x="55" y="490"/>
      <point x="30" y="465"/>
      <point x="30" y="435" type="curve" smooth="yes"/>
      <point x="30" y="405"/>
      <point x="55" y="380"/>
      <point x="85" y="380" type="curve" smooth="yes"/>
      <point x="115" y="380"/>
      <point x="140" y="405"/>
      <point x="140" y="435" type="curve" smooth="yes"/>
      <point x="140" y="465"/>
      <point x="115" y="490"/>
    </contour>
  </outline>
</glyph>
<glyph name="semicolon" format="1">
  <advance width="175"/>
  <unicode hex="003B"/>
  <outline>
    <contour>
      <point x="85" y="490" type="curve" name="hr00"/>
      <point x="55" y="490"/>
      <point x="30" y="465"/>
      <point x="30" y="435" type="curve" smooth="yes"/>
      <point x="30" y="405"/>
      <point x="55" y="380"/>
      <point x="85" y="380" type="curve" smooth="yes"/>
      <point x="115" y="380"/>
      <point x="140" y="405"/>
      <point x="140" y="435" type="curve" smooth="yes"/>
      <point x="140" y="465"/>
      <point x="115" y="490"/>
    </contour>
    <contour>
      <point x="85" y="100" type="curve" smooth="yes"/>
      <point x="55" y="100"/>
      <point x="30" y="75"/>
      <point x="30" y="45" type="curve" smooth="yes"/>
      <point x="30" y="15"/>
      <point x="55" y="-10"/>
      <point x="85" y="-10" type="curve" smooth="yes"/>
      <point x="120" y="-10"/>
      <point x="135" y="20"/>
      <point x="135" y="20" type="curve"/>
      <point x="135" y="-65"/>
      <point x="100" y="-100"/>
      <point x="55" y="-100" type="curve"/>
      <point x="55" y="-110" type="line"/>
      <point x="105" y="-110"/>
      <point x="145" y="-70"/>
      <point x="145" y="20" type="curve" smooth="yes"/>
      <point x="145" y="70"/>
      <point x="115" y="100"/>
    </contour>
  </outline>
</glyph>
<glyph name="equal" format="1">
  <advance width="380"/>
  <unicode hex="003D"/>
  <outline>
    <contour>
      <point x="20" y="220" type="line" name="hr00"/>
      <point x="20" y="210" type="line"/>
      <point x="360" y="210" type="line"/>
      <point x="360" y="220" type="line"/>
    </contour>
    <contour>
      <point x="20" y="380" type="line"/>
      <point x="20" y="370" type="line"/>
      <point x="360" y="370" type="line"/>
      <point x="360" y="380" type="line"/>
    </contour>
  </outline>
</glyph>
<glyph name="greater" format="1">
  <advance width="380"/>
  <unicode hex="003E"/>
  <outline>
    <contour>
      <point x="30" y="460" type="line" name="hr00"/>
      <point x="30" y="445" type="line"/>
      <point x="330" y="240" type="line"/>
      <point x="30" y="35" type="line"/>
      <point x="30" y="20" type="line"/>
      <point x="350" y="240" type="line"/>
    </contour>
  </outline>
</glyph>
<glyph name="question" format="1">
  <advance width="460"/>
  <unicode hex="003F"/>
  <outline>
    <contour>
      <point x="230" y="720" type="curve" smooth="yes" name="hr00"/>
      <point x="100" y="720"/>
      <point x="20" y="640"/>
      <point x="20" y="585" type="curve" smooth="yes"/>
      <point x="20" y="550"/>
      <point x="50" y="520"/>
      <point x="85" y="520" type="curve" smooth="yes"/>
      <point x="120" y="520"/>
      <point x="150" y="550"/>
      <point x="150" y="585" type="curve" smooth="yes"/>
      <point x="150" y="620"/>
      <point x="120" y="650"/>
      <point x="85" y="650" type="curve" smooth="yes"/>
      <point x="72" y="650"/>
      <point x="59" y="643"/>
      <point x="56" y="641" type="curve"/>
      <point x="58" y="644"/>
      <point x="102" y="690"/>
      <point x="170" y="690" type="curve" smooth="yes"/>
      <point x="270" y="690"/>
      <point x="330" y="630"/>
      <point x="330" y="528" type="curve" smooth="yes"/>
      <point x="330" y="370"/>
      <point x="210" y="320"/>
      <point x="210" y="320" type="curve"/>
      <point x="210" y="220" type="line"/>
      <point x="220" y="220" type="line"/>
      <point x="220" y="310" type="line"/>
      <point x="220" y="310"/>
      <point x="440" y="370"/>
      <point x="440" y="530" type="curve" smooth="yes"/>
      <point x="440" y="630"/>
      <point x="350" y="720"/>
    </contour>
    <contour>
      <point x="215" y="100" type="curve" smooth="yes"/>
      <point x="185" y="100"/>
      <point x="160" y="75"/>
      <point x="160" y="45" type="curve" smooth="yes"/>
      <point x="160" y="15"/>
      <point x="185" y="-10"/>
      <point x="215" y="-10" type="curve" smooth="yes"/>
      <point x="245" y="-10"/>
      <point x="270" y="15"/>
      <point x="270" y="45" type="curve" smooth="yes"/>
      <point x="270" y="75"/>
      <point x="245" y="100"/>
    </contour>
  </outline>
</glyph>
<glyph name="at" format="1">
  <advance width="830"/>
  <unicode hex="0040"/>
  <outline>
    <contour>
      <point x="420" y="710" type="curve" smooth="yes" name="hr00"/>
      <point x="610" y="710"/>
      <point x="770" y="550"/>
      <point x="770" y="370" type="curve" smooth="yes"/>
      <point x="770" y="245"/>
      <point x="705" y="180"/>
      <point x="620" y="180" type="curve" smooth="yes"/>
      <point x="575" y="180"/>
      <point x="550" y="210"/>
      <point x="550" y="210" type="curve"/>
      <point x="550" y="490" type="line"/>
      <point x="590" y="490" type="line"/>
      <point x="590" y="500" type="line"/>
      <point x="470" y="500" type="line"/>
      <point x="470" y="480" type="line"/>
      <point x="470" y="480"/>
      <point x="440" y="510"/>
      <point x="400" y="510" type="curve" smooth="yes"/>
      <point x="320" y="510"/>
      <point x="250" y="440"/>
      <point x="250" y="340" type="curve" smooth="yes"/>
      <point x="250" y="240"/>
      <point x="320" y="170"/>
      <point x="400" y="170" type="curve" smooth="yes"/>
      <point x="470" y="170"/>
      <point x="510" y="240"/>
      <point x="510" y="240" type="curve"/>
      <point x="510" y="240"/>
      <point x="550" y="170"/>
      <point x="620" y="170" type="curve" smooth="yes"/>
      <point x="710" y="170"/>
      <point x="780" y="240"/>
      <point x="780" y="370" type="curve" smooth="yes"/>
      <point x="780" y="555"/>
      <point x="615" y="720"/>
      <point x="420" y="720" type="curve" smooth="yes"/>
      <point x="220" y="720"/>
      <point x="50" y="550"/>
      <point x="50" y="350" type="curve" smooth="yes"/>
      <point x="50" y="150"/>
      <point x="220" y="-20"/>
      <point x="420" y="-20" type="curve" smooth="yes"/>
      <point x="590" y="-20"/>
      <point x="690" y="90"/>
      <point x="690" y="90" type="curve"/>
      <point x="685" y="100" type="line"/>
      <point x="685" y="100"/>
      <point x="590" y="-10"/>
      <point x="420" y="-10" type="curve" smooth="yes"/>
      <point x="225" y="-10"/>
      <point x="60" y="155"/>
      <point x="60" y="350" type="curve" smooth="yes"/>
      <point x="60" y="545"/>
      <point x="225" y="710"/>
    </contour>
    <contour>
      <point x="470" y="210" type="line"/>
      <point x="470" y="210"/>
      <point x="445" y="180"/>
      <point x="400" y="180" type="curve" smooth="yes"/>
      <point x="365" y="180"/>
      <point x="340" y="195"/>
      <point x="340" y="195" type="curve"/>
      <point x="340" y="485" type="line"/>
      <point x="340" y="485"/>
      <point x="370" y="500"/>
      <point x="400" y="500" type="curve" smooth="yes"/>
      <point x="440" y="500"/>
      <point x="470" y="470"/>
      <point x="470" y="470" type="curve"/>
    </contour>
  </outline>
</glyph>
<glyph name="A" format="1">
  <advance width="620"/>
  <unicode hex="0041"/>
  <outline>
    <contour>
      <point x="560" y="10" type="line" name="hr00"/>
      <point x="315" y="700" type="line"/>
      <point x="295" y="700" type="line"/>
      <point x="60" y="10" type="line"/>
      <point x="-20" y="10" type="line"/>
      <point x="-20" y="0" type="line"/>
      <point x="150" y="0" type="line"/>
      <point x="150" y="10" type="line"/>
      <point x="70" y="10" type="line"/>
      <point x="131" y="190" type="line"/>
      <point x="375" y="190" type="line"/>
      <point x="440" y="10" type="line"/>
      <point x="380" y="10" type="line"/>
      <point x="380" y="0" type="line"/>
      <point x="620" y="0" type="line"/>
      <point x="620" y="10" type="line"/>
    </contour>
    <contour>
      <point x="135" y="200" type="line"/>
      <point x="250" y="540" type="line"/>
      <point x="370" y="200" type="line"/>
    </contour>
  </outline>
</glyph>
<glyph name="B" format="1">
  <advance width="610"/>
  <unicode hex="0042"/>
  <outline>
    <contour>
      <point x="570" y="205" type="curve" smooth="yes" name="hr00"/>
      <point x="570" y="400"/>
      <point x="340" y="405"/>
      <point x="340" y="405" type="curve"/>
      <point x="340" y="410" type="line"/>
      <point x="340" y="410"/>
      <point x="500" y="420"/>
      <point x="500" y="550" type="curve" smooth="yes"/>
      <point x="500" y="630"/>
      <point x="430" y="700"/>
      <point x="250" y="700" type="curve" smooth="yes"/>
      <point x="60" y="700" type="line"/>
      <point x="60" y="690" type="line"/>
      <point x="120" y="690" type="line"/>
      <point x="120" y="10" type="line"/>
      <point x="60" y="10" type="line"/>
      <point x="60" y="0" type="line"/>
      <point x="300" y="0" type="line" smooth="yes"/>
      <point x="480" y="0"/>
      <point x="570" y="90"/>
    </contour>
    <contour>
      <point x="300" y="10" type="curve"/>
      <point x="230" y="10" type="line"/>
      <point x="230" y="400" type="line"/>
      <point x="300" y="400" type="line" smooth="yes"/>
      <point x="390" y="400"/>
      <point x="450" y="370"/>
      <point x="450" y="370" type="curve"/>
      <point x="450" y="40" type="line"/>
      <point x="450" y="40"/>
      <point x="390" y="10"/>
    </contour>
    <contour>
      <point x="250" y="690" type="line" smooth="yes"/>
      <point x="330" y="690"/>
      <point x="380" y="675"/>
      <point x="380" y="675" type="curve"/>
      <point x="380" y="425" type="line"/>
      <point x="381" y="425"/>
      <point x="330" y="410"/>
      <point x="250" y="410" type="curve" smooth="yes"/>
      <point x="230" y="410" type="line"/>
      <point x="230" y="690" type="line"/>
    </contour>
  </outline>
</glyph>
<glyph name="F" format="1">
  <advance width="530"/>
  <unicode hex="0046"/>
  <outline>
    <contour>
      <point x="60" y="700" type="line" name="hr00"/>
      <point x="60" y="690" type="line"/>
      <point x="120" y="690" type="line"/>
      <point x="120" y="10" type="line"/>
      <point x="60" y="10" type="line"/>
      <point x="60" y="0" type="line"/>
      <point x="290" y="0" type="line"/>
      <point x="290" y="10" type="line"/>
      <point x="230" y="10" type="line"/>
      <point x="230" y="340" type="line"/>
      <point x="370" y="340" type="line"/>
      <point x="370" y="250" type="line"/>
      <point x="380" y="250" type="line"/>
      <point x="380" y="440" type="line"/>
      <point x="370" y="440" type="line"/>
      <point x="370" y="350" type="line"/>
      <point x="230" y="350" type="line"/>
      <point x="230" y="690" type="line"/>
      <point x="410" y="690" type="line"/>
      <point x="480" y="500" type="line"/>
      <point x="490" y="500" type="line"/>
      <point x="490" y="700" type="line"/>
    </contour>
  </outline>
</glyph>
<glyph name="G" format="1">
  <advance width="760"/>
  <unicode hex="0047"/>
  <outline>
    <contour>
      <point x="395" y="-10" type="curve" smooth="yes" name="hr00"/>
      <point x="260" y="-10"/>
      <point x="180" y="75"/>
      <point x="180" y="75" type="curve"/>
      <point x="180" y="625" type="line"/>
      <point x="180" y="625"/>
      <point x="260" y="710"/>
      <point x="395" y="710" type="curve" smooth="yes"/>
      <point x="521" y="710"/>
      <point x="593" y="644"/>
      <point x="601" y="635" type="curve"/>
      <point x="598" y="637"/>
      <point x="590" y="640"/>
      <point x="580" y="640" type="curve" smooth="yes"/>
      <point x="535" y="640"/>
      <point x="500" y="605"/>
      <point x="500" y="560" type="curve" smooth="yes"/>
      <point x="500" y="515"/>
      <point x="535" y="480"/>
      <point x="580" y="480" type="curve" smooth="yes"/>
      <point x="625" y="480"/>
      <point x="660" y="515"/>
      <point x="660" y="560" type="curve" smooth="yes"/>
      <point x="660" y="620"/>
      <point x="560" y="720"/>
      <point x="395" y="720" type="curve" smooth="yes"/>
      <point x="210" y="720"/>
      <point x="50" y="560"/>
      <point x="50" y="350" type="curve" smooth="yes"/>
      <point x="50" y="140"/>
      <point x="210" y="-20"/>
      <point x="395" y="-20" type="curve" smooth="yes"/>
      <point x="590" y="-20"/>
      <point x="690" y="150"/>
      <point x="690" y="150" type="curve"/>
      <point x="690" y="210" type="line"/>
      <point x="750" y="210" type="line"/>
      <point x="750" y="220" type="line"/>
      <point x="520" y="220" type="line"/>
      <point x="520" y="210" type="line"/>
      <point x="580" y="210" type="line"/>
      <point x="580" y="50" type="line"/>
      <point x="580" y="50"/>
      <point x="500" y="-10"/>
    </contour>
  </outline>
</glyph>
<glyph name="I" format="1">
  <advance width="350"/>
  <unicode hex="0049"/>
  <outline>
    <contour>
      <point x="120" y="690" type="line" name="hr00"/>
      <point x="120" y="10" type="line"/>
      <point x="60" y="10" type="line"/>
      <point x="60" y="0" type="line"/>
      <point x="290" y="0" type="line"/>
      <point x="290" y="10" type="line"/>
      <point x="230" y="10" type="line"/>
      <point x="230" y="690" type="line"/>
      <point x="290" y="690" type="line"/>
      <point x="290" y="700" type="line"/>
      <point x="60" y="700" type="line"/>
      <point x="60" y="690" type="line"/>
    </contour>
  </outline>
</glyph>
<glyph name="J" format="1">
  <advance width="520"/>
  <unicode hex="004A"/>
  <outline>
    <contour>
      <point x="480" y="700" type="line" name="hr00"/>
      <point x="250" y="700" type="line"/>
      <point x="250" y="690" type="line"/>
      <point x="310" y="690" type="line"/>
      <point x="310" y="20" type="line"/>
      <point x="310" y="20"/>
      <point x="270" y="-10"/>
      <point x="200" y="-10" type="curve"/>
      <point x="105" y="-10"/>
      <point x="30" y="65"/>
      <point x="20" y="140" type="curve"/>
      <point x="10" y="140" type="line"/>
      <point x="20" y="60"/>
      <point x="100" y="-20"/>
      <point x="200" y="-20" type="curve"/>
      <point x="330" y="-20"/>
      <point x="420" y="70"/>
      <point x="420" y="240" type="curve"/>
      <point x="420" y="690" type="line"/>
      <point x="480" y="690" type="line"/>
    </contour>
  </outline>
</glyph>
<glyph name="K" format="1">
  <advance width="640"/>
  <unicode hex="004B"/>
  <outline>
    <contour>
      <point x="610" y="10" type="line" name="hr00"/>
      <point x="320" y="440" type="line"/>
      <point x="490" y="690" type="line"/>
      <point x="570" y="690" type="line"/>
      <point x="570" y="700" type="line"/>
      <point x="390" y="700" type="line"/>
      <point x="390" y="690" type="line"/>
      <point x="480" y="690" type="line"/>
      <point x="230" y="320" type="line"/>
      <point x="230" y="690" type="line"/>
      <point x="290" y="690" type="line"/>
      <point x="290" y="700" type="line"/>
      <point x="60" y="700" type="line"/>
      <point x="60" y="690" type="line"/>
      <point x="120" y="690" type="line"/>
      <point x="120" y="10" type="line"/>
      <point x="60" y="10" type="line"/>
      <point x="60" y="0" type="line"/>
      <point x="290" y="0" type="line"/>
      <point x="290" y="10" type="line"/>
      <point x="230" y="10" type="line"/>
      <point x="230" y="305" type="line"/>
      <point x="260" y="350" type="line"/>
      <point x="490" y="10" type="line"/>
      <point x="430" y="10" type="line"/>
      <point x="430" y="0" type="line"/>
      <point x="670" y="0" type="line"/>
      <point x="670" y="10" type="line"/>
    </contour>
  </outline>
</glyph>
<glyph name="N" format="1">
  <advance width="700"/>
  <unicode hex="004E"/>
  <outline>
    <contour>
      <point x="660" y="700" type="line" name="hr00"/>
      <point x="490" y="700" type="line"/>
      <point x="490" y="690" type="line"/>
      <point x="570" y="690" type="line"/>
      <point x="570" y="180" type="line"/>
      <point x="250" y="700" type="line"/>
      <point x="40" y="700" type="line"/>
      <point x="40" y="690" type="line"/>
      <point x="120" y="690" type="line"/>
      <point x="120" y="10" type="line"/>
      <point x="40" y="10" type="line"/>
      <point x="40" y="0" type="line"/>
      <point x="210" y="0" type="line"/>
      <point x="210" y="10" type="line"/>
      <point x="130" y="10" type="line"/>
      <point x="130" y="680" type="line"/>
      <point x="560" y="-20" type="line"/>
      <point x="580" y="-20" type="line"/>
      <point x="580" y="690" type="line"/>
      <point x="660" y="690" type="line"/>
    </contour>
  </outline>
</glyph>
<glyph name="Q" format="1">
  <advance width="790"/>
  <unicode hex="0051"/>
  <outline>
    <contour>
      <point x="680" y="-10" type="curve" smooth="yes" name="hr00"/>
      <point x="650" y="-10"/>
      <point x="620" y="-40"/>
      <point x="620" y="-74" type="curve" smooth="yes"/>
      <point x="620" y="-90"/>
      <point x="630" y="-105"/>
      <point x="630" y="-105" type="curve"/>
      <point x="590" y="-75"/>
      <point x="555" y="-20"/>
      <point x="530" y="10" type="curve"/>
      <point x="530" y="10"/>
      <point x="740" y="95"/>
      <point x="740" y="350" type="curve" smooth="yes"/>
      <point x="740" y="560"/>
      <point x="580" y="720"/>
      <point x="395" y="720" type="curve" smooth="yes"/>
      <point x="210" y="720"/>
      <point x="50" y="560"/>
      <point x="50" y="350" type="curve" smooth="yes"/>
      <point x="50" y="140"/>
      <point x="210" y="-20"/>
      <point x="395" y="-20" type="curve" smooth="yes"/>
      <point x="455" y="-20"/>
      <point x="520" y="5"/>
      <point x="520" y="5" type="curve"/>
      <point x="520" y="5"/>
      <point x="546" y="-26"/>
      <point x="565" y="-50" type="curve" smooth="yes"/>
      <point x="600" y="-95"/>
      <point x="634" y="-130"/>
      <point x="680" y="-130" type="curve" smooth="yes"/>
      <point x="710" y="-130"/>
      <point x="740" y="-100"/>
      <point x="740" y="-75" type="curve" smooth="yes"/>
      <point x="740" y="-40"/>
      <point x="710" y="-10"/>
    </contour>
    <contour>
      <point x="610" y="75" type="line"/>
      <point x="610" y="75"/>
      <point x="570" y="40"/>
      <point x="525" y="20" type="curve"/>
      <point x="525" y="20"/>
      <point x="480" y="80"/>
      <point x="390" y="80" type="curve" smooth="yes"/>
      <point x="310" y="80"/>
      <point x="250" y="25"/>
      <point x="250" y="25" type="curve"/>
      <point x="220" y="40"/>
      <point x="180" y="74"/>
      <point x="180" y="75" type="curve"/>
      <point x="180" y="625" type="line"/>
      <point x="180" y="625"/>
      <point x="260" y="710"/>
      <point x="395" y="710" type="curve" smooth="yes"/>
      <point x="530" y="710"/>
      <point x="610" y="625"/>
      <point x="610" y="625" type="curve"/>
    </contour>
    <contour>
      <point x="395" y="-10" type="curve" smooth="yes"/>
      <point x="351" y="-10"/>
      <point x="298" y="4"/>
      <point x="260" y="20" type="curve"/>
      <point x="260" y="20"/>
      <point x="310" y="70"/>
      <point x="390" y="70" type="curve" smooth="yes"/>
      <point x="480" y="70"/>
      <point x="515" y="15"/>
      <point x="515" y="15" type="curve"/>
      <point x="515" y="15"/>
      <point x="460" y="-10"/>
    </contour>
  </outline>
</glyph>
<glyph name="R" format="1">
  <advance width="620"/>
  <unicode hex="0052"/>
  <outline>
    <contour>
      <point x="530" y="10" type="line" name="hr00"/>
      <point x="530" y="190" type="line" smooth="yes"/>
      <point x="530" y="349"/>
      <point x="334" y="364"/>
      <point x="321" y="365" type="curve"/>
      <point x="340" y="366"/>
      <point x="530" y="387"/>
      <point x="530" y="530" type="curve" smooth="yes"/>
      <point x="530" y="620"/>
      <point x="450" y="700"/>
      <point x="260" y="700" type="curve" smooth="yes"/>
      <point x="60" y="700" type="line"/>
      <point x="60" y="690" type="line"/>
      <point x="120" y="690" type="line"/>
      <point x="120" y="10" type="line"/>
      <point x="60" y="10" type="line"/>
      <point x="60" y="0" type="line"/>
      <point x="290" y="0" type="line"/>
      <point x="290" y="10" type="line"/>
      <point x="230" y="10" type="line"/>
      <point x="230" y="360" type="line"/>
      <point x="270" y="360" type="line" smooth="yes"/>
      <point x="360" y="360"/>
      <point x="420" y="330"/>
      <point x="420" y="330" type="curve"/>
      <point x="420" y="10" type="line"/>
      <point x="360" y="10" type="line"/>
      <point x="360" y="0" type="line"/>
      <point x="590" y="0" type="line"/>
      <point x="590" y="10" type="line"/>
    </contour>
    <contour>
      <point x="230" y="690" type="line"/>
      <point x="260" y="690" type="line" smooth="yes"/>
      <point x="350" y="690"/>
      <point x="410" y="665"/>
      <point x="410" y="665" type="curve"/>
      <point x="410" y="395" type="line"/>
      <point x="410" y="395"/>
      <point x="350" y="370"/>
      <point x="260" y="370" type="curve" smooth="yes"/>
      <point x="230" y="370" type="line"/>
    </contour>
  </outline>
</glyph>
<glyph name="S" format="1">
  <advance width="530"/>
  <unicode hex="0053"/>
  <outline>
    <contour>
      <point x="260" y="-10" type="curve" smooth="yes" name="hr00"/>
      <point x="113" y="-10"/>
      <point x="34" y="123"/>
      <point x="30" y="129" type="curve"/>
      <point x="30" y="115" type="line"/>
      <point x="30" y="115"/>
      <point x="110" y="-20"/>
      <point x="260" y="-20" type="curve" smooth="yes"/>
      <point x="400" y="-20"/>
      <point x="490" y="70"/>
      <point x="490" y="180" type="curve" smooth="yes"/>
      <point x="490" y="430"/>
      <point x="130" y="390"/>
      <point x="130" y="590" type="curve" smooth="yes"/>
      <point x="130" y="650"/>
      <point x="190" y="710"/>
      <point x="280" y="710" type="curve" smooth="yes"/>
      <point x="370" y="710"/>
      <point x="425" y="655"/>
      <point x="425" y="655" type="curve"/>
      <point x="425" y="655"/>
      <point x="410" y="660"/>
      <point x="400" y="660" type="curve" smooth="yes"/>
      <point x="360" y="660"/>
      <point x="330" y="630"/>
      <point x="330" y="590" type="curve" smooth="yes"/>
      <point x="330" y="550"/>
      <point x="360" y="520"/>
      <point x="400" y="520" type="curve" smooth="yes"/>
      <point x="440" y="520"/>
      <point x="470" y="550"/>
      <point x="470" y="590" type="curve" smooth="yes"/>
      <point x="470" y="640"/>
      <point x="390" y="720"/>
      <point x="280" y="720" type="curve" smooth="yes"/>
      <point x="150" y="720"/>
      <point x="60" y="630"/>
      <point x="60" y="530" type="curve" smooth="yes"/>
      <point x="60" y="280"/>
      <point x="420" y="320"/>
      <point x="420" y="120" type="curve" smooth="yes"/>
      <point x="420" y="50"/>
      <point x="360" y="-10"/>
    </contour>
  </outline>
</glyph>
<glyph name="U" format="1">
  <advance width="650"/>
  <unicode hex="0055"/>
  <outline>
    <contour>
      <point x="580" y="240" type="curve" name="hr00"/>
      <point x="580" y="630" type="line" smooth="yes"/>
      <point x="580" y="675"/>
      <point x="545" y="710"/>
      <point x="500" y="710" type="curve" smooth="yes"/>
      <point x="455" y="710"/>
      <point x="420" y="675"/>
      <point x="420" y="630" type="curve" smooth="yes"/>
      <point x="420" y="585"/>
      <point x="455" y="550"/>
      <point x="500" y="550" type="curve" smooth="yes"/>
      <point x="548" y="550"/>
      <point x="569" y="587"/>
      <point x="570" y="589" type="curve"/>
      <point x="570" y="240" type="line" smooth="yes"/>
      <point x="570" y="85"/>
      <point x="475" y="-10"/>
      <point x="345" y="-10" type="curve" smooth="yes"/>
      <point x="270" y="-10"/>
      <point x="220" y="25"/>
      <point x="220" y="25" type="curve"/>
      <point x="220" y="690" type="line"/>
      <point x="280" y="690" type="line"/>
      <point x="280" y="700" type="line"/>
      <point x="50" y="700" type="line"/>
      <point x="50" y="690" type="line"/>
      <point x="110" y="690" type="line"/>
      <point x="110" y="240" type="line" smooth="yes"/>
      <point x="110" y="80"/>
      <point x="210" y="-20"/>
      <point x="345" y="-20" type="curve" smooth="yes"/>
      <point x="480" y="-20"/>
      <point x="580" y="80"/>
    </contour>
  </outline>
</glyph>
<glyph name="V" format="1">
  <advance width="620"/>
  <unicode hex="0056"/>
  <outline>
    <contour>
      <point x="640" y="700" type="line" name="hr00"/>
      <point x="470" y="700" type="line"/>
      <point x="470" y="690" type="line"/>
      <point x="550" y="690" type="line"/>
      <point x="370" y="160" type="line"/>
      <point x="180" y="690" type="line"/>
      <point x="240" y="690" type="line"/>
      <point x="240" y="700" type="line"/>
      <point x="0" y="700" type="line"/>
      <point x="0" y="690" type="line"/>
      <point x="60" y="690" type="line"/>
      <point x="305" y="0" type="line"/>
      <point x="325" y="0" type="line"/>
      <point x="560" y="690" type="line"/>
      <point x="640" y="690" type="line"/>
    </contour>
  </outline>
</glyph>
<glyph name="W" format="1">
  <advance width="935"/>
  <unicode hex="0057"/>
  <outline>
    <contour>
      <point x="714" y="140" type="line" name="hr00"/>
      <point x="499" y="690" type="line"/>
      <point x="559" y="690" type="line"/>
      <point x="559" y="700" type="line"/>
      <point x="0" y="700" type="line"/>
      <point x="0" y="690" type="line"/>
      <point x="60" y="690" type="line"/>
      <point x="330" y="0" type="line"/>
      <point x="350" y="0" type="line"/>
      <point x="500" y="380" type="line"/>
      <point x="649" y="0" type="line"/>
      <point x="669" y="0" type="line"/>
      <point x="885" y="550" type="line"/>
      <point x="885" y="550"/>
      <point x="905" y="600"/>
      <point x="905" y="630" type="curve" smooth="yes"/>
      <point x="905" y="675"/>
      <point x="870" y="710"/>
      <point x="825" y="710" type="curve" smooth="yes"/>
      <point x="780" y="710"/>
      <point x="745" y="675"/>
      <point x="745" y="630" type="curve" smooth="yes"/>
      <point x="745" y="585"/>
      <point x="780" y="550"/>
      <point x="825" y="550" type="curve" smooth="yes"/>
      <point x="855" y="550"/>
      <point x="880" y="565"/>
      <point x="880" y="565" type="curve"/>
    </contour>
    <contour>
      <point x="379" y="690" type="line"/>
      <point x="495" y="395" type="line"/>
      <point x="395" y="140" type="line"/>
      <point x="180" y="690" type="line"/>
    </contour>
  </outline>
</glyph>
<glyph name="X" format="1">
  <advance width="610"/>
  <unicode hex="0058"/>
  <outline>
    <contour>
      <point x="60" y="690" type="line" name="hr00"/>
      <point x="270" y="315" type="line"/>
      <point x="90" y="10" type="line"/>
      <point x="10" y="10" type="line"/>
      <point x="10" y="0" type="line"/>
      <point x="180" y="0" type="line"/>
      <point x="180" y="10" type="line"/>
      <point x="100" y="10" type="line"/>
      <point x="275" y="305" type="line"/>
      <point x="440" y="10" type="line"/>
      <point x="380" y="10" type="line"/>
      <point x="380" y="0" type="line"/>
      <point x="630" y="0" type="line"/>
      <point x="630" y="10" type="line"/>
      <point x="570" y="10" type="line"/>
      <point x="340" y="420" type="line"/>
      <point x="500" y="690" type="line"/>
      <point x="580" y="690" type="line"/>
      <point x="580" y="700" type="line"/>
      <point x="410" y="700" type="line"/>
      <point x="410" y="690" type="line"/>
      <point x="490" y="690" type="line"/>
      <point x="335" y="430" type="line"/>
      <point x="190" y="690" type="line"/>
      <point x="250" y="690" type="line"/>
      <point x="250" y="700" type="line"/>
      <point x="0" y="700" type="line"/>
      <point x="0" y="690" type="line"/>
    </contour>
  </outline>
</glyph>
<glyph name="Y" format="1">
  <advance width="610"/>
  <unicode hex="0059"/>
  <outline>
    <contour>
      <point x="360" y="310" type="line" name="hr00"/>
      <point x="550" y="690" type="line"/>
      <point x="630" y="690" type="line"/>
      <point x="630" y="700" type="line"/>
      <point x="460" y="700" type="line"/>
      <point x="460" y="690" type="line"/>
      <point x="540" y="690" type="line"/>
      <point x="360" y="330" type="line"/>
      <point x="180" y="690" type="line"/>
      <point x="240" y="690" type="line"/>
      <point x="240" y="700" type="line"/>
      <point x="0" y="700" type="line"/>
      <point x="0" y="690" type="line"/>
      <point x="60" y="690" type="line"/>
      <point x="250" y="310" type="line"/>
      <point x="250" y="10" type="line"/>
      <point x="190" y="10" type="line"/>
      <point x="190" y="0" type="line"/>
      <point x="420" y="0" type="line"/>
      <point x="420" y="10" type="line"/>
      <point x="360" y="10" type="line"/>
    </contour>
  </outline>
</glyph>
<glyph name="Z" format="1">
  <advance width="599"/>
  <unicode hex="005A"/>
  <outline>
    <contour>
      <point x="460" y="10" type="line" name="hr00"/>
      <point x="180" y="10" type="line"/>
      <point x="549" y="700" type="line"/>
      <point x="90" y="700" type="line"/>
      <point x="90" y="500" type="line"/>
      <point x="100" y="500" type="line"/>
      <point x="170" y="690" type="line"/>
      <point x="419" y="690" type="line"/>
      <point x="50" y="0" type="line"/>
      <point x="540" y="0" type="line"/>
      <point x="540" y="200" type="line"/>
      <point x="530" y="200" type="line"/>
    </contour>
  </outline>
</glyph>
<glyph name="bracketleft" format="1">
  <advance width="310"/>
  <unicode hex="005B"/>
  <outline>
    <contour>
      <point x="300" y="740" type="line" name="hr00"/>
      <point x="300" y="750" type="line"/>
      <point x="80" y="750" type="line"/>
      <point x="80" y="-210" type="line"/>
      <point x="296" y="-210" type="line"/>
      <point x="296" y="-200" type="line"/>
      <point x="190" y="-200" type="line"/>
      <point x="190" y="740" type="line"/>
    </contour>
  </outline>
</glyph>
<glyph name="bracketright" format="1">
  <advance width="310"/>
  <unicode hex="005D"/>
  <outline>
    <contour>
      <point x="120" y="740" type="line" name="hr00"/>
      <point x="120" y="-200" type="line"/>
      <point x="14" y="-200" type="line"/>
      <point x="14" y="-210" type="line"/>
      <point x="230" y="-210" type="line"/>
      <point x="230" y="750" type="line"/>
      <point x="10" y="750" type="line"/>
      <point x="10" y="740" type="line"/>
    </contour>
  </outline>
</glyph>
<glyph name="asciicircum" format="1">
  <advance width="390"/>
  <unicode hex="005E"/>
  <outline>
    <contour>
      <point x="195" y="700" type="line" name="hr00"/>
      <point x="40" y="410" type="line"/>
      <point x="55" y="410" type="line"/>
      <point x="195" y="675" type="line"/>
      <point x="335" y="410" type="line"/>
      <point x="350" y="410" type="line"/>
    </contour>
  </outline>
</glyph>
<glyph name="underscore" format="1">
  <advance width="350"/>
  <unicode hex="005F"/>
  <outline>
    <contour>
      <point x="0" y="-160" type="line" name="hr00"/>
      <point x="0" y="-170" type="line"/>
      <point x="350" y="-170" type="line"/>
      <point x="350" y="-160" type="line"/>
    </contour>
  </outline>
</glyph>
<glyph name="grave" format="1">
  <advance width="210"/>
  <unicode hex="0060"/>
  <outline>
    <contour>
      <point x="30" y="700" type="line" name="hr00"/>
      <point x="160" y="540" type="line"/>
      <point x="180" y="540" type="line"/>
      <point x="120" y="700" type="line"/>
    </contour>
  </outline>
</glyph>
<glyph name="a" format="1">
  <advance width="515"/>
  <unicode hex="0061"/>
  <outline>
    <contour>
      <point x="425" y="10" type="line" name="hr00"/>
      <point x="425" y="290" type="line" smooth="yes"/>
      <point x="425" y="420"/>
      <point x="345" y="500"/>
      <point x="245" y="500" type="curve" smooth="yes"/>
      <point x="170" y="500"/>
      <point x="105" y="445"/>
      <point x="105" y="445" type="curve"/>
      <point x="105" y="430" type="line"/>
      <point x="105" y="430"/>
      <point x="170" y="490"/>
      <point x="245" y="490" type="curve" smooth="yes"/>
      <point x="295" y="490"/>
      <point x="325" y="465"/>
      <point x="325" y="465" type="curve"/>
      <point x="325" y="260" type="line"/>
      <point x="325" y="260"/>
      <point x="275" y="300"/>
      <point x="205" y="300" type="curve" smooth="yes"/>
      <point x="110" y="300"/>
      <point x="40" y="230"/>
      <point x="40" y="140" type="curve" smooth="yes"/>
      <point x="40" y="50"/>
      <point x="110" y="-20"/>
      <point x="205" y="-20" type="curve" smooth="yes"/>
      <point x="275" y="-20"/>
      <point x="325" y="40"/>
      <point x="325" y="40" type="curve"/>
      <point x="325" y="0" type="line"/>
      <point x="475" y="0" type="line"/>
      <point x="475" y="10" type="line"/>
    </contour>
    <contour>
      <point x="205" y="-10" type="curve" smooth="yes"/>
      <point x="175" y="-10"/>
      <point x="145" y="0"/>
      <point x="145" y="1" type="curve"/>
      <point x="145" y="280" type="line"/>
      <point x="145" y="280"/>
      <point x="175" y="290"/>
      <point x="205" y="290" type="curve" smooth="yes"/>
      <point x="275" y="290"/>
      <point x="325" y="245"/>
      <point x="325" y="245" type="curve"/>
      <point x="325" y="55" type="line"/>
      <point x="325" y="55"/>
      <point x="275" y="-10"/>
    </contour>
  </outline>
</glyph>
<glyph name="b" format="1">
  <advance width="575"/>
  <unicode hex="0062"/>
  <outline>
    <contour>
      <point x="310" y="-20" type="curve" smooth="yes" name="hr00"/>
      <point x="425" y="-20"/>
      <point x="525" y="80"/>
      <point x="525" y="240" type="curve" smooth="yes"/>
      <point x="525" y="400"/>
      <point x="425" y="500"/>
      <point x="310" y="500" type="curve" smooth="yes"/>
      <point x="240" y="500"/>
      <point x="200" y="450"/>
      <point x="200" y="450" type="curve"/>
      <point x="200" y="700" type="line"/>
      <point x="50" y="700" type="line"/>
      <point x="50" y="690" type="line"/>
      <point x="100" y="690" type="line"/>
      <point x="100" y="10" type="line"/>
      <point x="50" y="10" type="line"/>
      <point x="50" y="0" type="line"/>
      <point x="200" y="0" type="line"/>
      <point x="200" y="30" type="line"/>
      <point x="200" y="30"/>
      <point x="240" y="-20"/>
    </contour>
    <contour>
      <point x="200" y="435" type="line"/>
      <point x="200" y="435"/>
      <point x="240" y="490"/>
      <point x="310" y="490" type="curve" smooth="yes"/>
      <point x="370" y="490"/>
      <point x="410" y="460"/>
      <point x="410" y="460" type="curve"/>
      <point x="410" y="20" type="line"/>
      <point x="410" y="20"/>
      <point x="370" y="-10"/>
      <point x="310" y="-10" type="curve" smooth="yes"/>
      <point x="240" y="-10"/>
      <point x="200" y="45"/>
      <point x="200" y="45" type="curve"/>
    </contour>
  </outline>
</glyph>
<glyph name="f" format="1">
  <advance width="290"/>
  <unicode hex="0066"/>
  <outline>
    <contour>
      <point x="310" y="630" type="line" name="hr00"/>
      <point x="300" y="680"/>
      <point x="260" y="720"/>
      <point x="210" y="720" type="curve"/>
      <point x="150" y="720"/>
      <point x="90" y="660"/>
      <point x="90" y="560" type="curve"/>
      <point x="90" y="480" type="line"/>
      <point x="40" y="480" type="line"/>
      <point x="40" y="470" type="line"/>
      <point x="90" y="470" type="line"/>
      <point x="90" y="10" type="line"/>
      <point x="40" y="10" type="line"/>
      <point x="40" y="0" type="line"/>
      <point x="240" y="0" type="line"/>
      <point x="240" y="10" type="line"/>
      <point x="190" y="10" type="line"/>
      <point x="190" y="470" type="line"/>
      <point x="270" y="470" type="line"/>
      <point x="270" y="480" type="line"/>
      <point x="190" y="480" type="line"/>
      <point x="190" y="705" type="line"/>
      <point x="190" y="705"/>
      <point x="200" y="710"/>
      <point x="210" y="710" type="curve" smooth="yes"/>
      <point x="255" y="710"/>
      <point x="290" y="675"/>
      <point x="300" y="630" type="curve"/>
    </contour>
  </outline>
</glyph>
<glyph name="g" format="1">
  <advance width="575"/>
  <unicode hex="0067"/>
  <outline>
    <contour>
      <point x="265" y="10" type="curve" smooth="yes" name="hr00"/>
      <point x="205" y="10"/>
      <point x="165" y="40"/>
      <point x="165" y="40" type="curve"/>
      <point x="165" y="460" type="line"/>
      <point x="165" y="460"/>
      <point x="205" y="490"/>
      <point x="265" y="490" type="curve" smooth="yes"/>
      <point x="335" y="490"/>
      <point x="375" y="435"/>
      <point x="375" y="435" type="curve"/>
      <point x="375" y="65" type="line"/>
      <point x="375" y="65"/>
      <point x="335" y="10"/>
    </contour>
    <contour>
      <point x="275" y="-210" type="curve" smooth="yes"/>
      <point x="155" y="-210"/>
      <point x="95" y="-110"/>
      <point x="95" y="-110" type="curve"/>
      <point x="95" y="-130" type="line"/>
      <point x="95" y="-130"/>
      <point x="155" y="-220"/>
      <point x="275" y="-220" type="curve" smooth="yes"/>
      <point x="395" y="-220"/>
      <point x="475" y="-140"/>
      <point x="475" y="-10" type="curve" smooth="yes"/>
      <point x="475" y="470" type="line"/>
      <point x="525" y="470" type="line"/>
      <point x="525" y="480" type="line"/>
      <point x="375" y="480" type="line"/>
      <point x="375" y="450" type="line"/>
      <point x="375" y="450"/>
      <point x="335" y="500"/>
      <point x="265" y="500" type="curve" smooth="yes"/>
      <point x="150" y="500"/>
      <point x="50" y="400"/>
      <point x="50" y="250" type="curve" smooth="yes"/>
      <point x="50" y="100"/>
      <point x="150" y="0"/>
      <point x="265" y="0" type="curve" smooth="yes"/>
      <point x="335" y="0"/>
      <point x="375" y="50"/>
      <point x="375" y="50" type="curve"/>
      <point x="375" y="-185" type="line"/>
      <point x="375" y="-185"/>
      <point x="335" y="-210"/>
    </contour>
  </outline>
</glyph>
<glyph name="h" format="1">
  <advance width="600"/>
  <unicode hex="0068"/>
  <outline>
    <contour>
      <point x="510" y="10" type="line" name="hr00"/>
      <point x="510" y="290" type="line" smooth="yes"/>
      <point x="510" y="420"/>
      <point x="430" y="500"/>
      <point x="330" y="500" type="curve" smooth="yes"/>
      <point x="250" y="500"/>
      <point x="200" y="430"/>
      <point x="200" y="430" type="curve"/>
      <point x="200" y="700" type="line"/>
      <point x="50" y="700" type="line"/>
      <point x="50" y="690" type="line"/>
      <point x="100" y="690" type="line"/>
      <point x="100" y="10" type="line"/>
      <point x="50" y="10" type="line"/>
      <point x="50" y="0" type="line"/>
      <point x="250" y="0" type="line"/>
      <point x="250" y="10" type="line"/>
      <point x="200" y="10" type="line"/>
      <point x="200" y="415" type="line"/>
      <point x="200" y="415"/>
      <point x="250" y="490"/>
      <point x="330" y="490" type="curve" smooth="yes"/>
      <point x="380" y="490"/>
      <point x="410" y="465"/>
      <point x="410" y="465" type="curve"/>
      <point x="410" y="10" type="line"/>
      <point x="360" y="10" type="line"/>
      <point x="360" y="0" type="line"/>
      <point x="560" y="0" type="line"/>
      <point x="560" y="10" type="line"/>
    </contour>
  </outline>
</glyph>
<glyph name="k" format="1">
  <advance width="525"/>
  <unicode hex="006B"/>
  <outline>
    <contour>
      <point x="495" y="10" type="line" name="hr00"/>
      <point x="285" y="315" type="line"/>
      <point x="390" y="470" type="line"/>
      <point x="460" y="470" type="line"/>
      <point x="460" y="480" type="line"/>
      <point x="300" y="480" type="line"/>
      <point x="300" y="470" type="line"/>
      <point x="380" y="470" type="line"/>
      <point x="200" y="205" type="line"/>
      <point x="200" y="700" type="line"/>
      <point x="50" y="700" type="line"/>
      <point x="50" y="690" type="line"/>
      <point x="100" y="690" type="line"/>
      <point x="100" y="10" type="line"/>
      <point x="50" y="10" type="line"/>
      <point x="50" y="0" type="line"/>
      <point x="250" y="0" type="line"/>
      <point x="250" y="10" type="line"/>
      <point x="200" y="10" type="line"/>
      <point x="200" y="190" type="line"/>
      <point x="230" y="235" type="line"/>
      <point x="385" y="10" type="line"/>
      <point x="345" y="10" type="line"/>
      <point x="345" y="0" type="line"/>
      <point x="545" y="0" type="line"/>
      <point x="545" y="10" type="line"/>
    </contour>
  </outline>
</glyph>
<glyph name="l" format="1">
  <advance width="290"/>
  <unicode hex="006C"/>
  <outline>
    <contour>
      <point x="200" y="700" type="line" name="hr00"/>
      <point x="50" y="700" type="line"/>
      <point x="50" y="690" type="line"/>
      <point x="100" y="690" type="line"/>
      <point x="100" y="10" type="line"/>
      <point x="50" y="10" type="line"/>
      <point x="50" y="0" type="line"/>
      <point x="250" y="0" type="line"/>
      <point x="250" y="10" type="line"/>
      <point x="200" y="10" type="line"/>
    </contour>
  </outline>
</glyph>
<glyph name="m" format="1">
  <advance width="830"/>
  <unicode hex="006D"/>
  <outline>
    <contour>
      <point x="740" y="10" type="line" name="hr00"/>
      <point x="740" y="290" type="line" smooth="yes"/>
      <point x="740" y="420"/>
      <point x="660" y="500"/>
      <point x="555" y="500" type="curve" smooth="yes"/>
      <point x="470" y="500"/>
      <point x="420" y="435"/>
      <point x="420" y="435" type="curve"/>
      <point x="420" y="435"/>
      <point x="370" y="500"/>
      <point x="305" y="500" type="curve" smooth="yes"/>
      <point x="240" y="500"/>
      <point x="200" y="440"/>
      <point x="200" y="440" type="curve"/>
      <point x="200" y="480" type="line"/>
      <point x="50" y="480" type="line"/>
      <point x="50" y="470" type="line"/>
      <point x="100" y="470" type="line"/>
      <point x="100" y="10" type="line"/>
      <point x="50" y="10" type="line"/>
      <point x="50" y="0" type="line"/>
      <point x="250" y="0" type="line"/>
      <point x="250" y="10" type="line"/>
      <point x="200" y="10" type="line"/>
      <point x="200" y="425" type="line"/>
      <point x="200" y="425"/>
      <point x="240" y="490"/>
      <point x="305" y="490" type="curve" smooth="yes"/>
      <point x="340" y="490"/>
      <point x="370" y="465"/>
      <point x="370" y="465" type="curve"/>
      <point x="370" y="10" type="line"/>
      <point x="320" y="10" type="line"/>
      <point x="320" y="0" type="line"/>
      <point x="520" y="0" type="line"/>
      <point x="520" y="10" type="line"/>
      <point x="470" y="10" type="line"/>
      <point x="470" y="465" type="line"/>
      <point x="470" y="465"/>
      <point x="500" y="490"/>
      <point x="555" y="490" type="curve" smooth="yes"/>
      <point x="610" y="490"/>
      <point x="640" y="465"/>
      <point x="640" y="465" type="curve"/>
      <point x="640" y="10" type="line"/>
      <point x="590" y="10" type="line"/>
      <point x="590" y="0" type="line"/>
      <point x="790" y="0" type="line"/>
      <point x="790" y="10" type="line"/>
    </contour>
  </outline>
</glyph>
<glyph name="n" format="1">
  <advance width="600"/>
  <unicode hex="006E"/>
  <outline>
    <contour>
      <point x="510" y="10" type="line" name="hr00"/>
      <point x="510" y="290" type="line" smooth="yes"/>
      <point x="510" y="420"/>
      <point x="430" y="500"/>
      <point x="330" y="500" type="curve" smooth="yes"/>
      <point x="250" y="500"/>
      <point x="200" y="440"/>
      <point x="200" y="440" type="curve"/>
      <point x="200" y="480" type="line"/>
      <point x="50" y="480" type="line"/>
      <point x="50" y="470" type="line"/>
      <point x="100" y="470" type="line"/>
      <point x="100" y="10" type="line"/>
      <point x="50" y="10" type="line"/>
      <point x="50" y="0" type="line"/>
      <point x="250" y="0" type="line"/>
      <point x="250" y="10" type="line"/>
      <point x="200" y="10" type="line"/>
      <point x="200" y="425" type="line"/>
      <point x="200" y="425"/>
      <point x="250" y="490"/>
      <point x="330" y="490" type="curve" smooth="yes"/>
      <point x="380" y="490"/>
      <point x="410" y="465"/>
      <point x="410" y="465" type="curve"/>
      <point x="410" y="10" type="line"/>
      <point x="360" y="10" type="line"/>
      <point x="360" y="0" type="line"/>
      <point x="560" y="0" type="line"/>
      <point x="560" y="10" type="line"/>
    </contour>
  </outline>
</glyph>
<glyph name="q" format="1">
  <advance width="575"/>
  <unicode hex="0071"/>
  <outline>
    <contour>
      <point x="265" y="500" type="curve" smooth="yes" name="hr00"/>
      <point x="150" y="500"/>
      <point x="50" y="400"/>
      <point x="50" y="240" type="curve" smooth="yes"/>
      <point x="50" y="80"/>
      <point x="150" y="-20"/>
      <point x="265" y="-20" type="curve" smooth="yes"/>
      <point x="335" y="-20"/>
      <point x="375" y="30"/>
      <point x="375" y="30" type="curve"/>
      <point x="375" y="-210" type="line"/>
      <point x="325" y="-210" type="line"/>
      <point x="325" y="-220" type="line"/>
      <point x="525" y="-220" type="line"/>
      <point x="525" y="-210" type="line"/>
      <point x="475" y="-210" type="line"/>
      <point x="475" y="470" type="line"/>
      <point x="525" y="470" type="line"/>
      <point x="525" y="480" type="line"/>
      <point x="375" y="480" type="line"/>
      <point x="375" y="450" type="line"/>
      <point x="375" y="450"/>
      <point x="335" y="500"/>
    </contour>
    <contour>
      <point x="375" y="45" type="line"/>
      <point x="375" y="45"/>
      <point x="335" y="-10"/>
      <point x="265" y="-10" type="curve" smooth="yes"/>
      <point x="205" y="-10"/>
      <point x="165" y="20"/>
      <point x="165" y="20" type="curve"/>
      <point x="165" y="460" type="line"/>
      <point x="165" y="460"/>
      <point x="205" y="490"/>
      <point x="265" y="490" type="curve" smooth="yes"/>
      <point x="335" y="490"/>
      <point x="375" y="435"/>
      <point x="375" y="435" type="curve"/>
    </contour>
  </outline>
</glyph>
<glyph name="r" format="1">
  <advance width="425"/>
  <unicode hex="0072"/>
  <outline>
    <contour>
      <point x="320" y="500" type="curve" smooth="yes" name="hr00"/>
      <point x="250" y="500"/>
      <point x="200" y="430"/>
      <point x="200" y="430" type="curve"/>
      <point x="200" y="480" type="line"/>
      <point x="50" y="480" type="line"/>
      <point x="50" y="470" type="line"/>
      <point x="100" y="470" type="line"/>
      <point x="100" y="10" type="line"/>
      <point x="50" y="10" type="line"/>
      <point x="50" y="0" type="line"/>
      <point x="250" y="0" type="line"/>
      <point x="250" y="10" type="line"/>
      <point x="200" y="10" type="line"/>
      <point x="200" y="415" type="line"/>
      <point x="200" y="415"/>
      <point x="250" y="490"/>
      <point x="320" y="490" type="curve" smooth="yes"/>
      <point x="335" y="490"/>
      <point x="355" y="485"/>
      <point x="355" y="485" type="curve"/>
      <point x="320" y="480"/>
      <point x="295" y="455"/>
      <point x="295" y="425" type="curve" smooth="yes"/>
      <point x="295" y="390"/>
      <point x="325" y="360"/>
      <point x="360" y="360" type="curve" smooth="yes"/>
      <point x="395" y="360"/>
      <point x="425" y="390"/>
      <point x="425" y="425" type="curve" smooth="yes"/>
      <point x="425" y="465"/>
      <point x="390" y="500"/>
    </contour>
  </outline>
</glyph>
<glyph name="t" format="1">
  <advance width="330"/>
  <unicode hex="0074"/>
  <outline>
    <contour>
      <point x="300" y="70" type="line" name="hr00"/>
      <point x="290" y="25"/>
      <point x="255" y="-10"/>
      <point x="210" y="-10" type="curve" smooth="yes"/>
      <point x="200" y="-10"/>
      <point x="190" y="-5"/>
      <point x="190" y="-5" type="curve"/>
      <point x="190" y="470" type="line"/>
      <point x="270" y="470" type="line"/>
      <point x="270" y="480" type="line"/>
      <point x="190" y="480" type="line"/>
      <point x="190" y="690" type="line"/>
      <point x="90" y="600" type="line"/>
      <point x="90" y="480" type="line"/>
      <point x="40" y="480" type="line"/>
      <point x="40" y="470" type="line"/>
      <point x="90" y="470" type="line"/>
      <point x="90" y="140" type="line" smooth="yes"/>
      <point x="90" y="40"/>
      <point x="150" y="-20"/>
      <point x="210" y="-20" type="curve" smooth="yes"/>
      <point x="260" y="-20"/>
      <point x="300" y="20"/>
      <point x="310" y="70" type="curve"/>
    </contour>
  </outline>
</glyph>
<glyph name="u" format="1">
  <advance width="610"/>
  <unicode hex="0075"/>
  <outline>
    <contour>
      <point x="100" y="470" type="line" name="hr00"/>
      <point x="100" y="190" type="line" smooth="yes"/>
      <point x="100" y="60"/>
      <point x="180" y="-20"/>
      <point x="280" y="-20" type="curve" smooth="yes"/>
      <point x="360" y="-20"/>
      <point x="410" y="40"/>
      <point x="410" y="40" type="curve"/>
      <point x="410" y="0" type="line"/>
      <point x="560" y="0" type="line"/>
      <point x="560" y="10" type="line"/>
      <point x="510" y="10" type="line"/>
      <point x="510" y="470" type="line"/>
      <point x="560" y="470" type="line"/>
      <point x="560" y="480" type="line"/>
      <point x="360" y="480" type="line"/>
      <point x="360" y="470" type="line"/>
      <point x="410" y="470" type="line"/>
      <point x="410" y="55" type="line"/>
      <point x="410" y="55"/>
      <point x="360" y="-10"/>
      <point x="280" y="-10" type="curve" smooth="yes"/>
      <point x="230" y="-10"/>
      <point x="200" y="15"/>
      <point x="200" y="15" type="curve"/>
      <point x="200" y="470" type="line"/>
      <point x="250" y="470" type="line"/>
      <point x="250" y="480" type="line"/>
      <point x="50" y="480" type="line"/>
      <point x="50" y="470" type="line"/>
    </contour>
  </outline>
</glyph>
<glyph name="v" format="1">
  <advance width="480"/>
  <unicode hex="0076"/>
  <outline>
    <contour>
      <point x="500" y="480" type="line" name="hr00"/>
      <point x="340" y="480" type="line"/>
      <point x="340" y="470" type="line"/>
      <point x="420" y="470" type="line"/>
      <point x="290" y="130" type="line"/>
      <point x="160" y="470" type="line"/>
      <point x="210" y="470" type="line"/>
      <point x="210" y="480" type="line"/>
      <point x="0" y="480" type="line"/>
      <point x="0" y="470" type="line"/>
      <point x="50" y="470" type="line"/>
      <point x="230" y="0" type="line"/>
      <point x="250" y="0" type="line"/>
      <point x="430" y="470" type="line"/>
      <point x="500" y="470" type="line"/>
    </contour>
  </outline>
</glyph>
<glyph name="w" format="1">
  <advance width="735"/>
  <unicode hex="0077"/>
  <outline>
    <contour>
      <point x="650" y="490" type="curve" smooth="yes" name="hr00"/>
      <point x="615" y="490"/>
      <point x="585" y="460"/>
      <point x="585" y="425" type="curve" smooth="yes"/>
      <point x="585" y="390"/>
      <point x="615" y="360"/>
      <point x="650" y="360" type="curve" smooth="yes"/>
      <point x="680" y="360"/>
      <point x="695" y="375"/>
      <point x="695" y="375" type="curve"/>
      <point x="580" y="110" type="line"/>
      <point x="420" y="470" type="line"/>
      <point x="479" y="470" type="line"/>
      <point x="479" y="480" type="line"/>
      <point x="0" y="480" type="line"/>
      <point x="0" y="470" type="line"/>
      <point x="50" y="470" type="line"/>
      <point x="260" y="0" type="line"/>
      <point x="280" y="0" type="line"/>
      <point x="400" y="270" type="line"/>
      <point x="520" y="0" type="line"/>
      <point x="540" y="0" type="line"/>
      <point x="705" y="375" type="line"/>
      <point x="715" y="395"/>
      <point x="715" y="423"/>
      <point x="715" y="425" type="curve"/>
      <point x="715" y="460"/>
      <point x="685" y="490"/>
    </contour>
    <contour>
      <point x="310" y="470" type="line"/>
      <point x="395" y="280" type="line"/>
      <point x="320" y="110" type="line"/>
      <point x="160" y="470" type="line"/>
    </contour>
  </outline>
</glyph>
<glyph name="x" format="1">
  <advance width="480"/>
  <unicode hex="0078"/>
  <outline>
    <contour>
      <point x="390" y="470" type="line" name="hr00"/>
      <point x="460" y="470" type="line"/>
      <point x="460" y="480" type="line"/>
      <point x="300" y="480" type="line"/>
      <point x="300" y="470" type="line"/>
      <point x="380" y="470" type="line"/>
      <point x="265" y="300" type="line"/>
      <point x="160" y="470" type="line"/>
      <point x="210" y="470" type="line"/>
      <point x="210" y="480" type="line"/>
      <point x="-10" y="480" type="line"/>
      <point x="-10" y="470" type="line"/>
      <point x="40" y="470" type="line"/>
      <point x="205" y="210" type="line"/>
      <point x="70" y="10" type="line"/>
      <point x="0" y="10" type="line"/>
      <point x="0" y="0" type="line"/>
      <point x="161" y="0" type="line"/>
      <point x="161" y="10" type="line"/>
      <point x="80" y="10" type="line"/>
      <point x="210" y="200" type="line"/>
      <point x="330" y="10" type="line"/>
      <point x="280" y="10" type="line"/>
      <point x="280" y="0" type="line"/>
      <point x="500" y="0" type="line"/>
      <point x="500" y="10" type="line"/>
      <point x="450" y="10" type="line"/>
      <point x="270" y="290" type="line"/>
    </contour>
  </outline>
</glyph>
<glyph name="y" format="1">
  <advance width="475"/>
  <unicode hex="0079"/>
  <outline>
    <contour>
      <point x="495" y="470" type="line" name="hr00"/>
      <point x="495" y="480" type="line"/>
      <point x="335" y="480" type="line"/>
      <point x="335" y="470" type="line"/>
      <point x="415" y="470" type="line"/>
      <point x="290" y="145" type="line"/>
      <point x="155" y="470" type="line"/>
      <point x="205" y="470" type="line"/>
      <point x="205" y="480" type="line"/>
      <point x="-5" y="480" type="line"/>
      <point x="-5" y="470" type="line"/>
      <point x="45" y="470" type="line"/>
      <point x="240" y="10" type="line"/>
      <point x="205" y="-80" type="line" smooth="yes"/>
      <point x="155" y="-208"/>
      <point x="78" y="-219"/>
      <point x="75" y="-220" type="curve" smooth="yes"/>
      <point x="78" y="-218"/>
      <point x="110" y="-198"/>
      <point x="110" y="-165" type="curve" smooth="yes"/>
      <point x="110" y="-130"/>
      <point x="80" y="-100"/>
      <point x="45" y="-100" type="curve" smooth="yes"/>
      <point x="10" y="-100"/>
      <point x="-20" y="-130"/>
      <point x="-20" y="-165" type="curve" smooth="yes"/>
      <point x="-20" y="-200"/>
      <point x="10" y="-230"/>
      <point x="55" y="-230" type="curve" smooth="yes"/>
      <point x="120" y="-230"/>
      <point x="179" y="-170"/>
      <point x="215" y="-80" type="curve"/>
      <point x="425" y="470" type="line"/>
    </contour>
  </outline>
</glyph>
<glyph name="z" format="1">
  <advance width="490"/>
  <unicode hex="007A"/>
  <outline>
    <contour>
      <point x="425" y="180" type="line" name="hr00"/>
      <point x="365" y="10" type="line"/>
      <point x="165" y="10" type="line"/>
      <point x="445" y="480" type="line"/>
      <point x="75" y="480" type="line"/>
      <point x="75" y="300" type="line"/>
      <point x="85" y="300" type="line"/>
      <point x="145" y="470" type="line"/>
      <point x="325" y="470" type="line"/>
      <point x="45" y="0" type="line"/>
      <point x="435" y="0" type="line"/>
      <point x="435" y="180" type="line"/>
    </contour>
  </outline>
</glyph>
<glyph name="braceleft" format="1">
  <advance width="320"/>
  <unicode hex="007B"/>
  <outline>
    <contour>
      <point x="70" y="270" type="line" name="hr00"/>
      <point x="70" y="270"/>
      <point x="140" y="260"/>
      <point x="140" y="200" type="curve" smooth="yes"/>
      <point x="140" y="130"/>
      <point x="100" y="50"/>
      <point x="100" y="-21" type="curve" smooth="yes"/>
      <point x="100" y="-120"/>
      <point x="180" y="-200"/>
      <point x="300" y="-200" type="curve" smooth="yes"/>
      <point x="310" y="-200" type="line"/>
      <point x="310" y="-190" type="line"/>
      <point x="300" y="-190" type="line" smooth="yes"/>
      <point x="260" y="-190"/>
      <point x="220" y="-150"/>
      <point x="220" y="0" type="curve" smooth="yes"/>
      <point x="220" y="200"/>
      <point x="160" y="260"/>
      <point x="80" y="275" type="curve"/>
      <point x="160" y="290"/>
      <point x="220" y="350"/>
      <point x="220" y="550" type="curve" smooth="yes"/>
      <point x="220" y="700"/>
      <point x="260" y="740"/>
      <point x="300" y="740" type="curve" smooth="yes"/>
      <point x="310" y="740" type="line"/>
      <point x="310" y="750" type="line"/>
      <point x="300" y="750" type="line" smooth="yes"/>
      <point x="180" y="750"/>
      <point x="100" y="670"/>
      <point x="100" y="571" type="curve" smooth="yes"/>
      <point x="100" y="500"/>
      <point x="140" y="420"/>
      <point x="140" y="350" type="curve" smooth="yes"/>
      <point x="140" y="290"/>
      <point x="70" y="280"/>
      <point x="70" y="280" type="curve"/>
    </contour>
  </outline>
</glyph>
<glyph name="bar" format="1">
  <advance width="220"/>
  <unicode hex="007C"/>
  <outline>
    <contour>
      <point x="120" y="-220" type="line" name="hr00"/>
      <point x="120" y="750" type="line"/>
      <point x="100" y="750" type="line"/>
      <point x="100" y="-220" type="line"/>
    </contour>
  </outline>
</glyph>
<glyph name="braceright" format="1">
  <advance width="320"/>
  <unicode hex="007D"/>
  <outline>
    <contour>
      <point x="250" y="280" type="line" name="hr00"/>
      <point x="250" y="280"/>
      <point x="180" y="290"/>
      <point x="180" y="350" type="curve" smooth="yes"/>
      <point x="180" y="420"/>
      <point x="220" y="500"/>
      <point x="220" y="571" type="curve" smooth="yes"/>
      <point x="220" y="670"/>
      <point x="140" y="750"/>
      <point x="20" y="750" type="curve" smooth="yes"/>
      <point x="10" y="750" type="line"/>
      <point x="10" y="740" type="line"/>
      <point x="20" y="740" type="line" smooth="yes"/>
      <point x="60" y="740"/>
      <point x="100" y="700"/>
      <point x="100" y="550" type="curve" smooth="yes"/>
      <point x="100" y="350"/>
      <point x="160" y="290"/>
      <point x="240" y="275" type="curve"/>
      <point x="160" y="260"/>
      <point x="100" y="200"/>
      <point x="100" y="0" type="curve" smooth="yes"/>
      <point x="100" y="-150"/>
      <point x="60" y="-190"/>
      <point x="20" y="-190" type="curve" smooth="yes"/>
      <point x="10" y="-190" type="line"/>
      <point x="10" y="-200" type="line"/>
      <point x="20" y="-200" type="line" smooth="yes"/>
      <point x="140" y="-200"/>
      <point x="220" y="-120"/>
      <point x="220" y="-21" type="curve" smooth="yes"/>
      <point x="220" y="50"/>
      <point x="180" y="130"/>
      <point x="180" y="200" type="curve" smooth="yes"/>
      <point x="180" y="260"/>
      <point x="250" y="270"/>
      <point x="250" y="270" type="curve"/>
    </contour>
  </outline>
</glyph>
<glyph name="asciitilde" format="1">
  <advance width="360"/>
  <unicode hex="007E"/>
  <outline>
    <contour>
      <point x="280" y="320" type="curve" smooth="yes" name="hr00"/>
      <point x="230" y="320"/>
      <point x="170" y="380"/>
      <point x="110" y="380" type="curve" smooth="yes"/>
      <point x="60" y="380"/>
      <point x="20" y="340"/>
      <point x="20" y="240" type="curve"/>
      <point x="30" y="240" type="line"/>
      <point x="40" y="280"/>
      <point x="60" y="300"/>
      <point x="80" y="300" type="curve"/>
      <point x="130" y="300"/>
      <point x="190" y="240"/>
      <point x="250" y="240" type="curve" smooth="yes"/>
      <point x="300" y="240"/>
      <point x="340" y="280"/>
      <point x="340" y="380" type="curve"/>
      <point x="330" y="380" type="line"/>
      <point x="320" y="340"/>
      <point x="300" y="320"/>
    </contour>
  </outline>
</glyph>
<glyph name="exclamdown" format="1">
  <advance width="280"/>
  <unicode hex="00A1"/>
  <outline>
    <contour>
      <point x="140" y="380" type="curve" name="hr00"/>
      <point x="170" y="380"/>
      <point x="195" y="405"/>
      <point x="195" y="435" type="curve" smooth="yes"/>
      <point x="195" y="465"/>
      <point x="170" y="490"/>
      <point x="140" y="490" type="curve" smooth="yes"/>
      <point x="110" y="490"/>
      <point x="85" y="465"/>
      <point x="85" y="435" type="curve" smooth="yes"/>
      <point x="85" y="405"/>
      <point x="110" y="380"/>
    </contour>
    <contour>
      <point x="140" y="-230" type="curve"/>
      <point x="185" y="-230"/>
      <point x="220" y="-195"/>
      <point x="220" y="-150" type="curve" smooth="yes"/>
      <point x="220" y="-120"/>
      <point x="145" y="260"/>
      <point x="145" y="260" type="curve"/>
      <point x="135" y="260" type="line"/>
      <point x="135" y="260"/>
      <point x="60" y="-120"/>
      <point x="60" y="-150" type="curve" smooth="yes"/>
      <point x="60" y="-195"/>
      <point x="95" y="-230"/>
    </contour>
  </outline>
</glyph>
<glyph name="cent" format="1">
  <advance width="505"/>
  <unicode hex="00A2"/>
  <outline>
    <contour>
      <point x="290" y="-110" type="line" name="hr00"/>
      <point x="290" y="-20" type="line"/>
      <point x="416" y="-17"/>
      <point x="475" y="80"/>
      <point x="475" y="80" type="curve"/>
      <point x="475" y="100" type="line"/>
      <point x="475" y="100"/>
      <point x="416" y="-7"/>
      <point x="290" y="-10" type="curve"/>
      <point x="290" y="490" type="line"/>
      <point x="366" y="488"/>
      <point x="410" y="450"/>
      <point x="410" y="450" type="curve"/>
      <point x="395" y="450" type="line" smooth="yes"/>
      <point x="365" y="450"/>
      <point x="335" y="420"/>
      <point x="335" y="390" type="curve" smooth="yes"/>
      <point x="335" y="355"/>
      <point x="365" y="325"/>
      <point x="400" y="325" type="curve" smooth="yes"/>
      <point x="435" y="325"/>
      <point x="465" y="355"/>
      <point x="465" y="390" type="curve" smooth="yes"/>
      <point x="465" y="429"/>
      <point x="397" y="498"/>
      <point x="290" y="500" type="curve"/>
      <point x="290" y="590" type="line"/>
      <point x="280" y="590" type="line"/>
      <point x="280" y="500" type="line"/>
      <point x="157" y="497"/>
      <point x="50" y="388"/>
      <point x="50" y="240" type="curve" smooth="yes"/>
      <point x="50" y="92"/>
      <point x="157" y="-17"/>
      <point x="280" y="-20" type="curve"/>
      <point x="280" y="-110" type="line"/>
    </contour>
    <contour>
      <point x="165" y="30" type="curve"/>
      <point x="165" y="450" type="line"/>
      <point x="165" y="450"/>
      <point x="212" y="488"/>
      <point x="280" y="490" type="curve"/>
      <point x="280" y="-10" type="line"/>
      <point x="213" y="-8"/>
    </contour>
  </outline>
</glyph>
<glyph name="sterling" format="1">
  <advance width="540"/>
  <unicode hex="00A3"/>
  <outline>
    <contour>
      <point x="320" y="720" type="curve" smooth="yes" name="hr00"/>
      <point x="170" y="720"/>
      <point x="90" y="640"/>
      <point x="90" y="530" type="curve" smooth="yes"/>
      <point x="90" y="470"/>
      <point x="135" y="400"/>
      <point x="135" y="400" type="curve"/>
      <point x="60" y="400" type="line"/>
      <point x="60" y="390" type="line"/>
      <point x="140" y="390" type="line"/>
      <point x="140" y="390"/>
      <point x="180" y="320"/>
      <point x="180" y="260" type="curve" smooth="yes"/>
      <point x="180" y="160"/>
      <point x="80" y="120"/>
      <point x="60" y="0" type="curve"/>
      <point x="500" y="0" type="line"/>
      <point x="500" y="200" type="line"/>
      <point x="490" y="200" type="line"/>
      <point x="450" y="90" type="line"/>
      <point x="110" y="90" type="line"/>
      <point x="110" y="90"/>
      <point x="240" y="190"/>
      <point x="240" y="300" type="curve" smooth="yes"/>
      <point x="240" y="340"/>
      <point x="230" y="390"/>
      <point x="230" y="390" type="curve"/>
      <point x="370" y="390" type="line"/>
      <point x="370" y="400" type="line"/>
      <point x="225" y="400" type="line"/>
      <point x="225" y="400"/>
      <point x="190" y="500"/>
      <point x="190" y="560" type="curve" smooth="yes"/>
      <point x="190" y="660"/>
      <point x="240" y="710"/>
      <point x="320" y="710" type="curve" smooth="yes"/>
      <point x="398" y="710"/>
      <point x="442" y="653"/>
      <point x="444" y="650" type="curve" smooth="yes"/>
      <point x="442" y="652"/>
      <point x="428" y="660"/>
      <point x="410" y="660" type="curve" smooth="yes"/>
      <point x="370" y="660"/>
      <point x="340" y="630"/>
      <point x="340" y="590" type="curve" smooth="yes"/>
      <point x="340" y="550"/>
      <point x="370" y="520"/>
      <point x="410" y="520" type="curve" smooth="yes"/>
      <point x="450" y="520"/>
      <point x="480" y="550"/>
      <point x="480" y="590" type="curve" smooth="yes"/>
      <point x="480" y="650"/>
      <point x="410" y="720"/>
    </contour>
  </outline>
</glyph>
<glyph name="currency" format="1">
  <advance width="600"/>
  <unicode hex="00A4"/>
  <outline>
    <contour>
      <point x="40" y="290" type="line" name="hr00"/>
      <point x="40" y="280" type="line"/>
      <point x="120" y="280" type="line"/>
      <point x="120" y="200" type="line"/>
      <point x="40" y="200" type="line"/>
      <point x="40" y="190" type="line"/>
      <point x="120" y="190" type="line"/>
      <point x="120" y="10" type="line"/>
      <point x="60" y="10" type="line"/>
      <point x="60" y="0" type="line"/>
      <point x="290" y="0" type="line"/>
      <point x="290" y="10" type="line"/>
      <point x="230" y="10" type="line"/>
      <point x="230" y="190" type="line"/>
      <point x="390" y="190" type="line"/>
      <point x="390" y="200" type="line"/>
      <point x="230" y="200" type="line"/>
      <point x="230" y="280" type="line"/>
      <point x="290" y="280" type="line" smooth="yes"/>
      <point x="460" y="280"/>
      <point x="560" y="380"/>
      <point x="560" y="490" type="curve" smooth="yes"/>
      <point x="560" y="600"/>
      <point x="460" y="700"/>
      <point x="290" y="700" type="curve" smooth="yes"/>
      <point x="60" y="700" type="line"/>
      <point x="60" y="690" type="line"/>
      <point x="120" y="690" type="line"/>
      <point x="120" y="290" type="line"/>
    </contour>
    <contour>
      <point x="230" y="290" type="line"/>
      <point x="230" y="690" type="line"/>
      <point x="290" y="690" type="line" smooth="yes"/>
      <point x="380" y="690"/>
      <point x="440" y="655"/>
      <point x="440" y="655" type="curve"/>
      <point x="440" y="325" type="line"/>
      <point x="440" y="325"/>
      <point x="380" y="290"/>
      <point x="290" y="290" type="curve" smooth="yes"/>
    </contour>
  </outline>
</glyph>
<glyph name="yen" format="1">
  <advance width="610"/>
  <unicode hex="00A5"/>
  <outline>
    <contour>
      <point x="100" y="390" type="line" name="hr00"/>
      <point x="210" y="390" type="line"/>
      <point x="250" y="310" type="line"/>
      <point x="250" y="300" type="line"/>
      <point x="100" y="300" type="line"/>
      <point x="100" y="290" type="line"/>
      <point x="250" y="290" type="line"/>
      <point x="250" y="10" type="line"/>
      <point x="190" y="10" type="line"/>
      <point x="190" y="0" type="line"/>
      <point x="420" y="0" type="line"/>
      <point x="420" y="10" type="line"/>
      <point x="360" y="10" type="line"/>
      <point x="360" y="290" type="line"/>
      <point x="510" y="290" type="line"/>
      <point x="510" y="300" type="line"/>
      <point x="360" y="300" type="line"/>
      <point x="360" y="310" type="line"/>
      <point x="400" y="390" type="line"/>
      <point x="510" y="390" type="line"/>
      <point x="510" y="400" type="line"/>
      <point x="405" y="400" type="line"/>
      <point x="550" y="690" type="line"/>
      <point x="630" y="690" type="line"/>
      <point x="630" y="700" type="line"/>
      <point x="460" y="700" type="line"/>
      <point x="460" y="690" type="line"/>
      <point x="540" y="690" type="line"/>
      <point x="360" y="330" type="line"/>
      <point x="180" y="690" type="line"/>
      <point x="240" y="690" type="line"/>
      <point x="240" y="700" type="line"/>
      <point x="0" y="700" type="line"/>
      <point x="0" y="690" type="line"/>
      <point x="60" y="690" type="line"/>
      <point x="205" y="400" type="line"/>
      <point x="100" y="400" type="line"/>
    </contour>
  </outline>
</glyph>
<glyph name="brokenbar" format="1">
  <advance width="220"/>
  <unicode hex="00A6"/>
  <outline>
    <contour>
      <point x="120" y="750" type="line" name="hr00"/>
      <point x="100" y="750" type="line"/>
      <point x="100" y="340" type="line"/>
      <point x="120" y="340" type="line"/>
    </contour>
    <contour>
      <point x="120" y="-220" type="line"/>
      <point x="120" y="190" type="line"/>
      <point x="100" y="190" type="line"/>
      <point x="100" y="-220" type="line"/>
    </contour>
  </outline>
</glyph>
<glyph name="section" format="1">
  <advance width="500"/>
  <unicode hex="00A7"/>
  <outline>
    <contour>
      <point x="440" y="250" type="curve" name="hr00"/>
      <point x="440" y="430"/>
      <point x="160" y="490"/>
      <point x="160" y="590" type="curve" smooth="yes"/>
      <point x="160" y="650"/>
      <point x="200" y="690"/>
      <point x="270" y="690" type="curve" smooth="yes"/>
      <point x="340" y="690"/>
      <point x="380" y="645"/>
      <point x="380" y="645" type="curve"/>
      <point x="380" y="645"/>
      <point x="365" y="650"/>
      <point x="355" y="650" type="curve" smooth="yes"/>
      <point x="320" y="650"/>
      <point x="295" y="625"/>
      <point x="295" y="595" type="curve" smooth="yes"/>
      <point x="295" y="560"/>
      <point x="320" y="535"/>
      <point x="355" y="535" type="curve" smooth="yes"/>
      <point x="390" y="535"/>
      <point x="415" y="560"/>
      <point x="415" y="595" type="curve" smooth="yes"/>
      <point x="415" y="640"/>
      <point x="355" y="700"/>
      <point x="270" y="700" type="curve" smooth="yes"/>
      <point x="160" y="700"/>
      <point x="90" y="630"/>
      <point x="90" y="550" type="curve" smooth="yes"/>
      <point x="90" y="460"/>
      <point x="175" y="405"/>
      <point x="175" y="405" type="curve"/>
      <point x="175" y="405"/>
      <point x="60" y="340"/>
      <point x="60" y="230" type="curve"/>
      <point x="60" y="50"/>
      <point x="340" y="-10"/>
      <point x="340" y="-110" type="curve" smooth="yes"/>
      <point x="340" y="-170"/>
      <point x="300" y="-210"/>
      <point x="230" y="-210" type="curve" smooth="yes"/>
      <point x="160" y="-210"/>
      <point x="120" y="-165"/>
      <point x="120" y="-165" type="curve"/>
      <point x="120" y="-165"/>
      <point x="135" y="-170"/>
      <point x="145" y="-170" type="curve" smooth="yes"/>
      <point x="180" y="-170"/>
      <point x="205" y="-145"/>
      <point x="205" y="-115" type="curve" smooth="yes"/>
      <point x="205" y="-80"/>
      <point x="180" y="-55"/>
      <point x="145" y="-55" type="curve" smooth="yes"/>
      <point x="110" y="-55"/>
      <point x="85" y="-80"/>
      <point x="85" y="-115" type="curve" smooth="yes"/>
      <point x="85" y="-160"/>
      <point x="145" y="-220"/>
      <point x="230" y="-220" type="curve" smooth="yes"/>
      <point x="340" y="-220"/>
      <point x="410" y="-150"/>
      <point x="410" y="-70" type="curve" smooth="yes"/>
      <point x="410" y="20"/>
      <point x="325" y="75"/>
      <point x="325" y="75" type="curve"/>
      <point x="325" y="75"/>
      <point x="440" y="140"/>
    </contour>
    <contour>
      <point x="130" y="280" type="curve"/>
      <point x="130" y="350"/>
      <point x="185" y="395"/>
      <point x="185" y="395" type="curve"/>
      <point x="270" y="320"/>
      <point x="370" y="270"/>
      <point x="370" y="200" type="curve"/>
      <point x="370" y="130"/>
      <point x="315" y="85"/>
      <point x="315" y="85" type="curve"/>
      <point x="230" y="160"/>
      <point x="130" y="210"/>
    </contour>
  </outline>
</glyph>
<glyph name="dieresis" format="1">
  <advance width="310"/>
  <unicode hex="00A8"/>
  <outline>
    <contour>
      <point x="130" y="650" type="curve" name="hr00"/>
      <point x="130" y="675"/>
      <point x="105" y="700"/>
      <point x="80" y="700" type="curve"/>
      <point x="55" y="700"/>
      <point x="30" y="675"/>
      <point x="30" y="650" type="curve"/>
      <point x="30" y="625"/>
      <point x="55" y="600"/>
      <point x="80" y="600" type="curve" smooth="yes"/>
      <point x="105" y="600"/>
      <point x="130" y="625"/>
    </contour>
    <contour>
      <point x="280" y="650" type="curve" smooth="yes"/>
      <point x="280" y="675"/>
      <point x="255" y="700"/>
      <point x="230" y="700" type="curve" smooth="yes"/>
      <point x="205" y="700"/>
      <point x="180" y="675"/>
      <point x="180" y="650" type="curve" smooth="yes"/>
      <point x="180" y="625"/>
      <point x="205" y="600"/>
      <point x="230" y="600" type="curve" smooth="yes"/>
      <point x="255" y="600"/>
      <point x="280" y="625"/>
    </contour>
  </outline>
</glyph>
<glyph name="copyright" format="1">
  <advance width="840"/>
  <unicode hex="00A9"/>
  <outline>
    <contour>
      <point x="430" y="170" type="curve" smooth="yes" name="hr00"/>
      <point x="385" y="170"/>
      <point x="350" y="190"/>
      <point x="350" y="190" type="curve"/>
      <point x="350" y="510" type="line"/>
      <point x="350" y="510"/>
      <point x="380" y="530"/>
      <point x="420" y="530" type="curve" smooth="yes"/>
      <point x="482" y="530"/>
      <point x="515" y="505"/>
      <point x="515" y="505" type="curve"/>
      <point x="490" y="505"/>
      <point x="470" y="485"/>
      <point x="470" y="460" type="curve" smooth="yes"/>
      <point x="470" y="435"/>
      <point x="490" y="415"/>
      <point x="515" y="415" type="curve" smooth="yes"/>
      <point x="540" y="415"/>
      <point x="560" y="435"/>
      <point x="560" y="460" type="curve" smooth="yes"/>
      <point x="560" y="490"/>
      <point x="510" y="540"/>
      <point x="420" y="540" type="curve" smooth="yes"/>
      <point x="330" y="540"/>
      <point x="250" y="460"/>
      <point x="250" y="350" type="curve" smooth="yes"/>
      <point x="250" y="240"/>
      <point x="330" y="160"/>
      <point x="430" y="160" type="curve" smooth="yes"/>
      <point x="520" y="160"/>
      <point x="570" y="240"/>
      <point x="570" y="240" type="curve"/>
      <point x="570" y="260" type="line"/>
      <point x="570" y="260"/>
      <point x="520" y="170"/>
    </contour>
    <contour>
      <point x="50" y="350" type="curve" smooth="yes"/>
      <point x="50" y="150"/>
      <point x="220" y="-20"/>
      <point x="420" y="-20" type="curve" smooth="yes"/>
      <point x="620" y="-20"/>
      <point x="790" y="150"/>
      <point x="790" y="350" type="curve" smooth="yes"/>
      <point x="790" y="550"/>
      <point x="620" y="720"/>
      <point x="420" y="720" type="curve" smooth="yes"/>
      <point x="220" y="720"/>
      <point x="50" y="550"/>
    </contour>
    <contour>
      <point x="780" y="350" type="curve" smooth="yes"/>
      <point x="780" y="155"/>
      <point x="615" y="-10"/>
      <point x="420" y="-10" type="curve" smooth="yes"/>
      <point x="225" y="-10"/>
      <point x="60" y="155"/>
      <point x="60" y="350" type="curve" smooth="yes"/>
      <point x="60" y="545"/>
      <point x="225" y="710"/>
      <point x="420" y="710" type="curve" smooth="yes"/>
      <point x="615" y="710"/>
      <point x="780" y="545"/>
    </contour>
  </outline>
</glyph>
<glyph name="ordfeminine" format="1">
  <advance width="335"/>
  <unicode hex="00AA"/>
  <outline>
    <contour>
      <point x="275" y="450" type="line" name="hr00"/>
      <point x="275" y="590" type="line" smooth="yes"/>
      <point x="275" y="660"/>
      <point x="225" y="710"/>
      <point x="155" y="710" type="curve" smooth="yes"/>
      <point x="110" y="710"/>
      <point x="75" y="680"/>
      <point x="75" y="680" type="curve"/>
      <point x="75" y="670" type="line"/>
      <point x="75" y="670"/>
      <point x="110" y="700"/>
      <point x="155" y="700" type="curve" smooth="yes"/>
      <point x="175" y="700"/>
      <point x="195" y="694"/>
      <point x="195" y="694" type="curve"/>
      <point x="195" y="580" type="line"/>
      <point x="195" y="580"/>
      <point x="170" y="600"/>
      <point x="145" y="600" type="curve" smooth="yes"/>
      <point x="80" y="600"/>
      <point x="40" y="560"/>
      <point x="40" y="515" type="curve" smooth="yes"/>
      <point x="40" y="470"/>
      <point x="80" y="430"/>
      <point x="135" y="430" type="curve" smooth="yes"/>
      <point x="170" y="430"/>
      <point x="195" y="460"/>
      <point x="195" y="460" type="curve"/>
      <point x="195" y="440" type="line"/>
      <point x="315" y="440" type="line"/>
      <point x="315" y="450" type="line"/>
    </contour>
    <contour>
      <point x="135" y="440" type="curve"/>
      <point x="120" y="440" type="line"/>
      <point x="120" y="590" type="line"/>
      <point x="145" y="590" type="line" smooth="yes"/>
      <point x="170" y="590"/>
      <point x="195" y="570"/>
      <point x="195" y="570" type="curve"/>
      <point x="195" y="470" type="line"/>
      <point x="195" y="470"/>
      <point x="170" y="440"/>
    </contour>
  </outline>
</glyph>
<glyph name="guillemotleft" format="1">
  <advance width="370"/>
  <unicode hex="00AB"/>
  <outline>
    <contour>
      <point x="45" y="240" type="line" name="hr00"/>
      <point x="220" y="425" type="line"/>
      <point x="220" y="440" type="line"/>
      <point x="30" y="240" type="line"/>
      <point x="220" y="40" type="line"/>
      <point x="220" y="55" type="line"/>
    </contour>
    <contour>
      <point x="165" y="240" type="line"/>
      <point x="340" y="425" type="line"/>
      <point x="340" y="440" type="line"/>
      <point x="150" y="240" type="line"/>
      <point x="340" y="40" type="line"/>
      <point x="340" y="55" type="line"/>
    </contour>
  </outline>
</glyph>
<glyph name="uni00AD" format="1">
  <advance width="390"/>
  <unicode hex="00AD"/>
  <outline>
    <contour>
      <point x="20" y="300" type="line" name="hr00"/>
      <point x="20" y="290" type="line"/>
      <point x="370" y="290" type="line"/>
      <point x="370" y="300" type="line"/>
    </contour>
  </outline>
</glyph>
<glyph name="registered" format="1">
  <advance width="840"/>
  <unicode hex="00AE"/>
  <outline>
    <contour>
      <point x="50" y="350" type="curve" smooth="yes" name="hr00"/>
      <point x="50" y="150"/>
      <point x="220" y="-20"/>
      <point x="420" y="-20" type="curve" smooth="yes"/>
      <point x="620" y="-20"/>
      <point x="790" y="150"/>
      <point x="790" y="350" type="curve" smooth="yes"/>
      <point x="790" y="550"/>
      <point x="620" y="720"/>
      <point x="420" y="720" type="curve" smooth="yes"/>
      <point x="220" y="720"/>
      <point x="50" y="550"/>
    </contour>
    <contour>
      <point x="780" y="350" type="curve" smooth="yes"/>
      <point x="780" y="155"/>
      <point x="615" y="-10"/>
      <point x="420" y="-10" type="curve" smooth="yes"/>
      <point x="225" y="-10"/>
      <point x="60" y="155"/>
      <point x="60" y="350" type="curve" smooth="yes"/>
      <point x="60" y="545"/>
      <point x="225" y="710"/>
      <point x="420" y="710" type="curve" smooth="yes"/>
      <point x="615" y="710"/>
      <point x="780" y="545"/>
    </contour>
    <contour>
      <point x="570" y="240" type="line" smooth="yes"/>
      <point x="570" y="339"/>
      <point x="458" y="354"/>
      <point x="447" y="355" type="curve"/>
      <point x="463" y="356"/>
      <point x="570" y="371"/>
      <point x="570" y="445" type="curve" smooth="yes"/>
      <point x="570" y="490"/>
      <point x="520" y="540"/>
      <point x="410" y="540" type="curve" smooth="yes"/>
      <point x="250" y="540" type="line"/>
      <point x="250" y="530" type="line"/>
      <point x="290" y="530" type="line"/>
      <point x="290" y="180" type="line"/>
      <point x="250" y="180" type="line"/>
      <point x="250" y="170" type="line"/>
      <point x="420" y="170" type="line"/>
      <point x="420" y="180" type="line"/>
      <point x="380" y="180" type="line"/>
      <point x="380" y="350" type="line"/>
      <point x="410" y="350" type="line" smooth="yes"/>
      <point x="450" y="350"/>
      <point x="480" y="340"/>
      <point x="480" y="339" type="curve"/>
      <point x="480" y="180" type="line"/>
      <point x="440" y="180" type="line"/>
      <point x="440" y="170" type="line"/>
      <point x="610" y="170" type="line"/>
      <point x="610" y="180" type="line"/>
      <point x="570" y="180" type="line"/>
    </contour>
    <contour>
      <point x="380" y="360" type="line"/>
      <point x="380" y="530" type="line"/>
      <point x="410" y="530" type="line" smooth="yes"/>
      <point x="450" y="530"/>
      <point x="480" y="520"/>
      <point x="480" y="520" type="curve"/>
      <point x="480" y="370" type="line"/>
      <point x="480" y="370"/>
      <point x="450" y="360"/>
      <point x="410" y="360" type="curve" smooth="yes"/>
    </contour>
  </outline>
</glyph>
<glyph name="macron" format="1">
  <advance width="280"/>
  <unicode hex="00AF"/>
  <outline>
    <contour>
      <point x="30" y="700" type="line" name="hr00"/>
      <point x="30" y="690" type="line"/>
      <point x="250" y="690" type="line"/>
      <point x="250" y="700" type="line"/>
    </contour>
  </outline>
</glyph>
<glyph name="plusminus" format="1">
  <advance width="410"/>
  <unicode hex="00B1"/>
  <outline>
    <contour>
      <point x="20" y="70" type="line" name="hr00"/>
      <point x="390" y="70" type="line"/>
      <point x="390" y="80" type="line"/>
      <point x="210" y="80" type="line"/>
      <point x="210" y="290" type="line"/>
      <point x="390" y="290" type="line"/>
      <point x="390" y="300" type="line"/>
      <point x="210" y="300" type="line"/>
      <point x="210" y="500" type="line"/>
      <point x="200" y="500" type="line"/>
      <point x="200" y="300" type="line"/>
      <point x="20" y="300" type="line"/>
      <point x="20" y="290" type="line"/>
      <point x="200" y="290" type="line"/>
      <point x="200" y="80" type="line"/>
      <point x="20" y="80" type="line"/>
    </contour>
  </outline>
</glyph>
<glyph name="twosuperior" format="1">
  <advance width="305"/>
  <unicode hex="00B2"/>
  <outline>
    <contour>
      <point x="260" y="530" type="line" name="hr00"/>
      <point x="250" y="530" type="line"/>
      <point x="230" y="480" type="line"/>
      <point x="70" y="480" type="line"/>
      <point x="140" y="550"/>
      <point x="265" y="550"/>
      <point x="265" y="630" type="curve" smooth="yes"/>
      <point x="265" y="675"/>
      <point x="230" y="710"/>
      <point x="155" y="710" type="curve" smooth="yes"/>
      <point x="95" y="710"/>
      <point x="55" y="670"/>
      <point x="55" y="640" type="curve" smooth="yes"/>
      <point x="55" y="620"/>
      <point x="70" y="605"/>
      <point x="90" y="605" type="curve" smooth="yes"/>
      <point x="110" y="605"/>
      <point x="125" y="620"/>
      <point x="125" y="640" type="curve" smooth="yes"/>
      <point x="125" y="660"/>
      <point x="110" y="676"/>
      <point x="85" y="676" type="curve"/>
      <point x="85" y="676"/>
      <point x="105" y="700"/>
      <point x="135" y="700" type="curve" smooth="yes"/>
      <point x="165" y="700"/>
      <point x="185" y="680"/>
      <point x="185" y="650" type="curve" smooth="yes"/>
      <point x="185" y="580"/>
      <point x="60" y="540"/>
      <point x="40" y="430" type="curve"/>
      <point x="260" y="430" type="line"/>
    </contour>
  </outline>
</glyph>
<glyph name="threesuperior" format="1">
  <advance width="300"/>
  <unicode hex="00B3"/>
  <outline>
    <contour>
      <point x="140" y="700" type="curve" smooth="yes" name="hr00"/>
      <point x="155" y="700"/>
      <point x="170" y="695"/>
      <point x="170" y="695" type="curve"/>
      <point x="170" y="585" type="line"/>
      <point x="170" y="585"/>
      <point x="155" y="580"/>
      <point x="140" y="580" type="curve" smooth="yes"/>
      <point x="110" y="580" type="line"/>
      <point x="110" y="570" type="line"/>
      <point x="140" y="570" type="line" smooth="yes"/>
      <point x="160" y="570"/>
      <point x="180" y="565"/>
      <point x="180" y="565" type="curve"/>
      <point x="180" y="445" type="line"/>
      <point x="180" y="445"/>
      <point x="170" y="440"/>
      <point x="150" y="440" type="curve" smooth="yes"/>
      <point x="74" y="440"/>
      <point x="43" y="492"/>
      <point x="40" y="499" type="curve"/>
      <point x="40" y="485" type="line"/>
      <point x="40" y="485"/>
      <point x="70" y="430"/>
      <point x="150" y="430" type="curve" smooth="yes"/>
      <point x="220" y="430"/>
      <point x="260" y="470"/>
      <point x="260" y="505" type="curve" smooth="yes"/>
      <point x="260" y="562"/>
      <point x="180" y="574"/>
      <point x="171" y="575" type="curve"/>
      <point x="182" y="576"/>
      <point x="250" y="584"/>
      <point x="250" y="640" type="curve" smooth="yes"/>
      <point x="250" y="675"/>
      <point x="215" y="710"/>
      <point x="140" y="710" type="curve" smooth="yes"/>
      <point x="85" y="710"/>
      <point x="45" y="670"/>
      <point x="45" y="640" type="curve" smooth="yes"/>
      <point x="45" y="620"/>
      <point x="60" y="605"/>
      <point x="80" y="605" type="curve" smooth="yes"/>
      <point x="100" y="605"/>
      <point x="115" y="620"/>
      <point x="115" y="640" type="curve" smooth="yes"/>
      <point x="115" y="660"/>
      <point x="100" y="676"/>
      <point x="75" y="676" type="curve"/>
      <point x="75" y="676"/>
      <point x="95" y="700"/>
    </contour>
  </outline>
</glyph>
<glyph name="acute" format="1">
  <advance width="210"/>
  <unicode hex="00B4"/>
  <outline>
    <contour>
      <point x="90" y="700" type="line" name="hr00"/>
      <point x="30" y="540" type="line"/>
      <point x="50" y="540" type="line"/>
      <point x="180" y="700" type="line"/>
    </contour>
  </outline>
</glyph>
<glyph name="mu" format="1">
  <advance width="590"/>
  <unicode hex="00B5"/>
  <outline>
    <contour>
      <point x="-40" y="-140" type="line" name="hr00"/>
      <point x="-30" y="-190"/>
      <point x="10" y="-230"/>
      <point x="60" y="-230" type="curve" smooth="yes"/>
      <point x="120" y="-230"/>
      <point x="180" y="-170"/>
      <point x="180" y="-70" type="curve" smooth="yes"/>
      <point x="180" y="40" type="line"/>
      <point x="180" y="40"/>
      <point x="220" y="-20"/>
      <point x="285" y="-20" type="curve" smooth="yes"/>
      <point x="350" y="-20"/>
      <point x="390" y="40"/>
      <point x="390" y="40" type="curve"/>
      <point x="390" y="0" type="line"/>
      <point x="540" y="0" type="line"/>
      <point x="540" y="10" type="line"/>
      <point x="490" y="10" type="line"/>
      <point x="490" y="470" type="line"/>
      <point x="540" y="470" type="line"/>
      <point x="540" y="480" type="line"/>
      <point x="340" y="480" type="line"/>
      <point x="340" y="470" type="line"/>
      <point x="390" y="470" type="line"/>
      <point x="390" y="55" type="line"/>
      <point x="390" y="55"/>
      <point x="350" y="-10"/>
      <point x="285" y="-10" type="curve" smooth="yes"/>
      <point x="220" y="-10"/>
      <point x="180" y="55"/>
      <point x="180" y="55" type="curve"/>
      <point x="180" y="480" type="line"/>
      <point x="30" y="480" type="line"/>
      <point x="30" y="470" type="line"/>
      <point x="80" y="470" type="line"/>
      <point x="80" y="-215" type="line"/>
      <point x="80" y="-215"/>
      <point x="70" y="-220"/>
      <point x="60" y="-220" type="curve" smooth="yes"/>
      <point x="15" y="-220"/>
      <point x="-20" y="-185"/>
      <point x="-30" y="-140" type="curve"/>
    </contour>
  </outline>
</glyph>
<glyph name="paragraph" format="1">
  <advance width="420"/>
  <unicode hex="00B6"/>
  <outline>
    <contour>
      <point x="400" y="700" type="line" name="hr00"/>
      <point x="200" y="700" type="line" smooth="yes"/>
      <point x="120" y="700"/>
      <point x="50" y="630"/>
      <point x="50" y="530" type="curve" smooth="yes"/>
      <point x="50" y="430"/>
      <point x="120" y="360"/>
      <point x="200" y="360" type="curve"/>
      <point x="200" y="-220" type="line"/>
      <point x="210" y="-220" type="line"/>
      <point x="210" y="690" type="line"/>
      <point x="300" y="690" type="line"/>
      <point x="300" y="-220" type="line"/>
      <point x="310" y="-220" type="line"/>
      <point x="310" y="690" type="line"/>
      <point x="400" y="690" type="line"/>
    </contour>
  </outline>
</glyph>
<glyph name="periodcentered" format="1">
  <advance width="180"/>
  <unicode hex="00B7"/>
  <outline>
    <contour>
      <point x="90" y="405" type="curve" smooth="yes" name="hr00"/>
      <point x="60" y="405"/>
      <point x="35" y="380"/>
      <point x="35" y="350" type="curve" smooth="yes"/>
      <point x="35" y="320"/>
      <point x="60" y="295"/>
      <point x="90" y="295" type="curve" smooth="yes"/>
      <point x="120" y="295"/>
      <point x="145" y="320"/>
      <point x="145" y="350" type="curve" smooth="yes"/>
      <point x="145" y="380"/>
      <point x="120" y="405"/>
    </contour>
  </outline>
</glyph>
<glyph name="cedilla" format="1">
  <advance width="220"/>
  <unicode hex="00B8"/>
  <outline>
    <contour>
      <point x="95" y="-60" type="curve" name="hr00"/>
      <point x="120" y="0" type="line"/>
      <point x="110" y="0" type="line"/>
      <point x="80" y="-70" type="line"/>
      <point x="110" y="-70"/>
      <point x="125" y="-75"/>
      <point x="125" y="-75" type="curve"/>
      <point x="125" y="-205" type="line"/>
      <point x="125" y="-205"/>
      <point x="115" y="-210"/>
      <point x="100" y="-210" type="curve" smooth="yes"/>
      <point x="61" y="-210"/>
      <point x="31" y="-177"/>
      <point x="30" y="-175" type="curve"/>
      <point x="30" y="-190" type="line"/>
      <point x="30" y="-190"/>
      <point x="60" y="-220"/>
      <point x="100" y="-220" type="curve" smooth="yes"/>
      <point x="155" y="-220"/>
      <point x="190" y="-185"/>
      <point x="190" y="-140" type="curve" smooth="yes"/>
      <point x="190" y="-95"/>
      <point x="155" y="-60"/>
    </contour>
  </outline>
</glyph>
<glyph name="onesuperior" format="1">
  <advance width="230"/>
  <unicode hex="00B9"/>
  <outline>
    <contour>
      <point x="160" y="430" type="line" name="hr00"/>
      <point x="160" y="700" type="line"/>
      <point x="40" y="700" type="line"/>
      <point x="40" y="690" type="line"/>
      <point x="80" y="690" type="line"/>
      <point x="80" y="430" type="line"/>
      <point x="40" y="430" type="line"/>
      <point x="40" y="420" type="line"/>
      <point x="200" y="420" type="line"/>
      <point x="200" y="430" type="line"/>
    </contour>
  </outline>
</glyph>
<glyph name="ordmasculine" format="1">
  <advance width="340"/>
  <unicode hex="00BA"/>
  <outline>
    <contour>
      <point x="170" y="710" type="curve" smooth="yes" name="hr00"/>
      <point x="100" y="710"/>
      <point x="40" y="650"/>
      <point x="40" y="570" type="curve" smooth="yes"/>
      <point x="40" y="490"/>
      <point x="100" y="430"/>
      <point x="170" y="430" type="curve" smooth="yes"/>
      <point x="240" y="430"/>
      <point x="300" y="490"/>
      <point x="300" y="570" type="curve" smooth="yes"/>
      <point x="300" y="650"/>
      <point x="240" y="710"/>
    </contour>
    <contour>
      <point x="170" y="440" type="curve" smooth="yes"/>
      <point x="140" y="440"/>
      <point x="120" y="455"/>
      <point x="120" y="455" type="curve"/>
      <point x="120" y="685" type="line"/>
      <point x="120" y="685"/>
      <point x="140" y="700"/>
      <point x="170" y="700" type="curve" smooth="yes"/>
      <point x="200" y="700"/>
      <point x="220" y="685"/>
      <point x="220" y="685" type="curve"/>
      <point x="220" y="455" type="line"/>
      <point x="220" y="455"/>
      <point x="200" y="440"/>
    </contour>
  </outline>
</glyph>
<glyph name="guillemotright" format="1">
  <advance width="370"/>
  <unicode hex="00BB"/>
  <outline>
    <contour>
      <point x="30" y="55" type="line" name="hr00"/>
      <point x="30" y="40" type="line"/>
      <point x="220" y="240" type="line"/>
      <point x="30" y="440" type="line"/>
      <point x="30" y="425" type="line"/>
      <point x="205" y="240" type="line"/>
    </contour>
    <contour>
      <point x="150" y="55" type="line"/>
      <point x="150" y="40" type="line"/>
      <point x="340" y="240" type="line"/>
      <point x="150" y="440" type="line"/>
      <point x="150" y="425" type="line"/>
      <point x="325" y="240" type="line"/>
    </contour>
  </outline>
</glyph>
<glyph name="onequarter" format="1">
  <advance width="600"/>
  <unicode hex="00BC"/>
  <outline>
    <contour>
      <point x="310" y="80" type="line" name="hr00"/>
      <point x="420" y="80" type="line"/>
      <point x="420" y="10" type="line"/>
      <point x="380" y="10" type="line"/>
      <point x="380" y="0" type="line"/>
      <point x="540" y="0" type="line"/>
      <point x="540" y="10" type="line"/>
      <point x="500" y="10" type="line"/>
      <point x="500" y="80" type="line"/>
      <point x="550" y="80" type="line"/>
      <point x="550" y="90" type="line"/>
      <point x="500" y="90" type="line"/>
      <point x="500" y="290" type="line"/>
      <point x="490" y="290" type="line"/>
    </contour>
    <contour>
      <point x="180" y="430" type="line"/>
      <point x="180" y="700" type="line"/>
      <point x="60" y="700" type="line"/>
      <point x="60" y="690" type="line"/>
      <point x="100" y="690" type="line"/>
      <point x="100" y="430" type="line"/>
      <point x="60" y="430" type="line"/>
      <point x="60" y="420" type="line"/>
      <point x="220" y="420" type="line"/>
      <point x="220" y="430" type="line"/>
    </contour>
    <contour>
      <point x="525" y="700" type="line"/>
      <point x="60" y="0" type="line"/>
      <point x="75" y="0" type="line"/>
      <point x="540" y="700" type="line"/>
    </contour>
    <contour>
      <point x="330" y="90" type="line"/>
      <point x="420" y="195" type="line"/>
      <point x="420" y="90" type="line"/>
    </contour>
  </outline>
</glyph>
<glyph name="onehalf" format="1">
  <advance width="605"/>
  <unicode hex="00BD"/>
  <outline>
    <contour>
      <point x="550" y="100" type="line" name="hr00"/>
      <point x="540" y="100" type="line"/>
      <point x="520" y="50" type="line"/>
      <point x="360" y="50" type="line"/>
      <point x="430" y="120"/>
      <point x="555" y="120"/>
      <point x="555" y="200" type="curve" smooth="yes"/>
      <point x="555" y="245"/>
      <point x="520" y="280"/>
      <point x="445" y="280" type="curve" smooth="yes"/>
      <point x="385" y="280"/>
      <point x="345" y="240"/>
      <point x="345" y="210" type="curve" smooth="yes"/>
      <point x="345" y="190"/>
      <point x="360" y="175"/>
      <point x="380" y="175" type="curve" smooth="yes"/>
      <point x="400" y="175"/>
      <point x="415" y="190"/>
      <point x="415" y="210" type="curve" smooth="yes"/>
      <point x="415" y="230"/>
      <point x="400" y="246"/>
      <point x="375" y="246" type="curve"/>
      <point x="375" y="246"/>
      <point x="395" y="270"/>
      <point x="425" y="270" type="curve" smooth="yes"/>
      <point x="455" y="270"/>
      <point x="475" y="250"/>
      <point x="475" y="220" type="curve" smooth="yes"/>
      <point x="475" y="150"/>
      <point x="350" y="110"/>
      <point x="330" y="0" type="curve"/>
      <point x="550" y="0" type="line"/>
    </contour>
    <contour>
      <point x="180" y="430" type="line"/>
      <point x="180" y="700" type="line"/>
      <point x="60" y="700" type="line"/>
      <point x="60" y="690" type="line"/>
      <point x="100" y="690" type="line"/>
      <point x="100" y="430" type="line"/>
      <point x="60" y="430" type="line"/>
      <point x="60" y="420" type="line"/>
      <point x="220" y="420" type="line"/>
      <point x="220" y="430" type="line"/>
    </contour>
    <contour>
      <point x="525" y="700" type="line"/>
      <point x="60" y="0" type="line"/>
      <point x="75" y="0" type="line"/>
      <point x="540" y="700" type="line"/>
    </contour>
  </outline>
</glyph>
<glyph name="threequarters" format="1">
  <advance width="620"/>
  <unicode hex="00BE"/>
  <outline>
    <contour>
      <point x="330" y="80" type="line" name="hr00"/>
      <point x="440" y="80" type="line"/>
      <point x="440" y="10" type="line"/>
      <point x="400" y="10" type="line"/>
      <point x="400" y="0" type="line"/>
      <point x="560" y="0" type="line"/>
      <point x="560" y="10" type="line"/>
      <point x="520" y="10" type="line"/>
      <point x="520" y="80" type="line"/>
      <point x="570" y="80" type="line"/>
      <point x="570" y="90" type="line"/>
      <point x="520" y="90" type="line"/>
      <point x="520" y="290" type="line"/>
      <point x="510" y="290" type="line"/>
    </contour>
    <contour>
      <point x="140" y="690" type="curve" smooth="yes"/>
      <point x="155" y="690"/>
      <point x="170" y="685"/>
      <point x="170" y="685" type="curve"/>
      <point x="170" y="575" type="line"/>
      <point x="170" y="575"/>
      <point x="155" y="570"/>
      <point x="140" y="570" type="curve" smooth="yes"/>
      <point x="110" y="570" type="line"/>
      <point x="110" y="560" type="line"/>
      <point x="140" y="560" type="line" smooth="yes"/>
      <point x="160" y="560"/>
      <point x="180" y="555"/>
      <point x="180" y="555" type="curve"/>
      <point x="180" y="435" type="line"/>
      <point x="180" y="435"/>
      <point x="170" y="430"/>
      <point x="150" y="430" type="curve" smooth="yes"/>
      <point x="74" y="430"/>
      <point x="43" y="482"/>
      <point x="40" y="489" type="curve"/>
      <point x="40" y="475" type="line"/>
      <point x="40" y="475"/>
      <point x="70" y="420"/>
      <point x="150" y="420" type="curve" smooth="yes"/>
      <point x="220" y="420"/>
      <point x="260" y="460"/>
      <point x="260" y="495" type="curve" smooth="yes"/>
      <point x="260" y="552"/>
      <point x="180" y="564"/>
      <point x="171" y="565" type="curve"/>
      <point x="182" y="566"/>
      <point x="250" y="574"/>
      <point x="250" y="630" type="curve" smooth="yes"/>
      <point x="250" y="665"/>
      <point x="215" y="700"/>
      <point x="140" y="700" type="curve" smooth="yes"/>
      <point x="85" y="700"/>
      <point x="45" y="660"/>
      <point x="45" y="630" type="curve" smooth="yes"/>
      <point x="45" y="610"/>
      <point x="60" y="595"/>
      <point x="80" y="595" type="curve" smooth="yes"/>
      <point x="100" y="595"/>
      <point x="115" y="610"/>
      <point x="115" y="630" type="curve" smooth="yes"/>
      <point x="115" y="650"/>
      <point x="100" y="666"/>
      <point x="75" y="666" type="curve"/>
      <point x="75" y="666"/>
      <point x="95" y="690"/>
    </contour>
    <contour>
      <point x="545" y="700" type="line"/>
      <point x="80" y="0" type="line"/>
      <point x="95" y="0" type="line"/>
      <point x="560" y="700" type="line"/>
    </contour>
    <contour>
      <point x="350" y="90" type="line"/>
      <point x="440" y="195" type="line"/>
      <point x="440" y="90" type="line"/>
    </contour>
  </outline>
</glyph>
<glyph name="questiondown" format="1">
  <advance width="460"/>
  <unicode hex="00BF"/>
  <outline>
    <contour>
      <point x="230" y="-230" type="curve" smooth="yes" name="hr00"/>
      <point x="360" y="-230"/>
      <point x="440" y="-150"/>
      <point x="440" y="-95" type="curve" smooth="yes"/>
      <point x="440" y="-60"/>
      <point x="410" y="-30"/>
      <point x="375" y="-30" type="curve" smooth="yes"/>
      <point x="340" y="-30"/>
      <point x="310" y="-60"/>
      <point x="310" y="-95" type="curve" smooth="yes"/>
      <point x="310" y="-130"/>
      <point x="340" y="-160"/>
      <point x="375" y="-160" type="curve" smooth="yes"/>
      <point x="388" y="-160"/>
      <point x="401" y="-153"/>
      <point x="404" y="-151" type="curve" smooth="yes"/>
      <point x="401" y="-154"/>
      <point x="358" y="-200"/>
      <point x="290" y="-200" type="curve" smooth="yes"/>
      <point x="190" y="-200"/>
      <point x="130" y="-140"/>
      <point x="130" y="-38" type="curve" smooth="yes"/>
      <point x="130" y="120"/>
      <point x="250" y="160"/>
      <point x="250" y="160" type="curve"/>
      <point x="250" y="260" type="line"/>
      <point x="240" y="260" type="line"/>
      <point x="240" y="170" type="line"/>
      <point x="240" y="170"/>
      <point x="20" y="120"/>
      <point x="20" y="-40" type="curve" smooth="yes"/>
      <point x="20" y="-140"/>
      <point x="110" y="-230"/>
    </contour>
    <contour>
      <point x="245" y="380" type="curve" smooth="yes"/>
      <point x="275" y="380"/>
      <point x="300" y="405"/>
      <point x="300" y="435" type="curve" smooth="yes"/>
      <point x="300" y="465"/>
      <point x="275" y="490"/>
      <point x="245" y="490" type="curve" smooth="yes"/>
      <point x="215" y="490"/>
      <point x="190" y="465"/>
      <point x="190" y="435" type="curve" smooth="yes"/>
      <point x="190" y="405"/>
      <point x="215" y="380"/>
    </contour>
  </outline>
</glyph>
<glyph name="Agrave" format="1">
  <advance width="620"/>
  <unicode hex="00C0"/>
  <outline>
    <contour>
      <point x="165" y="950" type="line" name="hr00"/>
      <point x="295" y="790" type="line"/>
      <point x="315" y="790" type="line"/>
      <point x="255" y="950" type="line"/>
    </contour>
    <component base="A"/>
  </outline>
</glyph>
<glyph name="AE" format="1">
  <advance width="865"/>
  <unicode hex="00C6"/>
  <outline>
    <contour>
      <point x="395" y="700" type="line" name="hr00"/>
      <point x="50" y="10" type="line"/>
      <point x="-30" y="10" type="line"/>
      <point x="-30" y="0" type="line"/>
      <point x="140" y="0" type="line"/>
      <point x="140" y="10" type="line"/>
      <point x="60" y="10" type="line"/>
      <point x="160" y="210" type="line"/>
      <point x="425" y="210" type="line"/>
      <point x="425" y="10" type="line"/>
      <point x="365" y="10" type="line"/>
      <point x="365" y="0" type="line"/>
      <point x="805" y="0" type="line"/>
      <point x="805" y="200" type="line"/>
      <point x="795" y="200" type="line"/>
      <point x="725" y="10" type="line"/>
      <point x="535" y="10" type="line"/>
      <point x="535" y="360" type="line"/>
      <point x="675" y="360" type="line"/>
      <point x="675" y="270" type="line"/>
      <point x="685" y="270" type="line"/>
      <point x="685" y="460" type="line"/>
      <point x="675" y="460" type="line"/>
      <point x="675" y="370" type="line"/>
      <point x="535" y="370" type="line"/>
      <point x="535" y="690" type="line"/>
      <point x="715" y="690" type="line"/>
      <point x="785" y="500" type="line"/>
      <point x="795" y="500" type="line"/>
      <point x="795" y="700" type="line"/>
    </contour>
    <contour>
      <point x="425" y="220" type="line"/>
      <point x="165" y="220" type="line"/>
      <point x="400" y="690" type="line"/>
      <point x="425" y="690" type="line"/>
    </contour>
  </outline>
</glyph>
<glyph name="Ccedilla" format="1">
  <advance width="720"/>
  <unicode hex="00C7"/>
  <outline>
    <contour>
      <point x="375" y="-80" type="curve" name="hr00"/>
      <point x="400" y="-20" type="line"/>
      <point x="590" y="-20"/>
      <point x="690" y="150"/>
      <point x="690" y="150" type="curve"/>
      <point x="690" y="170" type="line"/>
      <point x="685" y="162"/>
      <point x="585" y="-10"/>
      <point x="395" y="-10" type="curve" smooth="yes"/>
      <point x="260" y="-10"/>
      <point x="180" y="75"/>
      <point x="180" y="75" type="curve"/>
      <point x="180" y="625" type="line"/>
      <point x="180" y="625"/>
      <point x="260" y="710"/>
      <point x="395" y="710" type="curve" smooth="yes"/>
      <point x="525" y="710"/>
      <point x="598" y="640"/>
      <point x="603" y="635" type="curve" smooth="yes"/>
      <point x="600" y="637"/>
      <point x="592" y="640"/>
      <point x="580" y="640" type="curve" smooth="yes"/>
      <point x="535" y="640"/>
      <point x="500" y="605"/>
      <point x="500" y="560" type="curve" smooth="yes"/>
      <point x="500" y="515"/>
      <point x="535" y="480"/>
      <point x="580" y="480" type="curve" smooth="yes"/>
      <point x="625" y="480"/>
      <point x="660" y="515"/>
      <point x="660" y="560" type="curve" smooth="yes"/>
      <point x="660" y="620"/>
      <point x="560" y="720"/>
      <point x="395" y="720" type="curve" smooth="yes"/>
      <point x="210" y="720"/>
      <point x="50" y="560"/>
      <point x="50" y="350" type="curve" smooth="yes"/>
      <point x="50" y="142"/>
      <point x="207" y="-17"/>
      <point x="389" y="-20" type="curve"/>
      <point x="360" y="-90" type="line"/>
      <point x="390" y="-90"/>
      <point x="405" y="-95"/>
      <point x="405" y="-95" type="curve"/>
      <point x="405" y="-225" type="line"/>
      <point x="405" y="-225"/>
      <point x="395" y="-230"/>
      <point x="380" y="-230" type="curve" smooth="yes"/>
      <point x="341" y="-230"/>
      <point x="311" y="-197"/>
      <point x="310" y="-195" type="curve"/>
      <point x="310" y="-210" type="line"/>
      <point x="310" y="-210"/>
      <point x="340" y="-240"/>
      <point x="380" y="-240" type="curve" smooth="yes"/>
      <point x="435" y="-240"/>
      <point x="470" y="-205"/>
      <point x="470" y="-160" type="curve" smooth="yes"/>
      <point x="470" y="-115"/>
      <point x="435" y="-80"/>
    </contour>
  </outline>
</glyph>
<glyph name="Egrave" format="1">
  <advance width="560"/>
  <unicode hex="00C8"/>
  <outline>
    <contour>
      <point x="180" y="950" type="line" name="hr00"/>
      <point x="310" y="790" type="line"/>
      <point x="330" y="790" type="line"/>
      <point x="270" y="950" type="line"/>
    </contour>
    <component base="E"/>
  </outline>
</glyph>
<glyph name="Igrave" format="1">
  <advance width="350"/>
  <unicode hex="00CC"/>
  <outline>
    <contour>
      <point x="40" y="950" type="line" name="hr00"/>
      <point x="170" y="790" type="line"/>
      <point x="190" y="790" type="line"/>
      <point x="130" y="950" type="line"/>
    </contour>
    <component base="I"/>
  </outline>
</glyph>
<glyph name="Eth" format="1">
  <advance width="750"/>
  <unicode hex="00D0"/>
  <outline>
    <contour>
      <point x="700" y="350" type="curve" smooth="yes" name="hr00"/>
      <point x="700" y="540"/>
      <point x="540" y="700"/>
      <point x="355" y="700" type="curve" smooth="yes"/>
      <point x="60" y="700" type="line"/>
      <point x="60" y="690" type="line"/>
      <point x="120" y="690" type="line"/>
      <point x="120" y="350" type="line"/>
      <point x="50" y="350" type="line"/>
      <point x="50" y="340" type="line"/>
      <point x="120" y="340" type="line"/>
      <point x="120" y="10" type="line"/>
      <point x="60" y="10" type="line"/>
      <point x="60" y="0" type="line"/>
      <point x="355" y="0" type="line" smooth="yes"/>
      <point x="540" y="0"/>
      <point x="700" y="160"/>
    </contour>
    <contour>
      <point x="230" y="690" type="line"/>
      <point x="355" y="690" type="line" smooth="yes"/>
      <point x="490" y="690"/>
      <point x="570" y="605"/>
      <point x="570" y="605" type="curve"/>
      <point x="570" y="95" type="line"/>
      <point x="570" y="95"/>
      <point x="490" y="10"/>
      <point x="355" y="10" type="curve" smooth="yes"/>
      <point x="230" y="10" type="line"/>
      <point x="230" y="340" type="line"/>
      <point x="360" y="340" type="line"/>
      <point x="360" y="350" type="line"/>
      <point x="230" y="350" type="line"/>
    </contour>
  </outline>
</glyph>
<glyph name="Ograve" format="1">
  <advance width="790"/>
  <unicode hex="00D2"/>
  <outline>
    <contour>
      <point x="260" y="960" type="line" name="hr00"/>
      <point x="390" y="800" type="line"/>
      <point x="410" y="800" type="line"/>
      <point x="350" y="960" type="line"/>
    </contour>
    <component base="O"/>
  </outline>
</glyph>
<glyph name="multiply" format="1">
  <advance width="320"/>
  <unicode hex="00D7"/>
  <outline>
    <contour>
      <point x="165" y="295" type="line" name="hr00"/>
      <point x="300" y="430" type="line"/>
      <point x="295" y="435" type="line"/>
      <point x="160" y="300" type="line"/>
      <point x="25" y="435" type="line"/>
      <point x="20" y="430" type="line"/>
      <point x="155" y="295" type="line"/>
      <point x="20" y="160" type="line"/>
      <point x="25" y="155" type="line"/>
      <point x="160" y="290" type="line"/>
      <point x="295" y="155" type="line"/>
      <point x="300" y="160" type="line"/>
    </contour>
  </outline>
</glyph>
<glyph name="Oslash" format="1">
  <advance width="790"/>
  <unicode hex="00D8"/>
  <outline>
    <contour>
      <point x="635" y="720" type="line" name="hr00"/>
      <point x="590" y="655" type="line"/>
      <point x="534" y="696"/>
      <point x="466" y="720"/>
      <point x="395" y="720" type="curve" smooth="yes"/>
      <point x="210" y="720"/>
      <point x="50" y="560"/>
      <point x="50" y="350" type="curve" smooth="yes"/>
      <point x="50" y="226"/>
      <point x="106" y="119"/>
      <point x="190" y="53" type="curve"/>
      <point x="140" y="-20" type="line"/>
      <point x="155" y="-20" type="line"/>
      <point x="200" y="45" type="line"/>
      <point x="256" y="4"/>
      <point x="323" y="-20"/>
      <point x="395" y="-20" type="curve" smooth="yes"/>
      <point x="580" y="-20"/>
      <point x="740" y="140"/>
      <point x="740" y="350" type="curve" smooth="yes"/>
      <point x="740" y="474"/>
      <point x="684" y="580"/>
      <point x="600" y="647" type="curve"/>
      <point x="650" y="720" type="line"/>
    </contour>
    <contour>
      <point x="180" y="75" type="curve"/>
      <point x="180" y="625" type="line"/>
      <point x="180" y="625"/>
      <point x="260" y="710"/>
      <point x="395" y="710" type="curve" smooth="yes"/>
      <point x="488" y="710"/>
      <point x="552" y="671"/>
      <point x="584" y="646" type="curve"/>
      <point x="195" y="61" type="line"/>
      <point x="187" y="68"/>
    </contour>
    <contour>
      <point x="395" y="-10" type="curve" smooth="yes"/>
      <point x="302" y="-10"/>
      <point x="238" y="28"/>
      <point x="205" y="53" type="curve"/>
      <point x="594" y="639" type="line"/>
      <point x="603" y="631"/>
      <point x="610" y="625"/>
      <point x="610" y="625" type="curve"/>
      <point x="610" y="75" type="line"/>
      <point x="610" y="75"/>
      <point x="530" y="-10"/>
    </contour>
  </outline>
</glyph>
<glyph name="Ugrave" format="1">
  <advance width="650"/>
  <unicode hex="00D9"/>
  <outline>
    <contour>
      <point x="220" y="950" type="line" name="hr00"/>
      <point x="350" y="790" type="line"/>
      <point x="370" y="790" type="line"/>
      <point x="310" y="950" type="line"/>
    </contour>
    <component base="U"/>
  </outline>
</glyph>
<glyph name="Thorn" format="1">
  <advance width="660"/>
  <unicode hex="00DE"/>
  <outline>
    <contour>
      <point x="300" y="70" type="line" smooth="yes" name="hr00"/>
      <point x="470" y="70"/>
      <point x="610" y="200"/>
      <point x="610" y="350" type="curve" smooth="yes"/>
      <point x="610" y="500"/>
      <point x="470" y="630"/>
      <point x="300" y="630" type="curve" smooth="yes"/>
      <point x="230" y="630" type="line"/>
      <point x="230" y="690" type="line"/>
      <point x="290" y="690" type="line"/>
      <point x="290" y="700" type="line"/>
      <point x="60" y="700" type="line"/>
      <point x="60" y="690" type="line"/>
      <point x="120" y="690" type="line"/>
      <point x="120" y="10" type="line"/>
      <point x="60" y="10" type="line"/>
      <point x="60" y="0" type="line"/>
      <point x="290" y="0" type="line"/>
      <point x="290" y="10" type="line"/>
      <point x="230" y="10" type="line"/>
      <point x="230" y="70" type="line"/>
    </contour>
    <contour>
      <point x="230" y="80" type="line"/>
      <point x="230" y="620" type="line"/>
      <point x="300" y="620" type="line"/>
      <point x="420" y="620"/>
      <point x="490" y="555"/>
      <point x="490" y="555" type="curve"/>
      <point x="490" y="145" type="line"/>
      <point x="490" y="145"/>
      <point x="420" y="80"/>
      <point x="300" y="80" type="curve" smooth="yes"/>
    </contour>
  </outline>
</glyph>
<glyph name="germandbls" format="1">
  <advance width="580"/>
  <unicode hex="00DF"/>
  <outline>
    <contour>
      <point x="310" y="390" type="line" name="hr00"/>
      <point x="310" y="390"/>
      <point x="460" y="410"/>
      <point x="460" y="550" type="curve" smooth="yes"/>
      <point x="460" y="640"/>
      <point x="380" y="720"/>
      <point x="270" y="720" type="curve" smooth="yes"/>
      <point x="180" y="720"/>
      <point x="90" y="630"/>
      <point x="90" y="490" type="curve" smooth="yes"/>
      <point x="90" y="10" type="line"/>
      <point x="40" y="10" type="line"/>
      <point x="40" y="0" type="line"/>
      <point x="190" y="0" type="line"/>
      <point x="190" y="685" type="line"/>
      <point x="190" y="685"/>
      <point x="225" y="710"/>
      <point x="270" y="710" type="curve" smooth="yes"/>
      <point x="315" y="710"/>
      <point x="350" y="695"/>
      <point x="350" y="695" type="curve"/>
      <point x="350" y="410" type="line"/>
      <point x="350" y="410"/>
      <point x="310" y="390"/>
      <point x="260" y="390" type="curve"/>
      <point x="260" y="380" type="line"/>
      <point x="360" y="380"/>
      <point x="420" y="350"/>
      <point x="420" y="350" type="curve"/>
      <point x="420" y="11" type="line"/>
      <point x="420" y="10"/>
      <point x="380" y="-10"/>
      <point x="330" y="-10" type="curve" smooth="yes"/>
      <point x="280" y="-10"/>
      <point x="240" y="10"/>
      <point x="240" y="10" type="curve"/>
      <point x="235" y="0" type="line"/>
      <point x="235" y="0"/>
      <point x="280" y="-20"/>
      <point x="330" y="-20" type="curve" smooth="yes"/>
      <point x="450" y="-20"/>
      <point x="540" y="70"/>
      <point x="540" y="185" type="curve" smooth="yes"/>
      <point x="540" y="380"/>
      <point x="310" y="385"/>
      <point x="310" y="385" type="curve"/>
    </contour>
  </outline>
</glyph>
<glyph name="agrave" format="1">
  <advance width="515"/>
  <unicode hex="00E0"/>
  <outline>
    <contour>
      <point x="122" y="740" type="line" name="hr00"/>
      <point x="252" y="580" type="line"/>
      <point x="272" y="580" type="line"/>
      <point x="212" y="740" type="line"/>
    </contour>
    <component base="a"/>
  </outline>
</glyph>
<glyph name="ae" format="1">
  <advance width="810"/>
  <unicode hex="00E6"/>
  <outline>
    <contour>
      <point x="435" y="30" type="curve" name="hr00"/>
      <point x="435" y="229" type="line"/>
      <point x="770" y="229" type="line"/>
      <point x="770" y="240" type="line" smooth="yes"/>
      <point x="770" y="390"/>
      <point x="660" y="500"/>
      <point x="540" y="500" type="curve" smooth="yes"/>
      <point x="435" y="500"/>
      <point x="385" y="440"/>
      <point x="385" y="440" type="curve"/>
      <point x="385" y="440"/>
      <point x="340" y="500"/>
      <point x="255" y="500" type="curve" smooth="yes"/>
      <point x="180" y="500"/>
      <point x="115" y="445"/>
      <point x="115" y="445" type="curve"/>
      <point x="115" y="430" type="line"/>
      <point x="115" y="430"/>
      <point x="180" y="490"/>
      <point x="255" y="490" type="curve" smooth="yes"/>
      <point x="300" y="490"/>
      <point x="335" y="470"/>
      <point x="335" y="470" type="curve"/>
      <point x="335" y="260" type="line"/>
      <point x="335" y="260"/>
      <point x="285" y="300"/>
      <point x="215" y="300" type="curve" smooth="yes"/>
      <point x="120" y="300"/>
      <point x="50" y="230"/>
      <point x="50" y="140" type="curve" smooth="yes"/>
      <point x="50" y="50"/>
      <point x="120" y="-20"/>
      <point x="215" y="-20" type="curve" smooth="yes"/>
      <point x="320" y="-20"/>
      <point x="385" y="65"/>
      <point x="385" y="65" type="curve"/>
      <point x="385" y="65"/>
      <point x="450" y="-20"/>
      <point x="555" y="-20" type="curve" smooth="yes"/>
      <point x="665" y="-20"/>
      <point x="725" y="60"/>
      <point x="725" y="60" type="curve"/>
      <point x="725" y="80" type="line"/>
      <point x="725" y="80"/>
      <point x="665" y="-10"/>
      <point x="555" y="-10" type="curve" smooth="yes"/>
      <point x="485" y="-10"/>
    </contour>
    <contour>
      <point x="655" y="240" type="line"/>
      <point x="435" y="240" type="line"/>
      <point x="435" y="465" type="line"/>
      <point x="435" y="465"/>
      <point x="480" y="490"/>
      <point x="540" y="490" type="curve" smooth="yes"/>
      <point x="605" y="490"/>
      <point x="655" y="450"/>
      <point x="655" y="450" type="curve"/>
    </contour>
    <contour>
      <point x="215" y="-10" type="curve" smooth="yes"/>
      <point x="185" y="-10"/>
      <point x="155" y="0"/>
      <point x="155" y="1" type="curve"/>
      <point x="155" y="280" type="line"/>
      <point x="155" y="280"/>
      <point x="185" y="290"/>
      <point x="215" y="290" type="curve" smooth="yes"/>
      <point x="285" y="290"/>
      <point x="335" y="245"/>
      <point x="335" y="245" type="curve"/>
      <point x="335" y="30" type="line"/>
      <point x="335" y="30"/>
      <point x="285" y="-10"/>
    </contour>
  </outline>
</glyph>
<glyph name="ccedilla" format="1">
  <advance width="505"/>
  <unicode hex="00E7"/>
  <outline>
    <contour>
      <point x="267" y="-80" type="curve" name="hr00"/>
      <point x="291" y="-20" type="line"/>
      <point x="417" y="-16"/>
      <point x="475" y="80"/>
      <point x="475" y="80" type="curve"/>
      <point x="475" y="100" type="line"/>
      <point x="475" y="100"/>
      <point x="415" y="-10"/>
      <point x="285" y="-10" type="curve" smooth="yes"/>
      <point x="215" y="-10"/>
      <point x="165" y="30"/>
      <point x="165" y="30" type="curve"/>
      <point x="165" y="450" type="line"/>
      <point x="165" y="450"/>
      <point x="215" y="490"/>
      <point x="285" y="490" type="curve" smooth="yes"/>
      <point x="364" y="490"/>
      <point x="410" y="450"/>
      <point x="410" y="450" type="curve"/>
      <point x="395" y="450" type="line" smooth="yes"/>
      <point x="365" y="450"/>
      <point x="335" y="420"/>
      <point x="335" y="390" type="curve" smooth="yes"/>
      <point x="335" y="355"/>
      <point x="365" y="325"/>
      <point x="400" y="325" type="curve" smooth="yes"/>
      <point x="435" y="325"/>
      <point x="465" y="355"/>
      <point x="465" y="390" type="curve" smooth="yes"/>
      <point x="465" y="430"/>
      <point x="395" y="500"/>
      <point x="285" y="500" type="curve" smooth="yes"/>
      <point x="160" y="500"/>
      <point x="50" y="390"/>
      <point x="50" y="240" type="curve" smooth="yes"/>
      <point x="50" y="91"/>
      <point x="158" y="-18"/>
      <point x="282" y="-20" type="curve"/>
      <point x="252" y="-90" type="line"/>
      <point x="282" y="-90"/>
      <point x="297" y="-95"/>
      <point x="297" y="-95" type="curve"/>
      <point x="297" y="-225" type="line"/>
      <point x="297" y="-225"/>
      <point x="287" y="-230"/>
      <point x="272" y="-230" type="curve" smooth="yes"/>
      <point x="233" y="-230"/>
      <point x="203" y="-197"/>
      <point x="202" y="-195" type="curve"/>
      <point x="202" y="-210" type="line"/>
      <point x="202" y="-210"/>
      <point x="232" y="-240"/>
      <point x="272" y="-240" type="curve" smooth="yes"/>
      <point x="327" y="-240"/>
      <point x="362" y="-205"/>
      <point x="362" y="-160" type="curve" smooth="yes"/>
      <point x="362" y="-115"/>
      <point x="327" y="-80"/>
    </contour>
  </outline>
</glyph>
<glyph name="egrave" format="1">
  <advance width="540"/>
  <unicode hex="00E8"/>
  <outline>
    <contour>
      <point x="145" y="740" type="line" name="hr00"/>
      <point x="275" y="580" type="line"/>
      <point x="295" y="580" type="line"/>
      <point x="235" y="740" type="line"/>
    </contour>
    <component base="e"/>
  </outline>
</glyph>
<glyph name="igrave" format="1">
  <advance width="290"/>
  <unicode hex="00EC"/>
  <outline>
    <contour>
      <point x="10" y="730" type="line" name="hr00"/>
      <point x="140" y="570" type="line"/>
      <point x="160" y="570" type="line"/>
      <point x="100" y="730" type="line"/>
    </contour>
    <component base="dotlessi"/>
  </outline>
</glyph>
<glyph name="eth" format="1">
  <advance width="570"/>
  <unicode hex="00F0"/>
  <outline>
    <contour>
      <point x="520" y="240" type="curve" smooth="yes" name="hr00"/>
      <point x="520" y="452"/>
      <point x="445" y="579"/>
      <point x="334" y="671" type="curve"/>
      <point x="410" y="760" type="line"/>
      <point x="400" y="770" type="line"/>
      <point x="323" y="680" type="line"/>
      <point x="291" y="705"/>
      <point x="256" y="728"/>
      <point x="220" y="750" type="curve"/>
      <point x="210" y="740" type="line"/>
      <point x="249" y="719"/>
      <point x="284" y="696"/>
      <point x="316" y="671" type="curve"/>
      <point x="230" y="570" type="line"/>
      <point x="240" y="560" type="line"/>
      <point x="327" y="662" type="line"/>
      <point x="424" y="581"/>
      <point x="482" y="478"/>
      <point x="499" y="348" type="curve"/>
      <point x="461" y="440"/>
      <point x="377" y="500"/>
      <point x="285" y="500" type="curve" smooth="yes"/>
      <point x="160" y="500"/>
      <point x="50" y="390"/>
      <point x="50" y="240" type="curve" smooth="yes"/>
      <point x="50" y="90"/>
      <point x="160" y="-20"/>
      <point x="285" y="-20" type="curve" smooth="yes"/>
      <point x="410" y="-20"/>
      <point x="520" y="90"/>
    </contour>
    <contour>
      <point x="285" y="-10" type="curve" smooth="yes"/>
      <point x="215" y="-10"/>
      <point x="165" y="30"/>
      <point x="165" y="30" type="curve"/>
      <point x="165" y="450" type="line"/>
      <point x="165" y="450"/>
      <point x="215" y="490"/>
      <point x="285" y="490" type="curve" smooth="yes"/>
      <point x="355" y="490"/>
      <point x="405" y="450"/>
      <point x="405" y="450" type="curve"/>
      <point x="405" y="30" type="line"/>
      <point x="405" y="30"/>
      <point x="355" y="-10"/>
    </contour>
  </outline>
</glyph>
<glyph name="ograve" format="1">
  <advance width="570"/>
  <unicode hex="00F2"/>
  <outline>
    <contour>
      <point x="150" y="740" type="line" name="hr00"/>
      <point x="280" y="580" type="line"/>
      <point x="300" y="580" type="line"/>
      <point x="240" y="740" type="line"/>
    </contour>
    <component base="o"/>
  </outline>
</glyph>
<glyph name="divide" format="1">
  <advance width="410"/>
  <unicode hex="00F7"/>
  <outline>
    <contour>
      <point x="20" y="290" type="line" name="hr00"/>
      <point x="390" y="290" type="line"/>
      <point x="390" y="300" type="line"/>
      <point x="20" y="300" type="line"/>
    </contour>
    <contour>
      <point x="205" y="180" type="curve"/>
      <point x="175" y="180"/>
      <point x="150" y="155"/>
      <point x="150" y="125" type="curve" smooth="yes"/>
      <point x="150" y="95"/>
      <point x="175" y="70"/>
      <point x="205" y="70" type="curve" smooth="yes"/>
      <point x="235" y="70"/>
      <point x="260" y="95"/>
      <point x="260" y="125" type="curve" smooth="yes"/>
      <point x="260" y="155"/>
      <point x="235" y="180"/>
    </contour>
    <contour>
      <point x="205" y="520" type="curve"/>
      <point x="175" y="520"/>
      <point x="150" y="495"/>
      <point x="150" y="465" type="curve" smooth="yes"/>
      <point x="150" y="435"/>
      <point x="175" y="410"/>
      <point x="205" y="410" type="curve" smooth="yes"/>
      <point x="235" y="410"/>
      <point x="260" y="435"/>
      <point x="260" y="465" type="curve" smooth="yes"/>
      <point x="260" y="495"/>
      <point x="235" y="520"/>
    </contour>
  </outline>
</glyph>
<glyph name="oslash" format="1">
  <advance width="570"/>
  <unicode hex="00F8"/>
  <outline>
    <contour>
      <point x="435" y="500" type="line" name="hr00"/>
      <point x="410" y="460" type="line"/>
      <point x="373" y="485"/>
      <point x="330" y="500"/>
      <point x="285" y="500" type="curve" smooth="yes"/>
      <point x="160" y="500"/>
      <point x="50" y="390"/>
      <point x="50" y="240" type="curve" smooth="yes"/>
      <point x="50" y="149"/>
      <point x="90" y="73"/>
      <point x="149" y="27" type="curve"/>
      <point x="120" y="-20" type="line"/>
      <point x="135" y="-20" type="line"/>
      <point x="159" y="20" type="line"/>
      <point x="196" y="-5"/>
      <point x="239" y="-20"/>
      <point x="285" y="-20" type="curve" smooth="yes"/>
      <point x="410" y="-20"/>
      <point x="520" y="90"/>
      <point x="520" y="240" type="curve" smooth="yes"/>
      <point x="520" y="330"/>
      <point x="480" y="406"/>
      <point x="421" y="452" type="curve"/>
      <point x="450" y="500" type="line"/>
    </contour>
    <contour>
      <point x="165" y="450" type="line"/>
      <point x="165" y="450"/>
      <point x="215" y="490"/>
      <point x="285" y="490" type="curve" smooth="yes"/>
      <point x="353" y="490"/>
      <point x="402" y="452"/>
      <point x="404" y="450" type="curve"/>
      <point x="165" y="54" type="line"/>
    </contour>
    <contour>
      <point x="285" y="-10" type="curve" smooth="yes"/>
      <point x="217" y="-10"/>
      <point x="168" y="27"/>
      <point x="165" y="29" type="curve"/>
      <point x="405" y="425" type="line"/>
      <point x="405" y="30" type="line"/>
      <point x="405" y="30"/>
      <point x="355" y="-10"/>
    </contour>
  </outline>
</glyph>
<glyph name="ugrave" format="1">
  <advance width="610"/>
  <unicode hex="00F9"/>
  <outline>
    <contour>
      <point x="180" y="730" type="line" name="hr00"/>
      <point x="310" y="570" type="line"/>
      <point x="330" y="570" type="line"/>
      <point x="270" y="730" type="line"/>
    </contour>
    <component base="u"/>
  </outline>
</glyph>
<glyph name="Aogonek" format="1">
  <advance width="620"/>
  <unicode hex="0104"/>
  <outline>
    <contour>
      <point x="590" y="-140" type="line" name="hr00"/>
      <point x="590" y="-140"/>
      <point x="560" y="-160"/>
      <point x="530" y="-160" type="curve" smooth="yes"/>
      <point x="500" y="-160"/>
      <point x="480" y="-140"/>
      <point x="480" y="-110" type="curve" smooth="yes"/>
      <point x="480" y="-60"/>
      <point x="560" y="0"/>
      <point x="560" y="0" type="curve"/>
      <point x="620" y="0" type="line"/>
      <point x="620" y="10" type="line"/>
      <point x="560" y="10" type="line"/>
      <point x="315" y="700" type="line"/>
      <point x="295" y="700" type="line"/>
      <point x="60" y="10" type="line"/>
      <point x="-20" y="10" type="line"/>
      <point x="-20" y="0" type="line"/>
      <point x="150" y="0" type="line"/>
      <point x="150" y="10" type="line"/>
      <point x="70" y="10" type="line"/>
      <point x="131" y="190" type="line"/>
      <point x="375" y="190" type="line"/>
      <point x="440" y="10" type="line"/>
      <point x="380" y="10" type="line"/>
      <point x="380" y="0" type="line"/>
      <point x="550" y="0" type="line"/>
      <point x="550" y="0"/>
      <point x="430" y="-60"/>
      <point x="430" y="-130" type="curve" smooth="yes"/>
      <point x="430" y="-170"/>
      <point x="460" y="-200"/>
      <point x="510" y="-200" type="curve" smooth="yes"/>
      <point x="560" y="-200"/>
      <point x="590" y="-150"/>
      <point x="590" y="-150" type="curve"/>
    </contour>
    <contour>
      <point x="135" y="200" type="line"/>
      <point x="250" y="540" type="line"/>
      <point x="370" y="200" type="line"/>
    </contour>
  </outline>
</glyph>
<glyph name="aogonek" format="1">
  <advance width="515"/>
  <unicode hex="0105"/>
  <outline>
    <contour>
      <point x="455" y="-140" type="line" name="hr00"/>
      <point x="455" y="-140"/>
      <point x="425" y="-160"/>
      <point x="395" y="-160" type="curve" smooth="yes"/>
      <point x="365" y="-160"/>
      <point x="345" y="-140"/>
      <point x="345" y="-110" type="curve" smooth="yes"/>
      <point x="345" y="-60"/>
      <point x="425" y="0"/>
      <point x="425" y="0" type="curve"/>
      <point x="475" y="0" type="line"/>
      <point x="475" y="10" type="line"/>
      <point x="425" y="10" type="line"/>
      <point x="425" y="290" type="line" smooth="yes"/>
      <point x="425" y="420"/>
      <point x="345" y="500"/>
      <point x="245" y="500" type="curve" smooth="yes"/>
      <point x="170" y="500"/>
      <point x="105" y="445"/>
      <point x="105" y="445" type="curve"/>
      <point x="105" y="430" type="line"/>
      <point x="105" y="430"/>
      <point x="170" y="490"/>
      <point x="245" y="490" type="curve" smooth="yes"/>
      <point x="295" y="490"/>
      <point x="325" y="465"/>
      <point x="325" y="465" type="curve"/>
      <point x="325" y="260" type="line"/>
      <point x="325" y="260"/>
      <point x="275" y="300"/>
      <point x="205" y="300" type="curve" smooth="yes"/>
      <point x="110" y="300"/>
      <point x="40" y="230"/>
      <point x="40" y="140" type="curve" smooth="yes"/>
      <point x="40" y="50"/>
      <point x="110" y="-20"/>
      <point x="205" y="-20" type="curve" smooth="yes"/>
      <point x="275" y="-20"/>
      <point x="325" y="40"/>
      <point x="325" y="40" type="curve"/>
      <point x="325" y="0" type="line"/>
      <point x="415" y="0" type="line"/>
      <point x="415" y="0"/>
      <point x="295" y="-60"/>
      <point x="295" y="-130" type="curve" smooth="yes"/>
      <point x="295" y="-170"/>
      <point x="325" y="-200"/>
      <point x="375" y="-200" type="curve" smooth="yes"/>
      <point x="425" y="-200"/>
      <point x="455" y="-150"/>
      <point x="455" y="-150" type="curve"/>
    </contour>
    <contour>
      <point x="205" y="-10" type="curve" smooth="yes"/>
      <point x="175" y="-10"/>
      <point x="145" y="0"/>
      <point x="145" y="1" type="curve"/>
      <point x="145" y="280" type="line"/>
      <point x="145" y="280"/>
      <point x="175" y="290"/>
      <point x="205" y="290" type="curve" smooth="yes"/>
      <point x="275" y="290"/>
      <point x="325" y="245"/>
      <point x="325" y="245" type="curve"/>
      <point x="325" y="55" type="line"/>
      <point x="325" y="55"/>
      <point x="275" y="-10"/>
    </contour>
  </outline>
</glyph>
<glyph name="dcroat" format="1">
  <advance width="575"/>
  <unicode hex="0111"/>
  <outline>
    <contour>
      <point x="265" y="590" type="line" name="hr00"/>
      <point x="265" y="580" type="line"/>
      <point x="375" y="580" type="line"/>
      <point x="375" y="450" type="line"/>
      <point x="375" y="450"/>
      <point x="335" y="500"/>
      <point x="265" y="500" type="curve" smooth="yes"/>
      <point x="150" y="500"/>
      <point x="50" y="400"/>
      <point x="50" y="240" type="curve" smooth="yes"/>
      <point x="50" y="80"/>
      <point x="150" y="-20"/>
      <point x="265" y="-20" type="curve" smooth="yes"/>
      <point x="335" y="-20"/>
      <point x="375" y="30"/>
      <point x="375" y="30" type="curve"/>
      <point x="375" y="0" type="line"/>
      <point x="525" y="0" type="line"/>
      <point x="525" y="10" type="line"/>
      <point x="475" y="10" type="line"/>
      <point x="475" y="580" type="line"/>
      <point x="525" y="580" type="line"/>
      <point x="525" y="590" type="line"/>
      <point x="475" y="590" type="line"/>
      <point x="475" y="690" type="line"/>
      <point x="525" y="690" type="line"/>
      <point x="525" y="700" type="line"/>
      <point x="375" y="700" type="line"/>
      <point x="375" y="590" type="line"/>
    </contour>
    <contour>
      <point x="375" y="45" type="line"/>
      <point x="375" y="45"/>
      <point x="335" y="-10"/>
      <point x="265" y="-10" type="curve" smooth="yes"/>
      <point x="205" y="-10"/>
      <point x="165" y="20"/>
      <point x="165" y="20" type="curve"/>
      <point x="165" y="460" type="line"/>
      <point x="165" y="460"/>
      <point x="205" y="490"/>
      <point x="265" y="490" type="curve" smooth="yes"/>
      <point x="335" y="490"/>
      <point x="375" y="435"/>
      <point x="375" y="435" type="curve"/>
    </contour>
  </outline>
</glyph>
<glyph name="Eogonek" format="1">
  <advance width="560"/>
  <unicode hex="0118"/>
  <outline>
    <contour>
      <point x="400" y="-140" type="line" name="hr00"/>
      <point x="400" y="-140"/>
      <point x="370" y="-160"/>
      <point x="340" y="-160" type="curve" smooth="yes"/>
      <point x="310" y="-160"/>
      <point x="290" y="-140"/>
      <point x="290" y="-110" type="curve" smooth="yes"/>
      <point x="290" y="-60"/>
      <point x="370" y="0"/>
      <point x="370" y="0" type="curve"/>
      <point x="500" y="0" type="line"/>
      <point x="500" y="200" type="line"/>
      <point x="490" y="200" type="line"/>
      <point x="420" y="10" type="line"/>
      <point x="230" y="10" type="line"/>
      <point x="230" y="360" type="line"/>
      <point x="370" y="360" type="line"/>
      <point x="370" y="270" type="line"/>
      <point x="380" y="270" type="line"/>
      <point x="380" y="460" type="line"/>
      <point x="370" y="460" type="line"/>
      <point x="370" y="370" type="line"/>
      <point x="230" y="370" type="line"/>
      <point x="230" y="690" type="line"/>
      <point x="410" y="690" type="line"/>
      <point x="480" y="500" type="line"/>
      <point x="490" y="500" type="line"/>
      <point x="490" y="700" type="line"/>
      <point x="60" y="700" type="line"/>
      <point x="60" y="690" type="line"/>
      <point x="120" y="690" type="line"/>
      <point x="120" y="10" type="line"/>
      <point x="60" y="10" type="line"/>
      <point x="60" y="0" type="line"/>
      <point x="360" y="0" type="line"/>
      <point x="360" y="0"/>
      <point x="240" y="-60"/>
      <point x="240" y="-130" type="curve" smooth="yes"/>
      <point x="240" y="-170"/>
      <point x="270" y="-200"/>
      <point x="320" y="-200" type="curve" smooth="yes"/>
      <point x="370" y="-200"/>
      <point x="400" y="-150"/>
      <point x="400" y="-150" type="curve"/>
    </contour>
  </outline>
</glyph>
<glyph name="eogonek" format="1">
  <advance width="540"/>
  <unicode hex="0119"/>
  <outline>
    <contour>
      <point x="360" y="-150" type="line" name="hr00"/>
      <point x="360" y="-150"/>
      <point x="330" y="-170"/>
      <point x="300" y="-170" type="curve" smooth="yes"/>
      <point x="270" y="-170"/>
      <point x="250" y="-150"/>
      <point x="250" y="-120" type="curve" smooth="yes"/>
      <point x="250" y="-79"/>
      <point x="301" y="-33"/>
      <point x="321" y="-17" type="curve"/>
      <point x="407" y="-2"/>
      <point x="455" y="60"/>
      <point x="455" y="60" type="curve"/>
      <point x="455" y="80" type="line"/>
      <point x="455" y="80"/>
      <point x="395" y="-10"/>
      <point x="285" y="-10" type="curve" smooth="yes"/>
      <point x="215" y="-10"/>
      <point x="165" y="30"/>
      <point x="165" y="30" type="curve"/>
      <point x="165" y="229" type="line"/>
      <point x="500" y="229" type="line"/>
      <point x="500" y="240" type="line" smooth="yes"/>
      <point x="500" y="390"/>
      <point x="390" y="500"/>
      <point x="275" y="500" type="curve" smooth="yes"/>
      <point x="160" y="500"/>
      <point x="50" y="390"/>
      <point x="50" y="240" type="curve" smooth="yes"/>
      <point x="50" y="90"/>
      <point x="160" y="-20"/>
      <point x="285" y="-20" type="curve" smooth="yes"/>
      <point x="291" y="-20"/>
      <point x="297" y="-20"/>
      <point x="303" y="-19" type="curve"/>
      <point x="270" y="-39"/>
      <point x="200" y="-86"/>
      <point x="200" y="-140" type="curve" smooth="yes"/>
      <point x="200" y="-180"/>
      <point x="230" y="-210"/>
      <point x="280" y="-210" type="curve" smooth="yes"/>
      <point x="330" y="-210"/>
      <point x="360" y="-160"/>
      <point x="360" y="-160" type="curve"/>
    </contour>
    <contour>
      <point x="385" y="240" type="line"/>
      <point x="165" y="240" type="line"/>
      <point x="165" y="455" type="line"/>
      <point x="165" y="455"/>
      <point x="215" y="490"/>
      <point x="275" y="490" type="curve" smooth="yes"/>
      <point x="335" y="490"/>
      <point x="385" y="455"/>
      <point x="385" y="455" type="curve"/>
    </contour>
  </outline>
</glyph>
<glyph name="gcommaaccent" format="1">
  <advance width="575"/>
  <unicode hex="0123"/>
  <outline>
    <contour>
      <point x="270" y="590" type="curve" smooth="yes" name="hr00"/>
      <point x="300" y="590"/>
      <point x="325" y="615"/>
      <point x="325" y="645" type="curve" smooth="yes"/>
      <point x="325" y="675"/>
      <point x="300" y="700"/>
      <point x="270" y="700" type="curve" smooth="yes"/>
      <point x="235" y="700"/>
      <point x="220" y="670"/>
      <point x="220" y="670" type="curve"/>
      <point x="220" y="755"/>
      <point x="255" y="790"/>
      <point x="300" y="790" type="curve"/>
      <point x="300" y="800" type="line"/>
      <point x="250" y="800"/>
      <point x="210" y="760"/>
      <point x="210" y="670" type="curve" smooth="yes"/>
      <point x="210" y="620"/>
      <point x="240" y="590"/>
    </contour>
    <component base="g"/>
  </outline>
</glyph>
<glyph name="Iogonek" format="1">
  <advance width="350"/>
  <unicode hex="012E"/>
  <outline>
    <contour>
      <point x="260" y="-140" type="line" name="hr00"/>
      <point x="260" y="-140"/>
      <point x="230" y="-160"/>
      <point x="200" y="-160" type="curve" smooth="yes"/>
      <point x="170" y="-160"/>
      <point x="150" y="-140"/>
      <point x="150" y="-110" type="curve" smooth="yes"/>
      <point x="150" y="-60"/>
      <point x="230" y="0"/>
      <point x="230" y="0" type="curve"/>
      <point x="290" y="0" type="line"/>
      <point x="290" y="10" type="line"/>
      <point x="230" y="10" type="line"/>
      <point x="230" y="690" type="line"/>
      <point x="290" y="690" type="line"/>
      <point x="290" y="700" type="line"/>
      <point x="60" y="700" type="line"/>
      <point x="60" y="690" type="line"/>
      <point x="120" y="690" type="line"/>
      <point x="120" y="10" type="line"/>
      <point x="60" y="10" type="line"/>
      <point x="60" y="0" type="line"/>
      <point x="220" y="0" type="line"/>
      <point x="220" y="0"/>
      <point x="100" y="-60"/>
      <point x="100" y="-130" type="curve" smooth="yes"/>
      <point x="100" y="-170"/>
      <point x="130" y="-200"/>
      <point x="180" y="-200" type="curve" smooth="yes"/>
      <point x="230" y="-200"/>
      <point x="260" y="-150"/>
      <point x="260" y="-150" type="curve"/>
    </contour>
  </outline>
</glyph>
<glyph name="iogonek" format="1">
  <advance width="290"/>
  <unicode hex="012F"/>
  <outline>
    <contour>
      <point x="230" y="-140" type="line" name="hr00"/>
      <point x="230" y="-140"/>
      <point x="200" y="-160"/>
      <point x="170" y="-160" type="curve" smooth="yes"/>
      <point x="140" y="-160"/>
      <point x="120" y="-140"/>
      <point x="120" y="-110" type="curve" smooth="yes"/>
      <point x="120" y="-60"/>
      <point x="200" y="0"/>
      <point x="200" y="0" type="curve"/>
      <point x="250" y="0" type="line"/>
      <point x="250" y="10" type="line"/>
      <point x="200" y="10" type="line"/>
      <point x="200" y="480" type="line"/>
      <point x="50" y="480" type="line"/>
      <point x="50" y="470" type="line"/>
      <point x="100" y="470" type="line"/>
      <point x="100" y="10" type="line"/>
      <point x="50" y="10" type="line"/>
      <point x="50" y="0" type="line"/>
      <point x="190" y="0" type="line"/>
      <point x="190" y="0"/>
      <point x="70" y="-60"/>
      <point x="70" y="-130" type="curve" smooth="yes"/>
      <point x="70" y="-170"/>
      <point x="100" y="-200"/>
      <point x="150" y="-200" type="curve" smooth="yes"/>
      <point x="200" y="-200"/>
      <point x="230" y="-150"/>
      <point x="230" y="-150" type="curve"/>
    </contour>
    <contour>
      <point x="150" y="580" type="curve" smooth="yes"/>
      <point x="185" y="580"/>
      <point x="210" y="605"/>
      <point x="210" y="640" type="curve" smooth="yes"/>
      <point x="210" y="675"/>
      <point x="185" y="700"/>
      <point x="150" y="700" type="curve" smooth="yes"/>
      <point x="115" y="700"/>
      <point x="90" y="675"/>
      <point x="90" y="640" type="curve" smooth="yes"/>
      <point x="90" y="605"/>
      <point x="115" y="580"/>
    </contour>
  </outline>
</glyph>
<glyph name="dotlessi" format="1">
  <advance width="290"/>
  <unicode hex="0131"/>
  <outline>
    <contour>
      <point x="200" y="10" type="line" name="hr00"/>
      <point x="200" y="480" type="line"/>
      <point x="50" y="480" type="line"/>
      <point x="50" y="470" type="line"/>
      <point x="100" y="470" type="line"/>
      <point x="100" y="10" type="line"/>
      <point x="50" y="10" type="line"/>
      <point x="50" y="0" type="line"/>
      <point x="250" y="0" type="line"/>
      <point x="250" y="10" type="line"/>
    </contour>
  </outline>
</glyph>
<glyph name="Lslash" format="1">
  <advance width="540"/>
  <unicode hex="0141"/>
  <outline>
    <contour>
      <point x="490" y="200" type="line" name="hr00"/>
      <point x="420" y="10" type="line"/>
      <point x="220" y="10" type="line"/>
      <point x="220" y="376" type="line"/>
      <point x="290" y="410" type="line"/>
      <point x="290" y="420" type="line"/>
      <point x="220" y="386" type="line"/>
      <point x="220" y="690" type="line"/>
      <point x="280" y="690" type="line"/>
      <point x="280" y="700" type="line"/>
      <point x="50" y="700" type="line"/>
      <point x="50" y="690" type="line"/>
      <point x="110" y="690" type="line"/>
      <point x="110" y="333" type="line"/>
      <point x="40" y="300" type="line"/>
      <point x="40" y="290" type="line"/>
      <point x="110" y="323" type="line"/>
      <point x="110" y="10" type="line"/>
      <point x="50" y="10" type="line"/>
      <point x="50" y="0" type="line"/>
      <point x="500" y="0" type="line"/>
      <point x="500" y="200" type="line"/>
    </contour>
  </outline>
</glyph>
<glyph name="lslash" format="1">
  <advance width="280"/>
  <unicode hex="0142"/>
  <outline>
    <contour>
      <point x="260" y="405" type="line" name="hr00"/>
      <point x="260" y="415" type="line"/>
      <point x="190" y="381" type="line"/>
      <point x="190" y="700" type="line"/>
      <point x="40" y="700" type="line"/>
      <point x="40" y="690" type="line"/>
      <point x="90" y="690" type="line"/>
      <point x="90" y="333" type="line"/>
      <point x="20" y="300" type="line"/>
      <point x="20" y="290" type="line"/>
      <point x="90" y="323" type="line"/>
      <point x="90" y="10" type="line"/>
      <point x="40" y="10" type="line"/>
      <point x="40" y="0" type="line"/>
      <point x="240" y="0" type="line"/>
      <point x="240" y="10" type="line"/>
      <point x="190" y="10" type="line"/>
      <point x="190" y="371" type="line"/>
    </contour>
  </outline>
</glyph>
<glyph name="OE" format="1">
  <advance width="890"/>
  <unicode hex="0152"/>
  <outline>
    <contour>
      <point x="50" y="350" type="curve" smooth="yes" name="hr00"/>
      <point x="50" y="160"/>
      <point x="210" y="0"/>
      <point x="395" y="0" type="curve" smooth="yes"/>
      <point x="830" y="0" type="line"/>
      <point x="830" y="200" type="line"/>
      <point x="820" y="200" type="line"/>
      <point x="750" y="10" type="line"/>
      <point x="560" y="10" type="line"/>
      <point x="560" y="360" type="line"/>
      <point x="700" y="360" type="line"/>
      <point x="700" y="270" type="line"/>
      <point x="710" y="270" type="line"/>
      <point x="710" y="460" type="line"/>
      <point x="700" y="460" type="line"/>
      <point x="700" y="370" type="line"/>
      <point x="560" y="370" type="line"/>
      <point x="560" y="690" type="line"/>
      <point x="740" y="690" type="line"/>
      <point x="810" y="500" type="line"/>
      <point x="820" y="500" type="line"/>
      <point x="820" y="700" type="line"/>
      <point x="395" y="700" type="line" smooth="yes"/>
      <point x="210" y="700"/>
      <point x="50" y="540"/>
    </contour>
    <contour>
      <point x="450" y="10" type="line"/>
      <point x="395" y="10" type="line" smooth="yes"/>
      <point x="260" y="10"/>
      <point x="180" y="95"/>
      <point x="180" y="95" type="curve"/>
      <point x="180" y="605" type="line"/>
      <point x="180" y="605"/>
      <point x="260" y="690"/>
      <point x="395" y="690" type="curve" smooth="yes"/>
      <point x="450" y="690" type="line"/>
    </contour>
  </outline>
</glyph>
<glyph name="oe" format="1">
  <advance width="870"/>
  <unicode hex="0153"/>
  <outline>
    <contour>
      <point x="285" y="500" type="curve" smooth="yes" name="hr00"/>
      <point x="160" y="500"/>
      <point x="50" y="390"/>
      <point x="50" y="240" type="curve" smooth="yes"/>
      <point x="50" y="90"/>
      <point x="160" y="-20"/>
      <point x="285" y="-20" type="curve" smooth="yes"/>
      <point x="371" y="-20"/>
      <point x="436" y="45"/>
      <point x="447" y="57" type="curve"/>
      <point x="491" y="9"/>
      <point x="551" y="-20"/>
      <point x="615" y="-20" type="curve" smooth="yes"/>
      <point x="725" y="-20"/>
      <point x="785" y="60"/>
      <point x="785" y="60" type="curve"/>
      <point x="785" y="80" type="line"/>
      <point x="785" y="80"/>
      <point x="725" y="-10"/>
      <point x="615" y="-10" type="curve" smooth="yes"/>
      <point x="545" y="-10"/>
      <point x="495" y="30"/>
      <point x="495" y="30" type="curve"/>
      <point x="495" y="229" type="line"/>
      <point x="830" y="229" type="line"/>
      <point x="830" y="240" type="line" smooth="yes"/>
      <point x="830" y="390"/>
      <point x="720" y="500"/>
      <point x="605" y="500" type="curve" smooth="yes"/>
      <point x="546" y="500"/>
      <point x="489" y="471"/>
      <point x="447" y="423" type="curve"/>
      <point x="434" y="437"/>
      <point x="369" y="500"/>
    </contour>
    <contour>
      <point x="380" y="240" type="curve" smooth="yes"/>
      <point x="380" y="171"/>
      <point x="403" y="110"/>
      <point x="440" y="65" type="curve"/>
      <point x="425" y="48"/>
      <point x="366" y="-10"/>
      <point x="285" y="-10" type="curve" smooth="yes"/>
      <point x="215" y="-10"/>
      <point x="165" y="30"/>
      <point x="165" y="30" type="curve"/>
      <point x="165" y="450" type="line"/>
      <point x="165" y="450"/>
      <point x="215" y="490"/>
      <point x="285" y="490" type="curve" smooth="yes"/>
      <point x="367" y="490"/>
      <point x="425" y="431"/>
      <point x="440" y="415" type="curve"/>
      <point x="403" y="370"/>
      <point x="380" y="309"/>
    </contour>
    <contour>
      <point x="715" y="240" type="line"/>
      <point x="495" y="240" type="line"/>
      <point x="495" y="455" type="line"/>
      <point x="495" y="455"/>
      <point x="545" y="490"/>
      <point x="605" y="490" type="curve" smooth="yes"/>
      <point x="665" y="490"/>
      <point x="715" y="455"/>
      <point x="715" y="455" type="curve"/>
    </contour>
  </outline>
</glyph>
<glyph name="Scedilla" format="1">
  <advance width="530"/>
  <unicode hex="015E"/>
  <outline>
    <contour>
      <point x="250" y="-80" type="curve" name="hr00"/>
      <point x="274" y="-20" type="line"/>
      <point x="406" y="-14"/>
      <point x="490" y="74"/>
      <point x="490" y="180" type="curve" smooth="yes"/>
      <point x="490" y="430"/>
      <point x="130" y="390"/>
      <point x="130" y="590" type="curve" smooth="yes"/>
      <point x="130" y="650"/>
      <point x="190" y="710"/>
      <point x="280" y="710" type="curve" smooth="yes"/>
      <point x="370" y="710"/>
      <point x="425" y="655"/>
      <point x="425" y="655" type="curve"/>
      <point x="425" y="655"/>
      <point x="410" y="660"/>
      <point x="400" y="660" type="curve" smooth="yes"/>
      <point x="360" y="660"/>
      <point x="330" y="630"/>
      <point x="330" y="590" type="curve" smooth="yes"/>
      <point x="330" y="550"/>
      <point x="360" y="520"/>
      <point x="400" y="520" type="curve" smooth="yes"/>
      <point x="440" y="520"/>
      <point x="470" y="550"/>
      <point x="470" y="590" type="curve" smooth="yes"/>
      <point x="470" y="640"/>
      <point x="390" y="720"/>
      <point x="280" y="720" type="curve" smooth="yes"/>
      <point x="150" y="720"/>
      <point x="60" y="630"/>
      <point x="60" y="530" type="curve" smooth="yes"/>
      <point x="60" y="280"/>
      <point x="420" y="320"/>
      <point x="420" y="120" type="curve" smooth="yes"/>
      <point x="420" y="50"/>
      <point x="360" y="-10"/>
      <point x="260" y="-10" type="curve" smooth="yes"/>
      <point x="113" y="-10"/>
      <point x="34" y="122"/>
      <point x="30" y="129" type="curve"/>
      <point x="30" y="115" type="line"/>
      <point x="30" y="115"/>
      <point x="110" y="-20"/>
      <point x="260" y="-20" type="curve" smooth="yes"/>
      <point x="265" y="-20" type="line"/>
      <point x="235" y="-90" type="line"/>
      <point x="265" y="-90"/>
      <point x="280" y="-95"/>
      <point x="280" y="-95" type="curve"/>
      <point x="280" y="-225" type="line"/>
      <point x="280" y="-225"/>
      <point x="270" y="-230"/>
      <point x="255" y="-230" type="curve" smooth="yes"/>
      <point x="216" y="-230"/>
      <point x="186" y="-197"/>
      <point x="185" y="-195" type="curve"/>
      <point x="185" y="-210" type="line"/>
      <point x="185" y="-210"/>
      <point x="215" y="-240"/>
      <point x="255" y="-240" type="curve" smooth="yes"/>
      <point x="310" y="-240"/>
      <point x="345" y="-205"/>
      <point x="345" y="-160" type="curve" smooth="yes"/>
      <point x="345" y="-115"/>
      <point x="310" y="-80"/>
    </contour>
  </outline>
</glyph>
<glyph name="scedilla" format="1">
  <advance width="430"/>
  <unicode hex="015F"/>
  <outline>
    <contour>
      <point x="190" y="-80" type="curve" name="hr00"/>
      <point x="215" y="-20" type="line"/>
      <point x="322" y="-18"/>
      <point x="390" y="51"/>
      <point x="390" y="130" type="curve" smooth="yes"/>
      <point x="390" y="300"/>
      <point x="125" y="290"/>
      <point x="125" y="390" type="curve" smooth="yes"/>
      <point x="125" y="450"/>
      <point x="165" y="490"/>
      <point x="235" y="490" type="curve" smooth="yes"/>
      <point x="305" y="490"/>
      <point x="345" y="445"/>
      <point x="345" y="445" type="curve"/>
      <point x="345" y="445"/>
      <point x="330" y="450"/>
      <point x="320" y="450" type="curve" smooth="yes"/>
      <point x="285" y="450"/>
      <point x="260" y="425"/>
      <point x="260" y="395" type="curve" smooth="yes"/>
      <point x="260" y="360"/>
      <point x="285" y="335"/>
      <point x="320" y="335" type="curve" smooth="yes"/>
      <point x="355" y="335"/>
      <point x="380" y="360"/>
      <point x="380" y="395" type="curve" smooth="yes"/>
      <point x="380" y="440"/>
      <point x="320" y="500"/>
      <point x="235" y="500" type="curve" smooth="yes"/>
      <point x="125" y="500"/>
      <point x="55" y="430"/>
      <point x="55" y="360" type="curve" smooth="yes"/>
      <point x="55" y="190"/>
      <point x="320" y="200"/>
      <point x="320" y="100" type="curve" smooth="yes"/>
      <point x="320" y="35"/>
      <point x="275" y="-10"/>
      <point x="210" y="-10" type="curve" smooth="yes"/>
      <point x="80" y="-10"/>
      <point x="30" y="110"/>
      <point x="30" y="110" type="curve"/>
      <point x="30" y="90" type="line"/>
      <point x="30" y="90"/>
      <point x="79" y="-17"/>
      <point x="205" y="-20" type="curve"/>
      <point x="175" y="-90" type="line"/>
      <point x="205" y="-90"/>
      <point x="220" y="-95"/>
      <point x="220" y="-95" type="curve"/>
      <point x="220" y="-225" type="line"/>
      <point x="220" y="-225"/>
      <point x="210" y="-230"/>
      <point x="195" y="-230" type="curve" smooth="yes"/>
      <point x="156" y="-230"/>
      <point x="126" y="-197"/>
      <point x="125" y="-195" type="curve"/>
      <point x="125" y="-210" type="line"/>
      <point x="125" y="-210"/>
      <point x="155" y="-240"/>
      <point x="195" y="-240" type="curve" smooth="yes"/>
      <point x="250" y="-240"/>
      <point x="285" y="-205"/>
      <point x="285" y="-160" type="curve" smooth="yes"/>
      <point x="285" y="-115"/>
      <point x="250" y="-80"/>
    </contour>
  </outline>
</glyph>
<glyph name="Uogonek" format="1">
  <advance width="650"/>
  <unicode hex="0172"/>
  <outline>
    <contour>
      <point x="440" y="-150" type="line" name="hr00"/>
      <point x="440" y="-150"/>
      <point x="410" y="-170"/>
      <point x="380" y="-170" type="curve" smooth="yes"/>
      <point x="350" y="-170"/>
      <point x="330" y="-150"/>
      <point x="330" y="-120" type="curve" smooth="yes"/>
      <point x="330" y="-75"/>
      <point x="393" y="-23"/>
      <point x="406" y="-12" type="curve"/>
      <point x="509" y="13"/>
      <point x="580" y="105"/>
      <point x="580" y="240" type="curve" smooth="yes"/>
      <point x="580" y="630" type="line" smooth="yes"/>
      <point x="580" y="675"/>
      <point x="545" y="710"/>
      <point x="500" y="710" type="curve" smooth="yes"/>
      <point x="455" y="710"/>
      <point x="420" y="675"/>
      <point x="420" y="630" type="curve" smooth="yes"/>
      <point x="420" y="585"/>
      <point x="455" y="550"/>
      <point x="500" y="550" type="curve" smooth="yes"/>
      <point x="548" y="550"/>
      <point x="569" y="587"/>
      <point x="570" y="589" type="curve"/>
      <point x="570" y="240" type="line" smooth="yes"/>
      <point x="570" y="85"/>
      <point x="475" y="-10"/>
      <point x="345" y="-10" type="curve" smooth="yes"/>
      <point x="270" y="-10"/>
      <point x="220" y="25"/>
      <point x="220" y="25" type="curve"/>
      <point x="220" y="690" type="line"/>
      <point x="280" y="690" type="line"/>
      <point x="280" y="700" type="line"/>
      <point x="50" y="700" type="line"/>
      <point x="50" y="690" type="line"/>
      <point x="110" y="690" type="line"/>
      <point x="110" y="240" type="line" smooth="yes"/>
      <point x="110" y="80"/>
      <point x="210" y="-20"/>
      <point x="345" y="-20" type="curve" smooth="yes"/>
      <point x="359" y="-20"/>
      <point x="374" y="-19"/>
      <point x="388" y="-16" type="curve"/>
      <point x="357" y="-34"/>
      <point x="280" y="-83"/>
      <point x="280" y="-140" type="curve" smooth="yes"/>
      <point x="280" y="-180"/>
      <point x="310" y="-210"/>
      <point x="360" y="-210" type="curve" smooth="yes"/>
      <point x="410" y="-210"/>
      <point x="440" y="-160"/>
      <point x="440" y="-160" type="curve"/>
    </contour>
  </outline>
</glyph>
<glyph name="uogonek" format="1">
  <advance width="610"/>
  <unicode hex="0173"/>
  <outline>
    <contour>
      <point x="540" y="-140" type="line" name="hr00"/>
      <point x="540" y="-140"/>
      <point x="510" y="-160"/>
      <point x="480" y="-160" type="curve" smooth="yes"/>
      <point x="450" y="-160"/>
      <point x="430" y="-140"/>
      <point x="430" y="-110" type="curve" smooth="yes"/>
      <point x="430" y="-60"/>
      <point x="510" y="0"/>
      <point x="510" y="0" type="curve"/>
      <point x="560" y="0" type="line"/>
      <point x="560" y="10" type="line"/>
      <point x="510" y="10" type="line"/>
      <point x="510" y="470" type="line"/>
      <point x="560" y="470" type="line"/>
      <point x="560" y="480" type="line"/>
      <point x="360" y="480" type="line"/>
      <point x="360" y="470" type="line"/>
      <point x="410" y="470" type="line"/>
      <point x="410" y="55" type="line"/>
      <point x="410" y="55"/>
      <point x="360" y="-10"/>
      <point x="280" y="-10" type="curve" smooth="yes"/>
      <point x="230" y="-10"/>
      <point x="200" y="15"/>
      <point x="200" y="15" type="curve"/>
      <point x="200" y="470" type="line"/>
      <point x="250" y="470" type="line"/>
      <point x="250" y="480" type="line"/>
      <point x="50" y="480" type="line"/>
      <point x="50" y="470" type="line"/>
      <point x="100" y="470" type="line"/>
      <point x="100" y="190" type="line" smooth="yes"/>
      <point x="100" y="60"/>
      <point x="180" y="-20"/>
      <point x="280" y="-20" type="curve" smooth="yes"/>
      <point x="360" y="-20"/>
      <point x="410" y="40"/>
      <point x="410" y="40" type="curve"/>
      <point x="410" y="0" type="line"/>
      <point x="500" y="0" type="line"/>
      <point x="500" y="0"/>
      <point x="380" y="-60"/>
      <point x="380" y="-130" type="curve" smooth="yes"/>
      <point x="380" y="-170"/>
      <point x="410" y="-200"/>
      <point x="460" y="-200" type="curve" smooth="yes"/>
      <point x="510" y="-200"/>
      <point x="540" y="-150"/>
      <point x="540" y="-150" type="curve"/>
    </contour>
  </outline>
</glyph>
<glyph name="florin" format="1">
  <advance width="290"/>
  <unicode hex="0192"/>
  <outline>
    <contour>
      <point x="-30" y="-140" type="line" name="hr00"/>
      <point x="-20" y="-190"/>
      <point x="20" y="-230"/>
      <point x="70" y="-230" type="curve" smooth="yes"/>
      <point x="130" y="-230"/>
      <point x="190" y="-170"/>
      <point x="190" y="-70" type="curve" smooth="yes"/>
      <point x="190" y="470" type="line"/>
      <point x="270" y="470" type="line"/>
      <point x="270" y="480" type="line"/>
      <point x="190" y="480" type="line"/>
      <point x="190" y="705" type="line"/>
      <point x="190" y="705"/>
      <point x="200" y="710"/>
      <point x="210" y="710" type="curve" smooth="yes"/>
      <point x="255" y="710"/>
      <point x="290" y="675"/>
      <point x="300" y="630" type="curve"/>
      <point x="310" y="630" type="line"/>
      <point x="300" y="680"/>
      <point x="260" y="720"/>
      <point x="210" y="720" type="curve" smooth="yes"/>
      <point x="150" y="720"/>
      <point x="90" y="660"/>
      <point x="90" y="560" type="curve" smooth="yes"/>
      <point x="90" y="480" type="line"/>
      <point x="40" y="480" type="line"/>
      <point x="40" y="470" type="line"/>
      <point x="90" y="470" type="line"/>
      <point x="90" y="-215" type="line"/>
      <point x="90" y="-215"/>
      <point x="80" y="-220"/>
      <point x="70" y="-220" type="curve" smooth="yes"/>
      <point x="25" y="-220"/>
      <point x="-10" y="-185"/>
      <point x="-20" y="-140" type="curve"/>
    </contour>
  </outline>
</glyph>
<glyph name="circumflex" format="1">
  <advance width="320"/>
  <unicode hex="02C6"/>
  <outline>
    <contour>
      <point x="160" y="675" type="line" name="hr00"/>
      <point x="270" y="540" type="line"/>
      <point x="290" y="540" type="line"/>
      <point x="160" y="700" type="line"/>
      <point x="30" y="540" type="line"/>
      <point x="50" y="540" type="line"/>
    </contour>
  </outline>
</glyph>
<glyph name="caron" format="1">
  <advance width="320"/>
  <unicode hex="02C7"/>
  <outline>
    <contour>
      <point x="50" y="700" type="line" name="hr00"/>
      <point x="30" y="700" type="line"/>
      <point x="160" y="540" type="line"/>
      <point x="290" y="700" type="line"/>
      <point x="270" y="700" type="line"/>
      <point x="160" y="565" type="line"/>
    </contour>
  </outline>
</glyph>
<glyph name="breve" format="1">
  <advance width="300"/>
  <unicode hex="02D8"/>
  <outline>
    <contour>
      <point x="160" y="580" type="curve" smooth="yes" name="hr00"/>
      <point x="235" y="580"/>
      <point x="270" y="614"/>
      <point x="270" y="650" type="curve" smooth="yes"/>
      <point x="270" y="680"/>
      <point x="240" y="710"/>
      <point x="210" y="710" type="curve"/>
      <point x="210" y="700" type="line"/>
      <point x="235" y="700"/>
      <point x="260" y="675"/>
      <point x="260" y="650" type="curve" smooth="yes"/>
      <point x="260" y="620"/>
      <point x="230" y="590"/>
      <point x="160" y="590" type="curve" smooth="yes"/>
      <point x="131" y="590"/>
      <point x="111" y="594"/>
      <point x="110" y="595" type="curve"/>
      <point x="114" y="597"/>
      <point x="150" y="616"/>
      <point x="150" y="650" type="curve" smooth="yes"/>
      <point x="150" y="685"/>
      <point x="125" y="710"/>
      <point x="90" y="710" type="curve" smooth="yes"/>
      <point x="55" y="710"/>
      <point x="30" y="685"/>
      <point x="30" y="650" type="curve" smooth="yes"/>
      <point x="30" y="610"/>
      <point x="60" y="580"/>
    </contour>
  </outline>
</glyph>
<glyph name="dotaccent" format="1">
  <advance width="180"/>
  <unicode hex="02D9"/>
  <outline>
    <contour>
      <point x="90" y="580" type="curve" smooth="yes" name="hr00"/>
      <point x="125" y="580"/>
      <point x="150" y="605"/>
      <point x="150" y="640" type="curve" smooth="yes"/>
      <point x="150" y="675"/>
      <point x="125" y="700"/>
      <point x="90" y="700" type="curve" smooth="yes"/>
      <point x="55" y="700"/>
      <point x="30" y="675"/>
      <point x="30" y="640" type="curve" smooth="yes"/>
      <point x="30" y="605"/>
      <point x="55" y="580"/>
    </contour>
  </outline>
</glyph>
